<svg id="Camada_1" data-name="Camada 1" xmlns="http://www.w3.org/2000/svg" viewBox="0 0 1080 1080"><path d="M543.37,359.28l3.92-5.9a7.47,7.47,0,0,1,4-4l2.6-1.94c.58-1.07,1.71-1.07,2.69-1.36,1.49-.95,3.83-.45,4.56-2.68h15.89c.13.83,1,1,1.47,1.1,11.8,3.47,18.24,11.59,20.49,23.39a17.56,17.56,0,0,1,0,5.92,31.61,31.61,0,0,1-10.75,18.39,7.38,7.38,0,0,1-4.2,2.7l-7,2.6a1.86,1.86,0,0,1-1.41.77,11.34,11.34,0,0,0-5.4,0H570c-1.57-.65-3.28.08-4.86-.49l-1.15-.17c-1.93-.07-4,.2-5.39-1.57-1.37-.52-2.49-1.63-4-1.75a8.18,8.18,0,0,1-4.61-3.36L548.08,389a7.11,7.11,0,0,1-3.27-4.66c-.66-2.95-3.07-5.3-2.94-8.53-.5-1.14.06-2.43-.49-3.57a16,16,0,0,0-.18-5.68A10.08,10.08,0,0,1,543.37,359.28Z"/><path d="M506.22,344.68v-1.3h3.31l-.09,2.27a2.15,2.15,0,0,1-1.8.15A2.37,2.37,0,0,1,506.22,344.68Z"/><path d="M131.51,530.58c2.42-5.68,7.81-7.29,12.88-9.19,10-3.73,20.45-5.14,30.88-6.81,1.32-.55,2.8.17,4.11-.5l2.51-.16c1.78-.59,3.69.21,5.47-.49l4.46-.18c4.47-.63,9,.28,13.48-.48a17.06,17.06,0,0,0,2.93.14c11.61-1.48,20.07,4.93,28.46,11.41,3.09,2.39,4.06,6.08,4.69,9.73.48,2.78.57,5.62.84,8.44a5.78,5.78,0,0,1,0,3.27c-.29,1.82-.46,3.66-.89,5.44-.82,3.37-3.09,5.07-6.53,5.28-7.81.46-15.62.06-23.44.21-1.31,0-2.64-.25-3.92.26l-1.76.18c-1.1.52-2.36-.13-3.44.51-4.1.46-8.21,1-12.32,1.37-3.2.33-1.81,2.79-2.15,4.46-.66,1.31,0,2.79-.5,4.12l-7.41,29.74c-.64,1.12-.18,1.69,1,1.68,1.52,0,3.07.3,4.56-.25l3.12-.18c1.79-.58,3.7.2,5.48-.48l3.12-.18c1.79-.58,3.7.2,5.49-.49C212.75,598.9,214.79,607,217,615c1.59,5.89.07,11-4.06,15.36-3.56,3.76-5.88,8.83-11.18,10.79-1.58.57-3.29-.16-4.86.49-3.47-.51-6.92-.08-10.37.18-2.25.6-4.61-.22-6.86.48l-3.73.18c-2.67.64-5.44-.26-8.1.5-2.81-.53-4.15.52-5.2,3.36-8.58,23.19-17.75,46.15-29.12,68.15a61.47,61.47,0,0,1-5.62,9.2c-5.69,7.43-5,5.9-12.46,1.9-6.62-3.56-12.8-7.89-20.3-9.55-8.49-1.87-11.17-5.5-11.75-14.43-.47-7.22,1.78-13.76,4.31-20.21,4.57-11.62,11.1-22.28,16.71-33.4a22.06,22.06,0,0,1,2.22-3.91c3.79-4.74,3.08-9.81,1.48-15.07a23.35,23.35,0,0,1-.45-4.53c-.46-1.15.06-2.43-.47-3.57a12.84,12.84,0,0,1,.84-8.59,8.5,8.5,0,0,1,5.55-5,79.25,79.25,0,0,0,8-3.27,3.7,3.7,0,0,0,2-2c5.57-12.12,10.74-24.37,13.6-37.47.67-3.09-.67-5.82-1.17-8.66-1.3-7.4-3-14.74-4.49-22.1A5,5,0,0,1,131.51,530.58Z"/><path d="M431.37,636.4c1-2.17.07-4.28-.63-6.18-1.12-3.07-3.9-3.26-8.58-1-.65,1-1.77,1.29-2.72,1.83l0,0a9.83,9.83,0,0,1-4.6,4.69h0c-.67.89-.82,2.19-2.07,2.63-.62.17-.63.67-.64,1.18a5.43,5.43,0,0,1-1.85,2.82l-.72,1.36c-.81,2.35-1.47,4.78-3.4,6.55-4.19,9.14-6.59,18.89-9.86,28.35-4.49,13-7.88,26.42-13.91,38.87a36.8,36.8,0,0,1-4.32,6.95c-3.5,4.4-7.65,5.73-12.88,3.26-11.14-5.28-21-12-28-22.54-1.75-2.66-1.48-5.64-.95-8.2,1-4.81,2.08-9.71,4.47-14.13a13.62,13.62,0,0,1,1.17-2.75,39.46,39.46,0,0,1,3.46-8.52,8.71,8.71,0,0,1,1.17-2.73c.49-1.08,1-2.16,1.48-3.23a8.53,8.53,0,0,1,1.17-2.72c.71-1.52,1.43-3,2.14-4.55,0-1.62,1.14-2.74,1.83-4.05.77-2.28,2.49-4.14,2.89-6.58-.24-1.14.77-1.77,1.09-2.68a157.05,157.05,0,0,0,7.52-15.84c-.24-1.14.76-1.77,1.09-2.68,3.78-5.42,4.27-12,6.15-18,3-9.6,5.61-19.33,10-28.4,1.89-3.89,4.08-7.89,9.61-7.11,1.07.66,2.35,0,3.43.53a75.1,75.1,0,0,1,13.16,5.37c4.55,2.59,8.61,5.7,10.9,10.54.92,1.94,2,1.37,3.3.81,7.18-3.1,13.88-7.18,21.26-9.89,9.7-3.57,16.15.57,21.22,6.29a63.57,63.57,0,0,1,15,30c.55,1.58-.17,3.28.48,4.85v2.15a13.71,13.71,0,0,0-.11,5.34,2,2,0,0,1-.42,1.53c-.9,4.32-1.68,8.68-2.73,13a346.44,346.44,0,0,1-17.18,52.19c-3.79,9-6.52,18.31-10.46,27.22-2.83,6.43-8.24,8.82-14.21,10.76a32.85,32.85,0,0,1-3.82.82c-1.83.59-3.77-.17-5.58.49-1-.18-2.11.2-3-.51a3.39,3.39,0,0,1-3.27-1.48c-6.47-4-11.76-9.4-17.08-14.73a8.62,8.62,0,0,1-2.13-9.21c1.85-6.13,5-11.71,7.21-17.67-.28-.81.22-1.37.63-2a138.08,138.08,0,0,0,6.77-13.21c-.22-1.7,1.16-2.67,1.83-4l5.45-11.24c-.17-1.15.8-1.78,1.22-2.66l.82-2c-.27-1.15.78-1.76,1.1-2.67l3.6-8.54a8.65,8.65,0,0,1,1.88-6v0C431.13,638.22,430.65,637.19,431.37,636.4Z"/><path d="M343.32,591.59c2.64,3.06,5.42,6,9.15,7.72,1.59.73,2,2.17,2.91,3.37a16.59,16.59,0,0,1,0,5.92c-3,7.09-6.87,13.77-9.43,21a9.37,9.37,0,0,1-1.23,2.78,2,2,0,0,0-.76,1.85c-.38,1-.51,2-1.35,2.76-1.48,3.21-3.22,6.32-3.93,9.84a13.61,13.61,0,0,1-1.19,2.74.56.56,0,0,0-.15.55,7.36,7.36,0,0,1-1.18,2.76.48.48,0,0,0-.15.53,7.51,7.51,0,0,1-1.15,2.77,345,345,0,0,0-12,33.87,382.8,382.8,0,0,0-9.27,37.46c-.61,3.05-1.69,5.84-4.64,7.46a12,12,0,0,1-5.27,0c-5.67-1-10.94-3.22-16.24-5.38-4.8-2-9.6-3.77-13.37-7.58-2-2-2.35-4.7-3.42-7.07s-1.89-3.31-4.5-1.43c-5.45,3.91-11.23,7.36-16.76,11.17-2.86,2-6.09,2.73-9.29,3.69-1.15.49-2.44-.05-3.59.48-10.79.73-16.65-6-21.29-14.3a55,55,0,0,1-7-21.36c-.49-1.38.12-2.88-.47-4.25v-2.85c.66-1.31-.05-2.78.48-4.1.92-9,4.17-17.41,6.95-25.89,2.86-8.73,6.41-17.24,9.79-25.79,3.75-9.48,7.16-19.14,11.65-28.25,3.92-8,6.39-16.61,11.59-24a10.83,10.83,0,0,1,9.36-4c7.46,1.14,12.93,6,18.7,10.16,4.52,3.27,8.86,6.9,11,12.38a6,6,0,0,1,0,3.27c-5,16.77-13.45,32.06-20.25,48.07a177.31,177.31,0,0,0-6.86,19.1,12.33,12.33,0,0,0-.16,2.93,9,9,0,0,0,0,5.34c2.19,3.07,5.25,2.56,7.87,1.26,7.05-3.5,12.36-8.29,14.84-16.49,4.23-14,9.85-27.57,15.55-41.08,4.89-11.6,10.45-22.86,16-34.12,1.37-2.77,3.26-5.11,6.63-5.61,1.37-.52,2.87.12,4.24-.48,5.88.25,9.38,4.47,13.33,8A7.65,7.65,0,0,1,343.32,591.59Z"/><path d="M787.55,729.11l-1.34-.69c-.8.24-1.37-.23-2-.64l-2-.86c-.94,0-1.46-.67-2-1.31-.33-.91-1.39-.7-1.94-1.27s-1.56-.62-2-1.38l-1.28-1.27a8.73,8.73,0,0,1-5.34-5.34c-.41-.43-.81-.86-1.21-1.3a9.7,9.7,0,0,1-3.38-4.75q-3.37-7.2-6.74-14.38c-1.62-2.64-1.73-5.64-2-8.58.12-1.11.63-2.21,0-3.32a2,2,0,0,1-.38-1.68,75.14,75.14,0,0,0,0-10.61,2.8,2.8,0,0,1,.47-2.26.39.39,0,0,0,.08-.53c.64-1.07,0-2.33.51-3.42a79.3,79.3,0,0,1,8.36-26c2.07-4.11,4.24-8.17,6.37-12.25.37-.77.57-1.64,1.38-2.11,1.35-1,1.65-2.64,2.57-3.89.44-.71.57-1.64,1.44-2Q783,612,788.9,604.72c.51-.65.58-1.63,1.48-2l7.15-7.21c.41-.83,1.35-.94,2-1.43l2.61-2.57c.45-.79,1.36-.92,2-1.4,1-1,2.64-1.14,3.27-2.59.47-.76,1.36-.9,2-1.38,1.52.09,2.08-1.44,3.26-1.93.49-.75,1.37-.91,2-1.37,5.56-1.94,10.81-4.75,16.71-5.66,2.14-.33,4.27-.73,6.4-1.1a53.9,53.9,0,0,1,10.55,0c5.34,1.07,10.26,3.33,15.21,5.49,1-.17,1.5.5,2,1.16a62.49,62.49,0,0,1,10.53,8.8c.87.37.88,1.32,1.34,2a72.65,72.65,0,0,1,4.7,13.11,1.92,1.92,0,0,1,.48,1.43,7.84,7.84,0,0,0,.1,4.05c0,2.09,0,4.18,0,6.27-.64,1.08,0,2.35-.52,3.45a103.71,103.71,0,0,1-4.8,12.37c-.64,1.5-.92,3.24-2.64,4l-1.29,1.38a3.5,3.5,0,0,1-2.86,3.29c-2.71,1.56-5.18,3.59-8.38,4.18a18.37,18.37,0,0,1-5.92,0,2.43,2.43,0,0,0-2-.05c-.83.28-1.39-.22-2-.65a34.88,34.88,0,0,1-7.26-2.78c-.94.14-1.46-.5-2-1.1-.51-.29-1.24-.14-1.54-.82-3.45-1.76-4.11-4.76-1.89-8.58a4.52,4.52,0,0,1,.88-2.63c-.08-.77-.1-1.53.66-2,.94-2.79,2.24-5.5,1.77-8.58-2.57-3.51-5.31-2-8-.22-1,.66-2.21.87-3.24,1.48a7.52,7.52,0,0,0-2.56,2.61c-.73,1.26-.89,3-2.71,3.35a3.21,3.21,0,0,0-1.27,1.94c-.57.94-.76,2.14-1.85,2.73l-.31.57a3.61,3.61,0,0,1-2,3.31l-.41.78c-.86,1.53-.61,3.67-2.53,4.62-.46.53-1,1.05-.83,1.85a16.45,16.45,0,0,1-4,8,9.86,9.86,0,0,0-2,4.63c.21,1.15-.8,1.76-1.16,2.66l-.2.63c.27,1.15-.78,1.76-1.1,2.67-1.55,3.34-2.84,6.74-2.8,10.5-1.38,3.44.91,6.39,1.27,9.6a.34.34,0,0,0,.26.42c1.19,1,2.91,1.31,3.75,2.78.65,1,1.66.41,2.5.6a15.49,15.49,0,0,0,6.36,0c3.64-.77,6.7-2.74,9.73-4.77a5.58,5.58,0,0,1,3.57-1.8c4.85-3.35,9.87-5.34,15.6-2.09,1.06.46,2.28.73,2.63,2.08l2.63,3.31a1.11,1.11,0,0,1,.57,1.28c1,3.15.71,6.4.74,9.62-.56,1.12,0,2.4-.47,3.53-1.41,13.55-11.65,19.68-21.86,25.66a79.65,79.65,0,0,1-18.7,7.9c-.67,1-1.63.91-2.62.78l-1.3.13a3.13,3.13,0,0,1-2.33.41c-3.62-.46-7.27.21-10.88-.37-2.77.22-5.26-1.24-8-1.31A2.35,2.35,0,0,1,787.55,729.11Z"/><path d="M917.19,573.56c1.12-2.65,2.25-5.3,3.37-7.94-.32-.82.21-1.38.6-2a5.53,5.53,0,0,0,1.37-2.66c-.29-.81.21-1.38.62-2,3.76-6.13,6.17-13,10.69-18.72a6.37,6.37,0,0,1,2.62-3.11c4.44-4,9-1.59,13.6-.33,1.65.45,3,1.81,4.84,1.7,1.41.55,3,.68,4.06,2,5.14,2.78,10.5,5.13,15,9.06,2.26,2,3.35,3.86,2.42,7.08-2,6.95-5.53,13.13-9.1,19.31-.53.92-1.4,1.65-1.33,2.92,3.7,0,7.47-.75,10.74,1.85,5.56,4.42,8.23,10.26,8.8,17.18a5.76,5.76,0,0,1-1.29,3.64q-6.13,9.06-12.28,18.11a11.2,11.2,0,0,1-1.65,1.57c-1.78.59-3.68-.22-5.45.49l-3.16.17c-1.76.59-3.66-.24-5.41.5l-3.19.16c-1.6.54-3.31-.15-4.9.47-2.23.58-2.67,2.72-3.54,4.33-7.15,13.21-11.89,27.32-15.35,41.88a34.76,34.76,0,0,0-1.39,9.29c-.69,1.3,0,2.78-.51,4.09-1.32,8.48,1.73,15.74,6.25,22.61,1.31,2,2.22,4.26,3.7,6.1s.9,3.6-.38,4.85c-7.37,7.21-16,12.22-26.23,14.19a1.62,1.62,0,0,1-2,0,36.57,36.57,0,0,1-11.18-4.09c-.67-.47-1.56-.62-2-1.37l-5-4.65a3.27,3.27,0,0,1-2.21-1.39L886.35,717a4.54,4.54,0,0,1-2.74-3.28l-5.24-6.63c-.83-.42-1-1.35-1.42-2-.77-2.39-2-4.65-2.15-7.21a32.13,32.13,0,0,1,0-7.9c1.55-15.23,7-29.4,11.84-43.75a205.25,205.25,0,0,1,8.72-21.76c-.25-.81.23-1.38.64-2l.76-.9a7.15,7.15,0,0,0,.06-4.57l-.17-2.49c-.55-1.59.15-3.3-.48-4.88l-.18-3.06c-.55-1.59.15-3.3-.48-4.88.16-1.9-.38-3.86.51-5.7a1.73,1.73,0,0,1,.87-1.92c2.71-3.55,6.55-5.47,10.49-7.24a2.6,2.6,0,0,1,2.71-.52c2.31.22,3.15-1.39,3.8-3.14,1-2.54,1.83-5.11,2.74-7.66C916.2,574.71,916.82,574.17,917.19,573.56Z"/><path d="M733.25,441.85l-10.57.19c-1.29.71-2.31.08-3.31-.66-1.8-.33-3.36-1.54-5.27-1.51a7.29,7.29,0,0,1-6-3.16c-1.41-1.2-3.21-1.91-4.31-3.48-2.18-.5-3.4-2-4.27-4l-2.06-3.22A5.67,5.67,0,0,1,695,421.4a38,38,0,0,1,0-19.79A5.61,5.61,0,0,1,697.5,397c3.27-4.53,7-8.56,11.94-11.34a3.69,3.69,0,0,1,3.34-1.82l8.59-2.17c1.12-.5,2.4.1,3.5-.49h6.21c1.1.59,2.38,0,3.5.49l1.25.35a2.59,2.59,0,0,1,3.4,1l4,1.34c1.52-.38,2.47.43,3.25,1.58,7,4.75,12.69,10.62,15,19.11,1,.19,1,1,1.07,1.7-.13,1.22-.83,2.41-.14,3.67,0,.94,0,1.88,0,2.82-.55,1.15,0,2.45-.5,3.6-3.23,12-11.17,19.37-22.6,23.48-.9.33-2-.11-2.72.82C735.67,442.37,734.45,442.09,733.25,441.85Z"/><path d="M865,449.13a30.84,30.84,0,0,0,6-3.15,5,5,0,0,1,5.27-1.34,21.81,21.81,0,0,0,6-.82,4.52,4.52,0,0,1,5.29,0l5.87,1.08c4.5-.35,8.09,1.58,11.27,4.51,3,2,5.21,4.9,8,7.16a3.07,3.07,0,0,1,2.12,3.22,38.38,38.38,0,0,1,3.59,9.36c.88.35,1,1.1,1,1.91a9.09,9.09,0,0,0,0,5.58,3,3,0,0,1-1.28,3c-3.32,13-12.44,19.92-24.67,23.61-.84,1.29-2.06,1-3.26.78l-10.57.19c-1.29.7-2.31.07-3.31-.66l-6.59-2.17a3.71,3.71,0,0,1-3.34-1.82c-3.6-1.8-6.23-4.8-9.18-7.4-1.53-.63-2-2.07-2.69-3.39-.87-3.8-3.66-7-3.46-11.15a26.6,26.6,0,0,1,0-7.24c.5-1.28-.23-2.78.7-4-.73-1.35-.12-2.36.82-3.28,2.43-4.45,5.79-8.18,9.22-11.86C862.44,450,863.35,449,865,449.13Z"/><path d="M843.25,445.22c-.39,1.08-1,2.11-.73,3.33a2.14,2.14,0,0,1-1.24,2.66c-2.12,5.57-6.26,9.49-10.73,13.14-.55,1.23-1.74,1.53-2.83,2-4.06,1.58-7.83,4-12.38,4.15-1.81.59-3.73-.19-5.53.49h-.18c-1.79-.68-3.71.09-5.51-.48-3.23,0-6.15-1.4-9.22-2.13a6.73,6.73,0,0,0-1.17-.4c-.75-.37-1.53-.67-2.31-1-.57-.21-.83-.75-1.22-1.16L787,463.73c-2.41-1.15-4.5-2.61-5.34-5.34l-1-1.34a4.2,4.2,0,0,1-2.41-3.86c-.32-.91-.63-1.83-.95-2.75-2-1.56-2.25-3.58-1.64-5.85.63-3.58-.37-7.22.8-10.84.71-2.2,1.94-4.16,2.56-6.37.06-2.45,1.5-4,3.42-5.24l5.21-4.6a10.39,10.39,0,0,1,6.62-4l11.89-2.8c2.67-1.34,5.31-1.5,7.88.27.33.61.86.46,1.38.36a2.17,2.17,0,0,1,3.31.66,35.82,35.82,0,0,1,13.21,6.14c1.91-.09,2.64,1.26,3.29,2.7l.66.65A13.32,13.32,0,0,1,841.94,432l1.33,4.66A35.53,35.53,0,0,1,843.25,445.22Z"/><path d="M927.11,504.77c.64-1.91.09-3.85.17-5.77.62-1.1,0-2.37.51-3.47.05-.88.11-1.76.17-2.64a3.83,3.83,0,0,1,1.32-3.31c.92-.34,1-1.23,1.33-2,0-2.89,2.07-4.35,4-5.93l1.92-1.93c.6-1.54,2.07-2,3.35-2.71a71.6,71.6,0,0,1,12.52-5.25,2.4,2.4,0,0,1,3.29-.18l2.64-.64c2.22-1.39,4.42-1.12,6.62.05a1.92,1.92,0,0,0,2,.59,2.16,2.16,0,0,1,3.31.66,37,37,0,0,1,13.21,6.14c1.91-.09,2.63,1.26,3.29,2.7l.66.65c1.94.25,1.89,2.1,2.65,3.3l.41.65c2.12,1.65,3.44,3.67,3.06,6.5l.9,2.76c.91.39,1,1.18,1,2-.93,2.75,0,5.64-.62,8.42-.1.42-.2.85-.29,1.27a2.67,2.67,0,0,1-1,3.38c-5,11.86-14.27,18.23-26.61,20.62-1.38.51-2.89-.11-4.25.48h-2.73a6.25,6.25,0,0,0-4.26.22c-1.89,0-3.75-.06-5.29-1.37-1.74-.75-3.36-1.8-5.31-2-1.58.12-2.47-.89-3.3-2l-3.23-2.09c-.22-.18-.44-.34-.67-.5a12.56,12.56,0,0,1-3.59-3,17.07,17.07,0,0,1-1.07-1.85l0,0a6.4,6.4,0,0,1-3.47-5.24c-.69-1.75-.6-3.8-2-5.3C927.05,507.09,926.4,506.07,927.11,504.77Z"/><path d="M829.25,537.92,826.54,539c-1.43,1.55-3.33,1.59-5.23,1.65a7.72,7.72,0,0,0-4.91-.22h-.77a8.19,8.19,0,0,0-4.85.15,2.69,2.69,0,0,1-2-.77c-5-.66-9.37-3.1-13.81-5.3-1.29-.69-2.74-1.17-3.37-2.69L789,529.2c-1.56-.64-2.12-2.05-2.68-3.47a.36.36,0,0,0-.08-.46c-3.81-3.25-4.46-7.71-4.7-12.33.92-2,0-4.15.63-6.16.56-1.28-.27-2.79.7-4-.75-1.34-.13-2.34.8-3.27l4.59-7.23a8.72,8.72,0,0,0,.58-1.19,20.76,20.76,0,0,1,3.45-3.37,20.07,20.07,0,0,1,1.68-1.37,22.33,22.33,0,0,0,3-1.66,2.25,2.25,0,0,1,1.23-.35c.62-1,2.23-.06,2.69-1.37.69-1.48,2.17-1,3.31-1.32l1.91-.14a2.79,2.79,0,0,1,2.06-1.27c1.12-.28,2.2.91,3.33.09a.45.45,0,0,0,.57-.09,4.46,4.46,0,0,1,1-.57c2.06.31,4.12-.27,6.18-.06.51.22,1.14.29,1.37.93,1.21.87,2.64.19,3.92.53l.42-.08a7.43,7.43,0,0,1,4.16.89c.38.24.51.69.84,1l2.64,1.31a2.84,2.84,0,0,1,3.24,1.63,53.69,53.69,0,0,1,9.31,9.14,3.52,3.52,0,0,1,2.12,3.89l2.25,7.36c2,2.3,1.6,4.72.36,7.19-1.41,4.86-2.62,9.8-6.07,13.76-.93,1.07-1.77,2.21-2.65,3.32A17.57,17.57,0,0,1,829.25,537.92Z"/><path d="M693.62,478.76v-.84c.61-1.36,0-2.86.49-4.22.6-4,2.33-7.55,4.14-11.09.6-1.38,1.13-2.81,2.69-3.44l1.92-1.93c4.27-4.66,9.4-7.64,15.85-8,1.35-.06,2.79.3,4-.72a2.78,2.78,0,0,1,2.15-.69,9.44,9.44,0,0,0,5.64,0,2.62,2.62,0,0,1,2.14.74c1.11,1.13,2.65.34,3.9.87,4-.5,7.11,1.36,10,3.87a78.43,78.43,0,0,1,8.6,7.26,5.74,5.74,0,0,1,3.13,4.62l2.33,5.85c1.05,1.18,1.7,2.43.66,4,.16,1.68.33,3.36.49,5.05-.57,1.12,0,2.4-.49,3.53a33.6,33.6,0,0,1-10.06,16.47,7.12,7.12,0,0,1-5.37,3.83l-3.21,1.6a5.26,5.26,0,0,1-5.3,2c-1.63-.3-3.08.59-4.65.72a48.79,48.79,0,0,1-9.89,0l-2-.19c-1.28,1-2.29.16-3.33-.47l-1.32-.67c-1.34.69-2.36.1-3.28-.85-.64-1.47-2.29-1.14-3.35-1.86-2.41-.13-4-1.55-5.26-3.43a45.74,45.74,0,0,1-9.35-13.15c-.75-1-1.42-2-.64-3.3,0-.45,0-.9-.08-1.35C693.58,481.58,694.24,480.09,693.62,478.76Z"/><path d="M678.22,440.21c.07.35.15.71.22,1.06,1.84,1.49,1.94,3.57,1.94,5.69-.92,2.22,0,4.61-.61,6.86a9.46,9.46,0,0,0-.89,3.95,2.23,2.23,0,0,1-1.1,2.7l-1.62,3.87a20,20,0,0,1-13.72,12.08l-4.05,1.68c-.79,1.25-1.95,1.31-3.23,1h-2a25.52,25.52,0,0,1-7.25,0c-2.77.18-5.26-1.11-7.93-1.5a3.87,3.87,0,0,1-1.31-.12,11.38,11.38,0,0,1-3.92-2c-.31-.32-.44-.76-.76-1.08l-1.29-.77a2.94,2.94,0,0,1-2.63-2l-1.91-1.92a6.51,6.51,0,0,1-1.1-.6,7.16,7.16,0,0,1-1.14-1.74,5.72,5.72,0,0,1-.45-1.15,30.06,30.06,0,0,1-4.07-10.35,1.84,1.84,0,0,1-.53-1.44,7.55,7.55,0,0,0,0-4.11v-.17c.66-1.57-.08-3.28.49-4.85.37-3.27,1.93-6.14,3-9.17-.17-1,.45-1.56,1.18-2l5.87-6.56c.73-1.3,2.1-1.58,3.34-2.06,3.25-2,7-2.72,10.51-4a3.31,3.31,0,0,1,1.62-.61,35.28,35.28,0,0,0,8.59.11c2.09-.09,4.16-.11,5.68,1.7a54.27,54.27,0,0,1,8.57,4.17c1.91-.12,2.62,1.26,3.31,2.65l4.37,5.3C677.54,435.94,678,438,678.22,440.21Z"/><path d="M653.16,356.49a49.09,49.09,0,0,1,13.2,5.43c1.65.74,3.4,1.36,4,3.38l0,0a8.23,8.23,0,0,1,4.54,6c.76,2,1.52,3.91,2.29,5.87,1.86,1.62,1.49,4,2,6.05a4.91,4.91,0,0,0,0,3.78,2.85,2.85,0,0,1-.75,2.08c-1.31,4.44-2.46,9-5.44,12.67-3.72,4.62-8,8.6-13.76,10.58a4.44,4.44,0,0,1-3.41,1.84c-1.13.29-2.26-.73-3.4,0l-.26-.07-.21.16a2.39,2.39,0,0,1-2.08.56c-1.48-.71-2.91.12-4.37.14a2.8,2.8,0,0,1-1.49-.73,36.26,36.26,0,0,1-7.95-1.9c-2,.42-3.37-.68-4.56-2.1-.32-1-1.45-.76-2-1.36a2.55,2.55,0,0,1-2-1.38q-2.65-3-5.29-6a1.94,1.94,0,0,1-1.16-1.95,30.8,30.8,0,0,1-3.38-18c.26-2.89,1.68-5.44,1.87-8.29.22-2.15,1.83-3.35,3.2-4.72L624,367c2.08-4.14,5.74-6.26,9.92-7.71h0a10.48,10.48,0,0,1,7.32-2.54l1.31-.2c1.37-.52,2.88.12,4.24-.49H649C650.31,356.63,651.8,356,653.16,356.49Z"/><path d="M599,422.09l1.6,3.4c1.37,1.24,1.58,2.86,1.53,4.57-.63,2.6.33,5.31-.48,7.9a3.28,3.28,0,0,1,.44.85,2.2,2.2,0,0,1-1.1,2.46l-.66,2c.58,2.3-.58,3.84-2.26,5.16l0,0c-.6,1.31-.67,3-2.56,3.37L591,455.9c-.83,1.22-1.67,2.44-3.42,2.3l-3.86,1.69c-.33.3-.47.76-.86,1a15.81,15.81,0,0,1-4.25,1.23,1.49,1.49,0,0,1-.85-.23c-3.73-.7-7.52.21-11.3-.7a32.69,32.69,0,0,1-13.08-6.71,3.61,3.61,0,0,1-2.66-2.27c0-.49-.11-.92-.67-1a8.21,8.21,0,0,1-1.1-.66,5.85,5.85,0,0,1-1.13-1.83.69.69,0,0,1,.13-.78l-2.07-4a1.66,1.66,0,0,1-.65-2c-.2-1.32-.41-2.64-.61-4a1.69,1.69,0,0,1-.46-1.57c.49-1.65-.14-3.38.4-5a4.24,4.24,0,0,0,0-2.68,2.65,2.65,0,0,1,.71-2.63,2.9,2.9,0,0,0,.09-.59c.36-.49.06-1.11.31-1.63a9.37,9.37,0,0,1,2.22-3.07l4.77-6.49a1.87,1.87,0,0,1,2-1.38l6.67-4c.65-.95,1.45-1.42,2.57-.73,1.69-.74,3.68-.26,5.3-1.31a2.58,2.58,0,0,1,1.63-.62c2,1,4.32-.7,6.31.61a1.88,1.88,0,0,0,2,.59c1.11-.72,2-.34,2.65.66l4.59,1.57a1.77,1.77,0,0,1,2,1.12c3.31,2,5.7,5,8.54,7.48A3.37,3.37,0,0,1,599,422.09Z"/><path d="M485.84,414.21l2.56-2.57a2.38,2.38,0,0,1,2-1.38,52.5,52.5,0,0,1,10.56-4,2.7,2.7,0,0,1,2.15-.52,10.18,10.18,0,0,0,5.08-.24,1.89,1.89,0,0,1,1.94,1,31.32,31.32,0,0,1,11.32,5.09c2.49.15,3.49,1.8,4,4a28.09,28.09,0,0,1,4.11,7.86,2.23,2.23,0,0,1,1.11,2.46,3.46,3.46,0,0,1-.45.85c.68,3.37.08,6.66-.66,9.94a2.53,2.53,0,0,1-1.33,3.3,28.2,28.2,0,0,1-6.09,7.85c-1.37,2.7-3.71,3.85-6.59,4.14-2.21.61-4.28,1.72-6.62,1.91a3.58,3.58,0,0,1-2.45.83c-.52,0-1,0-1.56,0a15.42,15.42,0,0,1-3-.16c-.5-.05-1-.06-1.5-.1a5.25,5.25,0,0,1-2.7-1.16l-4.65-2a.82.82,0,0,1-.76.07,13.62,13.62,0,0,1-1.75-1,3.75,3.75,0,0,1-.64-.49c-.59-.75-1.53-1.07-2.18-1.74a6.51,6.51,0,0,1-.56-1.08A69.43,69.43,0,0,1,481,437.3a2.65,2.65,0,0,1-.71-2.63l0-2a4.08,4.08,0,0,1,0-5.27l0-2c-.3-1,.32-1.78.7-2.62a2.43,2.43,0,0,0,.1-.6c.36-1.85.78-3.66,2.61-4.7l.75-1.29A2.48,2.48,0,0,1,485.84,414.21Z"/><path d="M507.53,345.24l1.91.41a32.69,32.69,0,0,1,10.65,5.08c2.59.07,3.32,2,4,4l2,2.68c1.72,1.58,2.68,3.43,2.14,5.84l.66,2c.53,2.25,0,4.54.32,6.8a2.07,2.07,0,0,1-1,2.45c-2.16,10.19-12.32,17.89-22.5,18.44a55.37,55.37,0,0,1-10-.62c-1.16-.37-2.56-.12-3.36-1.37l-4-2.64a2.58,2.58,0,0,1-2-1.37L484.52,385a2.51,2.51,0,0,1-1.39-2,27.26,27.26,0,0,1-4-9.23,2.13,2.13,0,0,1-.6-2.16c.56-1.89-.14-3.87.42-5.76-.24-3.46,2-6.11,2.93-9.21a2.21,2.21,0,0,1,1.3-2l6.5-5.93c.58-1.08,1.72-1.07,2.69-1.37l7.89-2.13A27.5,27.5,0,0,1,507.53,345.24Z"/><path d="M446.63,415.36a23.35,23.35,0,0,1,17.18,11.47,1.08,1.08,0,0,1,.56,1.26c.43,1.78.59,3.63,1.53,5.25.93,1.77,1.32,3.53,0,5.29-1.52,5.58-4,10.52-9,13.89-12.32,8.32-29,3.3-33.55-11.09-3.41-10.76,4.15-23.3,14.86-25.26,1.29-.24,2.57-.54,3.85-.81A11.14,11.14,0,0,1,446.63,415.36Z"/><path d="M461.67,373.21c.32,1.09.65,2.17,1,3.26.53,2.24,0,4.54.33,6.79a2.05,2.05,0,0,1-1,2.45c-4,11.79-14.16,16.39-24.37,15-8.62-1.2-15.22-6.29-17.53-16.32a29.43,29.43,0,0,1,0-7.9c1.44-8.5,6.91-13.3,14.7-16,3.19-1.78,6.57-.77,9.89-.69l7.07,2.2a11.64,11.64,0,0,1,8.11,7.35.44.44,0,0,0,.21.49C461.1,370.71,462,371.67,461.67,373.21Z"/><path d="M385.15,467.43v-.06c.54-1.15,0-2.43.48-3.59,1.84-8.06,6.6-13.85,18-15.35a5.87,5.87,0,0,1,3.27,0c9.43,1.49,15.51,6.74,18,16a17.31,17.31,0,0,1,0,5.92c-1.83,6.61-5.54,11.67-12,14.47a32,32,0,0,1-6,1.53,5.69,5.69,0,0,1-3.27,0c-8.08-.61-13.82-4.49-17.13-12-.5-1.13-.4-2.3-.88-3.36S385.69,468.57,385.15,467.43Z"/><path d="M402.28,388.91c5.4,1.48,10.27,3.69,13.55,8.62,1.53,2.31,2.1,4.91,3.12,7.38a14.1,14.1,0,0,1,0,5.26,21.29,21.29,0,0,1-9.11,13.39c-8.41,5.76-22.46,3.64-27.9-6.14a14.6,14.6,0,0,1-2.29-5.93c-.49-1.12.12-2.38-.48-3.48,0-.29,0-.58,0-.87.56-1.13,0-2.42.5-3.55,2-9,8.23-13,16.66-14.69A17.82,17.82,0,0,1,402.28,388.91Z"/><path d="M368.52,419.33c5.81,1.41,10.72,4,13.35,9.79l1.32,2.91a21,21,0,0,1,0,6.58c-2.86,10-11.3,13.69-18.65,13.29a16.6,16.6,0,0,1-15.35-14.61,5.72,5.72,0,0,1,0-3.28c.73-7.08,5.67-13.13,14.69-14.67A10.65,10.65,0,0,1,368.52,419.33Z"/><path d="M338.1,479.07c-10.47-2.2-14.36-10.19-12.22-18.94,1.89-7.71,10-12.43,19.15-10.39,10.6,2.36,15.68,14.71,8.6,23.67a15.62,15.62,0,0,1-9.6,5.68A17.12,17.12,0,0,1,338.1,479.07Z"/><path d="M372,501.46A13,13,0,0,1,358.63,488c.28-7.69,6.11-13.17,14.07-13,7.41.17,13.85,6.5,13.71,13.48C386.26,495.72,379.74,501.59,372,501.46Z"/><path d="M350,498c3.71,1.37,6.64,3.38,8,7.44,1.8,5.22-2.13,11.88-8.95,13.06-4.93.85-8.72-1.35-11-5.58-3.08-5.77-.69-11.92,5.51-14.19.6-.22,1.19-.49,1.78-.73A10.93,10.93,0,0,1,350,498Z"/><path d="M319.57,498.9a10.14,10.14,0,0,1-8.08-8.7,5.61,5.61,0,0,1,0-3.27c.94-4.44,3.64-7.32,7.41-7.89,5.94-.91,10.18.67,12.53,4.68.49.83.93,1.69,1.4,2.54a9.93,9.93,0,0,1,.06,4.6,12,12,0,0,1-8.08,8.05A12.44,12.44,0,0,1,319.57,498.9Z"/><path d="M332.11,517.9c1.76,1,3.76,1.6,5.13,3.27,4.19,5.09,2.24,12.34-5.13,14.81a11,11,0,0,1-4.6,0c-4.25-.9-6.95-3.8-7.22-7.75-.37-5.56,1.57-8.32,7.22-10.3A9.93,9.93,0,0,1,332.11,517.9Z"/><path d="M300.29,505.44c1.26-4.43,4.6-6.14,8.8-6.25,4.89-.12,8.26,2.28,9.94,6.93a11.22,11.22,0,0,1,0,4.58c-2.22,4.75-5.74,7.17-11.18,6.64a8.72,8.72,0,0,1-7.58-6.64A12.6,12.6,0,0,1,300.29,505.44Z"/><path d="M283.46,539.83c-3.66,0-6.2-2.36-6.23-5.77,0-4.13,2.41-6.72,6.33-6.72,3.31,0,6.85,3.23,6.86,6.25C290.43,537,287.27,539.83,283.46,539.83Z"/><path d="M296.37,515.26a12,12,0,0,1,4.71,4.07,7.32,7.32,0,0,1,.06,3.94c-2.81,4.42-6.77,5.6-10.49,3.32-1.36-.83-1.73-2.08-2.29-3.32a5.6,5.6,0,0,1-.05-3.27c.23-3,2.34-4,4.78-4.74A5.33,5.33,0,0,1,296.37,515.26Z"/><path d="M310.3,541.25c-2.48-.64-3.48-2.3-3.33-4.78.14-2.13.55-4.22,2.83-5a5.2,5.2,0,0,1,5.91,1.54c.43.49.83,1,1.25,1.5a5,5,0,0,1,.05,3.28,7.88,7.88,0,0,1-3.44,3.46A5.87,5.87,0,0,1,310.3,541.25Z"/><path d="M269.92,543.22a3.43,3.43,0,0,1-3-3.81,3.91,3.91,0,0,1,4.17-3.6c2.39.05,4.05,1.07,4.67,3.23s-1.19,3.06-2.54,4.16A4.92,4.92,0,0,1,269.92,543.22Z"/><path d="M301.66,540.36c1.93,1.14,3.51,2.65,2.4,5a4.42,4.42,0,0,1-5.62,2.2,4,4,0,0,1-2.65-4.36,2.81,2.81,0,0,1,2.6-2.8A5.52,5.52,0,0,1,301.66,540.36Z"/><path d="M662.44,476.42a35.77,35.77,0,0,0,13.72-12.08c1.16.94,1.06,2,.34,3.16-2.73,4.41-7.1,6.89-11.27,9.6C664.15,477.79,663,478.26,662.44,476.42Z"/><path d="M718.71,449.24a46.59,46.59,0,0,0-15.85,8,3,3,0,0,1,1.24-2.78A41.07,41.07,0,0,1,715,448.21C716.2,447.7,718,447,718.71,449.24Z"/><path d="M676.58,661.42l8.84,8.75a2.25,2.25,0,0,1-2.74.14,23.42,23.42,0,0,1-6.43-6.39C675.68,663.08,675.34,662.11,676.58,661.42Z"/><path d="M829.25,537.92c4.47-1.69,8.13-4.64,11.87-7.47.32,1.89-.73,2.78-2,4.17-2.12,2.33-5.37,2.13-7.39,4.33A1.51,1.51,0,0,1,829.25,537.92Z"/><path d="M904.64,449.41c-3.68-1.7-7.29-3.56-11.27-4.51.76-2.67,2.84-1.95,4.15-1.11a25,25,0,0,0,5.29,2.39C904.57,446.8,904.92,447.83,904.64,449.41Z"/><path d="M634,359.24A51.08,51.08,0,0,0,624,367c-.64-2.47,0-4.26,2.65-5a2.39,2.39,0,0,0,1.41-1.17C629.57,358.67,631.51,357.9,634,359.24Z"/><path d="M841.94,432c-1.29-3.92-3.78-7.14-6.12-10.45,1.08-1.08,1.79-1,2.79.35,1.43,2,2.07,4.4,4,6.16C843.75,429.13,843.55,430.91,841.94,432Z"/><path d="M782.14,513.35a28.9,28.9,0,0,0,4.08,11.92c-1.38.1-2.37-.11-3-1.72a77.22,77.22,0,0,1-2.92-9.35c-.23-1-.14-2,1.26-2.15C782.07,512.36,781.81,513,782.14,513.35Z"/><path d="M746.46,453.31c-3.3-1.32-6.47-3-10-3.87.71-2.63,2.45-1.58,3.83-.93s2.56,1.42,4.2,1.44C746.79,450,746.5,451.79,746.46,453.31Z"/><path d="M265.25,534.63c1.15,1.63,1,3.11-.73,4.17a2.23,2.23,0,0,1-3.16-.65c-1.33-1.57-1-2.72.62-3.74C263.09,534.23,264.21,533.86,265.25,534.63Z"/><path d="M459.82,369.35a33,33,0,0,0-8.11-7.35C455.75,360.94,460,364.76,459.82,369.35Z"/><path d="M294.39,547.78a2.66,2.66,0,0,1-2.56,2.47c-1.27,0-2.16-1.24-2-2.76a1.87,1.87,0,0,1,2.33-2C293.42,545.72,294.37,546.33,294.39,547.78Z"/><path d="M831.79,621.14a11.57,11.57,0,0,1,6.37-3.69c2.23-.56,4.14-.17,4.87,2.43-.41.08-1.14.33-1.2.22-1.77-3.41-3.74-1-5.41,0A7.1,7.1,0,0,1,831.79,621.14Z"/><path d="M521.57,603.61l-7.3,7.31c0-3.46,3.06-7.41,6.34-8C520.88,602.86,521.25,603.36,521.57,603.61Z"/><path d="M207.44,557c1.51-.93,3.19-.54,4.79-.54,7.52,0,15.05,0,22.57.07a2.66,2.66,0,0,1-2.14.54Z"/><path d="M813.27,650.92a51,51,0,0,1,4-8C818.53,647.46,817.61,649.29,813.27,650.92Z"/><path d="M814,411l-7.88-.27c.24-3.54,3.22-1.43,4.81-2.16S813.5,409.48,814,411Z"/><path d="M260,532.54c.12,2.12-1.21,2.39-2.34,2.51a2.14,2.14,0,0,1-2.23-1.94c-.26-1.4.72-1.88,2-1.9S259.86,531.31,260,532.54Z"/><path d="M839.72,633.11c-1,3.21-1.08,6.23,1.89,8.58-.63,0-1.4.35-1.86.09C837.21,640.36,837.23,634.59,839.72,633.11Z"/><path d="M993.53,492.19l-3.06-6.5c1.7-.35,2.94.08,3.62,1.86S995.44,490.85,993.53,492.19Z"/><path d="M674.83,371.24l-4.54-6C674.24,365.23,676.41,368.1,674.83,371.24Z"/><path d="M287.8,548c0,1.93-.86,2.37-2.12,2.42-1.64,0-1.7-1.11-1.71-2.21s.62-1.78,1.86-1.74S287.82,547.13,287.8,548Z"/><path d="M965,471l-6.62-.05c-.22-2.15,1.59-2.18,2.85-2.44C963.09,468.12,964.24,469.33,965,471Z"/><path d="M849.84,513.37l-.36-7.19c1.58.4,3.06,1.06,2.37,3C851.35,510.65,853.12,513.28,849.84,513.37Z"/><path d="M641.29,356.7,634,359.24c-.11-1.61.12-3,2.24-2.58a2.16,2.16,0,0,0,2.26-.72C639.64,354.72,640.63,355.41,641.29,356.7Z"/><path d="M678.44,383.08l-1.32-6c1.27,0,2.92.41,2.33,1.77-.82,1.91,3.58,4.1-.46,5.51C678.52,384.07,678.77,383.45,678.44,383.08Z"/><path d="M515.49,452c2.25-1.31,4.63-2.39,6.59-4.14.93,3.71-3.1,3.23-4.43,5.08C517.16,453.58,515.75,453.38,515.49,452Z"/><path d="M794.18,486.83l-1.55,1.4c-1,.51-2.06.94-3.09,0,1.43-1.19,3.19-1.86,4.41-3.44,1-1.3,2.64-2,4.22-.45l-.69.59A12.07,12.07,0,0,0,794.18,486.83Z"/><path d="M528.18,363.22,526,357.38c.09-.75.36-1.33,1.2-.77,2,1.34,1.19,4,2.44,5.74C529.89,362.63,528.85,363.16,528.18,363.22Z"/><path d="M758.19,465.19l-3.13-4.62c1.12-1.25,2.05-.93,2.93.3C759,462.28,759.91,463.66,758.19,465.19Z"/><path d="M781.62,458.39c1.74,1.82,4,3.13,5.34,5.34C783.12,464.27,781.62,462.77,781.62,458.39Z"/><path d="M679.77,446.58c-.44-1.77-.89-3.54-1.33-5.31,1,.11,2.57-.33,2.43,1.29s2.44,3.87-.54,5.33C679.84,447.58,680.1,447,679.77,446.58Z"/><path d="M714,672.52l6.7-2.32C718.71,673.66,716,674.6,714,672.52Z"/><path d="M745.75,503.89l5.37-3.83C750.92,503.75,748.66,505.36,745.75,503.89Z"/><path d="M543.37,359.28a24.72,24.72,0,0,1-2.17,7.24A5.3,5.3,0,0,1,543.37,359.28Z"/><path d="M821.29,539.94l5.25-1c.12,1.19,0,2.26-1.58,2.13s-3.65,2.23-5-.6C820.28,540,820.92,540.27,821.29,539.94Z"/><path d="M708.12,436.71l6,3.16C710.82,441.26,708.5,440,708.12,436.71Z"/><path d="M678.22,440.21c-1-1.82-1.89-3.64-2.84-5.45C679.24,434.77,679.83,435.89,678.22,440.21Z"/><path d="M598.07,448.43l2.26-5.16c1.67,1,1.42,2.61,1,4C600.87,448.91,599.35,448.53,598.07,448.43Z"/><path d="M950.39,530l5.32.68c.37.32,1,0,1.3.57A4.12,4.12,0,0,1,950.39,530Z"/><path d="M737.24,507.47c1.58-1.18,3.59-1.18,5.3-2,.13,1.43-.11,2.77-1.76,3C739.52,508.71,737.88,509.59,737.24,507.47Z"/><path d="M887.5,443.82h-5.29c-.17-2.11,1.51-2.29,2.81-2.26S887.76,441.9,887.5,443.82Z"/><path d="M695.66,691.34a21.27,21.27,0,0,1-11,0A20.65,20.65,0,0,1,695.66,691.34Z"/><path d="M934.61,481.66l-4,5.93C929.43,484.79,931.15,482.24,934.61,481.66Z"/><path d="M756.33,687.34a32.08,32.08,0,0,1,2,8.58C756.24,694,755.18,689.6,756.33,687.34Z"/><path d="M794.2,413.57l-6.62,4C788.13,414.75,791.68,412.62,794.2,413.57Z"/><path d="M252.89,529.87c-1.11-.11-1.26-1-1.35-1.85-.09-1,.05-2,1.42-2a1.62,1.62,0,0,1,1.75,1.51C254.9,529,253.78,529.3,252.89,529.87Z"/><path d="M769.71,716.35l5.34,5.34C771.42,721.51,769.89,720,769.71,716.35Z"/><path d="M847.23,498.82c-.71-1.3-1.41-2.6-2.12-3.89,1.13-1.18,2.19-1,2.84.4C848.51,496.55,849.33,498,847.23,498.82Z"/><path d="M704.17,500.72l5.26,3.43C706.05,505.28,704.45,504.23,704.17,500.72Z"/><path d="M782.37,422.14,779,427.38C777.88,424.21,779.1,422.35,782.37,422.14Z"/><path d="M693.57,674.87l9.23-.14c-.06,1.28-1.07,2.49-1.95,1.85C698.57,674.93,695.84,676,693.57,674.87Z"/><path d="M525.39,415.55c-1.33-1.32-2.65-2.65-4-4,1.24-1.36,2.27-.62,3.36.27A2.48,2.48,0,0,1,525.39,415.55Z"/><path d="M775.59,444.59c.55,2,1.09,3.9,1.64,5.85C774.32,449.9,773.55,447.16,775.59,444.59Z"/><path d="M659.13,422.64l-5.31-1.33a1,1,0,0,1-.64-.55C655.51,419,658.42,419.87,659.13,422.64Z"/><path d="M444.64,359.8c-3.31.06-6.64-.16-9.89.69C437.78,356.41,441.34,360,444.64,359.8Z"/><path d="M876.25,444.64A12.54,12.54,0,0,1,871,446C872.38,443,874.38,442.44,876.25,444.64Z"/><path d="M697.5,397c-.79,1.58-1.19,3.38-2.55,4.65C693.49,398.2,694,397.25,697.5,397Z"/><path d="M929.77,513.38l3.47,5.24C929.65,518,928.81,516.72,929.77,513.38Z"/><path d="M343.32,591.59a28.83,28.83,0,0,1-4.85-4.71C342.21,586.88,343.23,587.87,343.32,591.59Z"/><path d="M622.65,368.51c-.29,2.1-2.26,3.06-3.2,4.72C618.46,370,619,369.23,622.65,368.51Z"/><path d="M430.83,639.08a15.49,15.49,0,0,1-1.88,6C427.26,642.35,428.33,640.49,430.83,639.08Z"/><path d="M807.32,681.61a10.55,10.55,0,0,1-1.27-9.6c.28,2.13-.68,4.48,1.6,6.26C808.74,679.12,807.28,680.46,807.32,681.61Z"/><path d="M695,421.4c1.35,1.28,1.74,3.08,2.53,4.66C694,425.76,693.49,424.81,695,421.4Z"/><path d="M699.54,429.28a17.64,17.64,0,0,1,4.27,4C700,433.89,699,433,699.54,429.28Z"/><path d="M406.19,650.26a28.91,28.91,0,0,1,3.4-6.55C409.71,646.54,409.6,649.26,406.19,650.26Z"/><path d="M414.86,635.73a15.25,15.25,0,0,1,4.6-4.69C419.34,634,418.23,636,414.86,635.73Z"/><path d="M465.87,438.63l0-5.29C468.65,435.84,468.65,437.07,465.87,438.63Z"/><path d="M524.07,354.7l-4-4C523.16,349.54,524.06,350.44,524.07,354.7Z"/><path d="M205.3,512.77a84.34,84.34,0,0,1-13.48.48C196.27,512.1,200.8,512.94,205.3,512.77Z"/><path d="M672.3,672.75a19.92,19.92,0,0,1,1.29-7.52C674.52,667,673.74,671.56,672.3,672.75Z"/><path d="M914.74,459.79l-2.12-3.22c.92-1,2-1.24,2.55.15C915.54,457.64,917.09,459.1,914.74,459.79Z"/><path d="M933.22,518.6l1.36,1.16a5,5,0,0,0,3.69,3.53l.28.63C934.71,524.46,933.2,522.94,933.22,518.6Z"/><path d="M666.43,730.44H679A29.3,29.3,0,0,1,666.43,730.44Z"/><path d="M631.4,410.15l4.56,2.1c-.18,1.17-1.1,1.65-1.76.86C633.31,412.07,630.56,412.74,631.4,410.15Z"/><path d="M483.71,417.46c-.9,1.55-1.16,3.46-2.61,4.7C480,418.84,480.33,418.19,483.71,417.46Z"/><path d="M818.13,641.05l2.53-4.62C820.49,638.34,822.63,641.51,818.13,641.05Z"/><path d="M721.26,687.62c-2.6-.7-5.24-.14-7.86-.24.47-1,1.23-1.59,2.35-1.16a4.66,4.66,0,0,0,4-.19C721.34,685.25,721.23,686.65,721.26,687.62Z"/><path d="M551.31,349.36c-1.14,1.54-2.16,3.19-4,4Q546.86,348.93,551.31,349.36Z"/><path d="M614.23,522c-.79,2.18-1.53,4.39-3.37,6C611.36,525.65,611.22,522.94,614.23,522Z"/><path d="M655.82,413.51l3.31-1.24c-.73,2.81-2.59,3.49-5.29,1.92C654.34,413.51,655.3,414.14,655.82,413.51Z"/><path d="M587.53,458.2l3.42-2.3C590.81,459.59,590.45,459.84,587.53,458.2Z"/><path d="M461.67,373.21c-.55-1.12-1.09-2.25-1.64-3.37,1.4-.14,2.55.16,3,1.72C463.31,372.71,462.65,373.09,461.67,373.21Z"/><path d="M797.5,731.08l11.22,0c.07.52,0,.9-.65.55C804.56,731.32,801,732.32,797.5,731.08Z"/><path d="M756.33,671.46c0,3.74,0,7.48,0,11.22-.52.07-.9,0-.54-.64v-9.93C755.5,671.5,755.85,671.43,756.33,671.46Z"/><path d="M544.81,384.3a19.38,19.38,0,0,1,3.27,4.66C545.37,388.55,544.21,387.05,544.81,384.3Z"/><path d="M670.32,365.3l-4-3.38C668.84,361.69,670.89,362,670.32,365.3Z"/><path d="M480.33,427.39c0,1.76,0,3.52,0,5.27Q476.4,430,480.33,427.39Z"/><path d="M789.54,488.23h3.09a12.72,12.72,0,0,1-3.73,3.39,2.47,2.47,0,0,1,0-2.72Z"/><path d="M848.43,576.1H837.88A21.41,21.41,0,0,1,848.43,576.1Z"/><path d="M727.05,703.11l1.05-3.89a1,1,0,0,1,.57-.65C729.47,700.56,730.34,702.58,727.05,703.11Z"/><path d="M671,429.46l-3.31-2.65C670.79,425.51,671,425.66,671,429.46Z"/><path d="M990.06,485c-1.28-.78-1.82-2.16-2.65-3.3C990.14,480.66,990.14,480.66,990.06,485Z"/><path d="M587.71,582.81c-.53,2-.51,4.18-2.72,5.27C584.88,585.8,585.58,583.93,587.71,582.81Z"/><path d="M986.75,481.09l-3.29-2.7C986.57,477.11,986.75,477.26,986.75,481.09Z"/><path d="M811.33,684.81a5.57,5.57,0,0,1-3.75-2.78C809.53,682,811.66,681.76,811.33,684.81Z"/><path d="M761.18,475l-.66-4a2.55,2.55,0,0,1,2.42,2.16C763.12,474.38,762.26,474.88,761.18,475Z"/><path d="M829.92,482.85l-.74-.27c-1.14-1.77-3.13-1-4.67-1.54v0c.32-1.7,1.61-1.6,2.76-1.3C828.79,480.16,830.13,480.88,829.92,482.85Z"/><path d="M970.25,472.25l-3.31-.66c-.1-1.42.57-2,2-1.85C970.62,469.93,970.13,471.24,970.25,472.25Z"/><path d="M677.78,460.47c.58-.81.22-2,1.1-2.7,1.62.18,1.66,1.38,1.31,2.44C679.68,461.76,678.64,460.81,677.78,460.47Z"/><path d="M874.86,638.25a9.46,9.46,0,0,1,2.64-4,5.12,5.12,0,0,1-.88,4C876.11,638.89,875.49,639.21,874.86,638.25Z"/><path d="M686.27,670.91l4.88,3.1C688.71,674.25,686.76,673.72,686.27,670.91Z"/><path d="M595.55,451.77l2.56-3.37C598.29,452.32,598.13,452.52,595.55,451.77Z"/><path d="M501.59,453.83l3.31.12a1.29,1.29,0,0,1,0,1.87c-1.12-.16-2.38.45-3.31-.66A.9.9,0,0,1,501.59,453.83Z"/><path d="M883.61,713.75c1.63.5,2,2,2.74,3.28C884.29,716.89,882.14,716.84,883.61,713.75Z"/><path d="M835.8,485.79l-3.24-1.63c.23-1.35,1.18-1.38,2.14-1C835.94,483.59,835.89,484.71,835.8,485.79Z"/><path d="M649.34,610c-.39,2.22-2,3.63-3.45,5.15C645.27,612.24,647.92,611.52,649.34,610Z"/><path d="M602.13,430.06c-1.14-1.32-1.1-3-1.53-4.57C603.1,426.35,603.32,428,602.13,430.06Z"/><path d="M819.32,480.2h-6.6c.4-2.42,1.58-1.2,2.63-.57H816C818.35,477.92,818.87,478,819.32,480.2Z"/><path d="M733.25,441.85c.88-1.09,2.2-.4,3.26-.77,0,.95.21,2-1.21,2.13C734.24,443.32,733.37,443.16,733.25,441.85Z"/><path d="M765.12,710.3c1.26,1.49,3,2.67,3.38,4.75C766.16,714.33,764.77,712.93,765.12,710.3Z"/><path d="M835.16,420.9l-3.29-2.7C834.71,417.12,835,417.37,835.16,420.9Z"/><path d="M599,422.09l-2.15-3.83c.61-1.18,1.35-.37,2-.14.85,1.22,1.43,2.48.66,4Z"/><path d="M821.07,635.65l2-3.31C824.94,635,823.64,635.7,821.07,635.65Z"/><path d="M778.18,453.19c.9,1.23,2.06,2.28,2.41,3.86C778,456.87,776.76,455.86,778.18,453.19Z"/><path d="M918.06,479.64c.23-.89.45-1.78.67-2.67.33-.37.08-1,.55-1.3C921.41,477.66,921.2,478.34,918.06,479.64Z"/><path d="M890.13,504c.89-1.1,2.2-.4,3.26-.78,0,1,.21,2-1.21,2.14C891.13,505.49,890.25,505.33,890.13,504Z"/><path d="M722.7,508.19h9.89A18.45,18.45,0,0,1,722.7,508.19Z"/><path d="M746.45,385.88l-3.25-1.58c.21-1.34,1.15-1.39,2.11-1.05C746.56,383.68,746.53,384.8,746.45,385.88Z"/><path d="M550,390.87c1.9.63,2.95,2.42,4.61,3.36A4.35,4.35,0,0,1,550,390.87Z"/><path d="M833.49,678.84c-1.07.83-2.06,1.83-3.57,1.8C829.93,677.72,831.46,677.78,833.49,678.84Z"/><path d="M653.18,420.76l.64.55-9.23,0c0-1.12.6-1,1.3-.58Z"/><path d="M655.16,479.08a5,5,0,0,1,3.23-1c0,.85.27,1.88-.94,2.11C656.48,480.38,655.4,480.52,655.16,479.08Z"/><path d="M826.52,627.1a11.69,11.69,0,0,1,2.71-3.35C828.9,625.33,830.41,628.4,826.52,627.1Z"/><path d="M528.17,440c.45-1.1.89-2.2,1.33-3.3.75.91,1.58,1.86.88,3.12C529.8,440.82,529,440.41,528.17,440Z"/><path d="M282.51,547.68a1.7,1.7,0,0,1-1.63,1.4c-.91.07-1.12-.46-1-1.19.06-.55-.22-1.4.88-1.26A2,2,0,0,1,282.51,547.68Z"/><path d="M818.66,412.06l-3.31-.66c.13-1.09.63-1.91,1.82-1.76C818.56,409.8,818.67,410.94,818.66,412.06Z"/><path d="M684.29,691.3a7,7,0,0,1-4-1.12C682.33,687.85,683.27,689.73,684.29,691.3Z"/><path d="M547.84,420.77c.13,1.47-1.33,2.16-1.68,3.4-1.23.11-1.35-.48-.88-1.42C545.36,421.09,546.43,420.7,547.84,420.77Z"/><path d="M416.76,672.13a8.52,8.52,0,0,1-1.83,4C413.09,673.65,415.21,673,416.76,672.13Z"/><path d="M577.05,406.84l-6.6-.07c.11-.95.59-1,1.31-.56a8.3,8.3,0,0,0,3.15-.48C575.89,405.38,576.87,405.45,577.05,406.84Z"/><path d="M739.23,383l-3.4-1c.4-1,1-1.74,2.19-1.4S739.25,381.94,739.23,383Z"/><path d="M790.2,465.82l1.32.68a3.64,3.64,0,0,0,2.71,1.2l.67.66C791.49,469.54,790.58,469.05,790.2,465.82Z"/><path d="M993.53,510.06c.34-1.12.68-2.25,1-3.38,1,.42,1.7,1.06,1.34,2.2S994.53,510.08,993.53,510.06Z"/><path d="M804.17,481.65c-.85,1.06-2.2.91-3.31,1.32-.62-.43-1-1.14-.35-1.6C801.72,480.46,803,481.08,804.17,481.65Z"/><path d="M808.08,480.89l-2,.62c1.28-3.12,1.92-3.33,4-1.27C809.56,481,808.63,480.33,808.08,480.89Z"/><path d="M700.94,459.17a6.43,6.43,0,0,1-2.69,3.44C698.05,460.6,697.93,458.67,700.94,459.17Z"/><path d="M672.3,681.66a15.25,15.25,0,0,1,0-8.95Z"/><path d="M941.78,526a9,9,0,0,1,3.3,2C942.83,529.23,941.64,528.71,941.78,526Z"/><path d="M485.59,676.1c0,2.95.26,5.92-.48,8.83C485.27,682,484.43,679,485.59,676.1Z"/><path d="M841.28,451.21c.41-.89.83-1.77,1.24-2.66,1.05.57,1.66,1.35.93,2.53C842.84,452.07,842,451.63,841.28,451.21Z"/><path d="M632.68,474.93l4.59,2.15c-1.15,1.84-2.21.41-3.29-.09h-.66C632.61,476.45,631.94,475.91,632.68,474.93Z"/><path d="M939.88,477c-.6,1.54-2,2.06-3.35,2.71C936,476.83,937.88,476.84,939.88,477Z"/><path d="M628.07,471.59c.94.59,2.18.79,2.63,2a1.49,1.49,0,0,1-2.19.46A1.69,1.69,0,0,1,628.07,471.59Z"/><path d="M783.65,499.51c-.26,1.09-.53,2.18-.8,3.27-1.41-.18-1.32-1.22-1.19-2.2C781.81,499.37,782.8,499.52,783.65,499.51Z"/><path d="M955.69,471.59l-3.29.18c0-1.11.45-2,1.71-1.95C955.17,469.84,955.58,470.62,955.69,471.59Z"/><path d="M866.32,499.57a9.16,9.16,0,0,1,3.34,1.82C867.35,503,866.47,501.93,866.32,499.57Z"/><path d="M852.5,463.13c-.27,1.09-.55,2.18-.82,3.28-1.4-.2-1.31-1.24-1.18-2.21C850.66,463,851.65,463.14,852.5,463.13Z"/><path d="M927.11,504.77c-.05,1.16,1.41,2,.7,3.31-.85,0-1.77,0-1.87-1.16C925.86,506,925.76,505,927.11,504.77Z"/><path d="M719.37,441.38c1.29-.72,2.16.69,3.31.66-.19,1.34-1.19,1.25-2.13,1.18C719.38,443.13,719.4,442.23,719.37,441.38Z"/><path d="M876.25,503.56c1.29-.7,2.16.68,3.31.66-.19,1.34-1.18,1.24-2.13,1.17C876.26,505.3,876.28,504.4,876.25,503.56Z"/><path d="M870.71,642.92q1.44-1.63,2.86-3.29C874.81,642.63,873.19,643.15,870.71,642.92Z"/><path d="M712.78,383.8a8.94,8.94,0,0,1-3.34,1.82C709.59,383.26,710.47,382.22,712.78,383.8Z"/><path d="M843.25,445.22c0-2.85,0-5.71,0-8.56A13.83,13.83,0,0,1,843.25,445.22Z"/><path d="M808.73,539.8l2,.15c.37.32,1,0,1.3.57-.16,1.4-1.17,1.35-2.16,1.24C808.66,541.62,808.77,540.65,808.73,539.8Z"/><path d="M791.55,531.81c1.34.63,2.76,1.16,3.37,2.69C792.93,534.68,791.06,534.71,791.55,531.81Z"/><path d="M865,449.13l-3.27,2.14C861.51,448.58,862.54,447.78,865,449.13Z"/><path d="M712.78,506l3.28.85c-.21,1.39-1.25,1.28-2.22,1.15C712.63,507.85,712.8,506.86,712.78,506Z"/><path d="M678.33,389c0-.67.07-1.34.11-2,.33-.37.08-1,.55-1.3,1.4.14,1.38,1.14,1.28,2.14C680.14,389.07,679.19,389,678.33,389Z"/><path d="M994.86,496.85l-.42-1.9c.92,0,2-.34,2.22,1.07.14,1,.14,2-1.21,2.14C994.91,497.87,995.19,497.23,994.86,496.85Z"/><path d="M994.86,496.85c.2.43.39.87.59,1.31-.37,2.4.61,4.91-.6,7.25Z"/><path d="M786.3,525.73A6.74,6.74,0,0,1,789,529.2C786.25,529.46,786.08,527.75,786.3,525.73Z"/><path d="M854.45,488.78c1.4.73,2,2.09,2.69,3.39C854.5,492.43,854.27,490.77,854.45,488.78Z"/><path d="M874.81,690v7.9A12.28,12.28,0,0,1,874.81,690Z"/><path d="M819.32,480.2c-.74-2.26-2.11-.92-3.31-.57,1.86-2.65,3-2.43,4.57.91Z"/><path d="M167.79,643c2.66-.83,5.39-.58,8.1-.5C173.25,643.59,170.49,642.79,167.79,643Z"/><path d="M929.28,489.58c-.12,1.24,0,2.55-1.32,3.31C926.62,491.08,927.05,490,929.28,489.58Z"/><path d="M420.05,376.47l0,7.9A12,12,0,0,1,420.05,376.47Z"/><path d="M584.05,394.88l4.2-2.7C587.94,394.77,586.05,394.91,584.05,394.88Z"/><path d="M701.67,690.05a11.2,11.2,0,0,1-4.79,1.13C698.37,690.35,699.48,688,701.67,690.05Z"/><path d="M563.81,408.16l-2.57.73c-1.1-.93-.38-1.52.47-1.83S563.64,406.79,563.81,408.16Z"/><path d="M504.9,455.82V454h1.32c.74.9,1.81.18,2.65.55C508.2,456.9,506.22,455.38,504.9,455.82Z"/><path d="M550.67,452.21c1.46.09,2.12,1.11,2.66,2.27C550.75,455.7,550.53,454.17,550.67,452.21Z"/><path d="M507.53,345.24h-7.25c1.89-1.13,4-.27,5.94-.57Z"/><path d="M528.85,372.47v-7.25c1.12,2.12.3,4.41.56,6.6C529.67,372.42,529.32,372.5,528.85,372.47Z"/><path d="M732.61,448.57l-2-.14c-.37-.33-1-.07-1.3-.55C730.87,445.86,732,446.07,732.61,448.57Z"/><path d="M462.65,383.71c0-2.41,0-4.83,0-7.24,1.13,2.12.31,4.4.56,6.6C463.48,383.67,463.13,383.75,462.65,383.71Z"/><path d="M724.68,448.43l-2,.09c.67-2.45,1.77-2.67,3.31-.64C725.67,448.36,725.06,448.11,724.68,448.43Z"/><path d="M679.77,446.58l.56,1.31c-.29,2,.57,4-.56,5.93Z"/><path d="M581.69,408.09l-2.65-.66c.12-.89.4-1.81,1.48-1.62S581.67,407.13,581.69,408.09Z"/><path d="M717.38,507.53c1.23-.69,2.17.65,3.33.47C719.28,510.07,718.16,510,717.38,507.53Z"/><path d="M761.86,406.89l-.45-1.9c2.69.31,3.07,1.37,1.05,3.21C761.89,407.94,762.19,407.27,761.86,406.89Z"/><path d="M702.78,674.74c1.66-1,3.53-.48,5.29-.77C706.7,677,704.47,674,702.78,674.74Z"/><path d="M630.67,512.68l-2-.08c-.37-.34-1-.09-1.3-.55C628.89,510,630,510.22,630.67,512.68Z"/><path d="M353.2,654.27a9,9,0,0,1-1.83,4.05C350,656.07,352,655.35,353.2,654.27Z"/><path d="M694.18,484.27c-.17,1.18,1.43,2,.64,3.3C692.43,486.89,692.16,485.8,694.18,484.27Z"/><path d="M558.61,396l5.39,1.57-.86.1a3.2,3.2,0,0,1-3.3,0A1.82,1.82,0,0,1,558.61,396Z"/><path d="M645.91,479.08h7.25A10.23,10.23,0,0,1,645.91,479.08Z"/><path d="M851,470.39c0,2.42,0,4.83,0,7.24A10.26,10.26,0,0,1,851,470.39Z"/><path d="M918.73,471.05l-.4-1.9c2.7.36,3,1.43.95,3.21C918.81,472.05,919.06,471.43,918.73,471.05Z"/><path d="M492.35,390.92c1.22.22,2.68-.17,3.36,1.37C494.06,393.13,492.62,393.46,492.35,390.92Z"/><path d="M185.39,598.76c-1.53.77-3.18.53-4.78.56-2,0-1.52-1-.75-2C181.11,600.11,183.62,598,185.39,598.76Z"/><path d="M588.31,410.78l-2-1.12c.14-.61.13-1.5,1.08-1.14S589,409.61,588.31,410.78Z"/><path d="M959,540.58l-4.06-2C956.59,538.54,958.45,538.22,959,540.58Z"/><path d="M579.4,735.52c2.24-1.16,4.6-.38,6.9-.46,0,.48,0,.83-.64.55Z"/><path d="M419.53,732.89c1.28.09,2.21.93,3.27,1.48C421,735.45,419.86,735.08,419.53,732.89Z"/><path d="M610.9,528a4.43,4.43,0,0,1-1.27,3.33C607.94,529.37,609.67,528.76,610.9,528Z"/><path d="M179.62,642.28c2.24-.79,4.56-.55,6.86-.48C184.26,642.94,181.91,642.13,179.62,642.28Z"/><path d="M815.35,479.63c-.91,0-2-.93-2.63.57l-.68,0c0-.86,0-1.79,1.2-1.89C814.24,478.27,815.22,478.26,815.35,479.63Z"/><path d="M649.85,414.27l2-.09c-.08.94-.42,1.71-1.47,1.85-.87.11-1.09-.52-1.18-1.22A1.09,1.09,0,0,1,649.85,414.27Z"/><path d="M643.91,414.15l1.34.11c.58.47,1.43-.05,2,.56C645.66,416.87,644.56,416.62,643.91,414.15Z"/><path d="M642.5,620.52a6.62,6.62,0,0,1-1.82,2.82C639.53,621.27,640.41,620.5,642.5,620.52Z"/><path d="M782.14,513.35c-.19-.43-.37-.87-.55-1.3.26-1.75-.57-3.62.56-5.27Z"/><path d="M581.54,582.88a2.06,2.06,0,0,1-1.23-1.93c.43-.68,1-.79,1.52-.17A1.23,1.23,0,0,1,581.54,582.88Z"/><path d="M462.65,383.71c.19-.21.37-.43.55-.64.69.37,1.42.79,1,1.72s-1.36.92-2.24.92Z"/><path d="M528.85,372.47l.55-.65c.68.38,1.41.8,1,1.72s-1.36.92-2.23.93C528.4,373.8,528.63,373.14,528.85,372.47Z"/><path d="M383.23,438.61l0-6.58A8.4,8.4,0,0,1,383.23,438.61Z"/><path d="M479,365.89c0,2,0,3.94,0,5.92-.47,0-.82,0-.54-.65C478.67,369.41,477.86,367.55,479,365.89Z"/><path d="M599,373.79c0-2,0-4,0-5.92A7.08,7.08,0,0,1,599,373.79Z"/><path d="M478.42,371.16l.54.65c.06.66.12,1.33.19,2C477.27,373.37,476.26,372.7,478.42,371.16Z"/><path d="M402.28,388.91h-5.92A7.11,7.11,0,0,1,402.28,388.91Z"/><path d="M571.76,406.21l-1.31.56-1.34.08c.07-1,.42-1.71,1.47-1.85C571.45,404.89,571.67,405.52,571.76,406.21Z"/><path d="M632.73,425.43c-1.22.52-1.83,2-3.34,2.06C629.46,425.13,631.18,425.41,632.73,425.43Z"/><path d="M545.22,426.06c.7,1.13-.25,1.82-.71,2.63C542.64,427.24,543.31,426.48,545.22,426.06Z"/><path d="M544.5,436.63l.07,1.34c-.76.37-1.48.53-1.79-.53s.27-1.38,1.17-1.46A1.08,1.08,0,0,1,544.5,436.63Z"/><path d="M545.18,441.93c.28.65,1.07,1.13.65,2-.75.41-1.42.47-1.73-.52S544.28,442,545.18,441.93Z"/><path d="M724.68,448.43l1.31-.55h3.31l1.3.55Z"/><path d="M501.59,453.83v1.33c-1.32-.45-3.3,1.07-4-1.32.89-.44,1.74.45,2.63.11Z"/><path d="M619.29,454.49c0,.44.07.89.11,1.34-.75.34-1.49.55-1.82-.51s.25-1.4,1.16-1.48A1,1,0,0,1,619.29,454.49Z"/><path d="M424.91,470.36v-5.92A7,7,0,0,1,424.91,470.36Z"/><path d="M918.73,471.05c.19.44.37.87.55,1.31v3.31l-.55,1.3Z"/><path d="M338.1,479.07l5.93,0A7,7,0,0,1,338.1,479.07Z"/><path d="M480.3,434.67c.49.81,1.35,1.52.71,2.63C479.09,436.88,478.43,436.12,480.3,434.67Z"/><path d="M640.65,582.81a4.51,4.51,0,0,1,1.21-2.66C643.15,581.49,643.15,581.49,640.65,582.81Z"/><path d="M638,588.76a4.54,4.54,0,0,1,1.21-2.66C640.5,587.44,640.5,587.44,638,588.76Z"/><path d="M635.35,594.72a4.57,4.57,0,0,1,1.21-2.66C637.86,593.39,637.86,593.39,635.35,594.72Z"/><path d="M632.7,600.67a4.52,4.52,0,0,1,1.22-2.66C635.21,599.35,635.21,599.35,632.7,600.67Z"/><path d="M355.41,608.6l0-5.92A6.9,6.9,0,0,1,355.41,608.6Z"/><path d="M630.07,606.62a4.41,4.41,0,0,1,1.2-2.66C632.56,605.3,632.56,605.3,630.07,606.62Z"/><path d="M757.21,621.83c0-2.08-.23-4.18.49-6.2C757.57,617.7,758.3,619.83,757.21,621.83Z"/><path d="M640.48,623.83a7.4,7.4,0,0,1-1.87,3.09C638.77,625.6,638,623.71,640.48,623.83Z"/><path d="M856.41,647.09h5.92A7.11,7.11,0,0,1,856.41,647.09Z"/><path d="M820.19,685.41a8.08,8.08,0,0,1-6.36,0Z"/><path d="M628.09,611.25a4.55,4.55,0,0,1,1.17-2.66C630.59,609.92,630.59,609.92,628.09,611.25Z"/><path d="M516.83,731.1l5.92,0A7,7,0,0,1,516.83,731.1Z"/><path d="M808.85,661.51a4.91,4.91,0,0,1,1.1-2.67C811.74,660.62,809.69,660.82,808.85,661.51Z"/><path d="M300.29,505.44c0,1.76,0,3.51-.05,5.26A5.41,5.41,0,0,1,300.29,505.44Z"/><path d="M556.6,346.06a4.15,4.15,0,0,1-2.69,1.36C554,345.44,555,345.19,556.6,346.06Z"/><path d="M634,477c1.1-.15,2.15,1.36,3.29.09.47-.17.61.14.71.5C636.44,478.78,635.09,478.71,634,477Z"/><path d="M492.39,347.38a4.21,4.21,0,0,1-2.69,1.37C489.82,346.76,490.83,346.52,492.39,347.38Z"/><path d="M643.35,576.21c.37-.68.73-1.36,1.09-2,.54.31,1.36.52.94,1.36S644.1,576.18,643.35,576.21Z"/><path d="M626.11,615.88a4.59,4.59,0,0,1,1.18-2.66C629,615,626.94,615.19,626.11,615.88Z"/><path d="M423.43,658.23a4.32,4.32,0,0,1-1.22,2.66C420.51,659,422.59,658.92,423.43,658.23Z"/><path d="M810.15,658.21a4.42,4.42,0,0,1,1.16-2.66C813,657.36,811,657.52,810.15,658.21Z"/><path d="M575.71,397.7l1.29-.22c-.34,1.94-1,3-2.6.81C574.71,397.81,575.35,398.07,575.71,397.7Z"/><path d="M425.35,653.61a3.92,3.92,0,0,1-1.1,2.67C422.46,654.5,424.52,654.31,425.35,653.61Z"/><path d="M549.4,450.48l.6.68c-2.69.19-3.58-.78-2.1-3.27a.43.43,0,0,1,.09.48C548.34,449.15,548.55,450,549.4,450.48Z"/><path d="M575.71,397.7l-1.31.59-4.2-.07A16,16,0,0,1,575.71,397.7Z"/><path d="M621,399.51c.58.53,1.33,1,1.16,1.95-.77.9-1.12,0-1.5-.4C620,400.44,620.2,399.88,621,399.51Z"/><path d="M632.59,639.05a4.64,4.64,0,0,1-1.19,2.66C629.68,639.88,631.75,639.74,632.59,639.05Z"/><path d="M499.63,719.66a2.86,2.86,0,0,1,2.11,2.67C499.87,722.36,499.53,721.18,499.63,719.66Z"/><path d="M724,668.75l2-1.13c0,.73.12,1.58-.65,2S724.29,669.27,724,668.75Z"/><path d="M187.36,513.43a12.68,12.68,0,0,1-5.47.49C183.63,512.82,185.53,513.57,187.36,513.43Z"/><path d="M823.4,631.77a6.11,6.11,0,0,1,1.85-2.73C825.29,630.39,825.57,631.91,823.4,631.77Z"/><path d="M627.36,512.05l1.3.55-5.26,0C624.6,511.57,626,512.24,627.36,512.05Z"/><path d="M319.57,498.9h5.26A5.41,5.41,0,0,1,319.57,498.9Z"/><path d="M194,598.1c-1.77.77-3.63.56-5.48.48C190.25,597.48,192.16,598.22,194,598.1Z"/><path d="M479.86,629.11a14.4,14.4,0,0,1,.48-5.54c0,1.63.05,3.26.07,4.89C480.76,629.13,480.38,629.18,479.86,629.11Z"/><path d="M260,675.44c-1.11-1.78-.76-3.56,0-5.34Z"/><path d="M956.21,622.46a11.7,11.7,0,0,1,5.41-.5C959.91,623.05,958,622.3,956.21,622.46Z"/><path d="M202.6,597.43c-1.78.78-3.64.57-5.49.49C198.86,596.82,200.76,597.56,202.6,597.43Z"/><path d="M964.78,621.79c1.76-.77,3.61-.58,5.45-.49C968.5,622.39,966.6,621.64,964.78,621.79Z"/><path d="M492.41,451.16a1,1,0,0,1,.56.14c-2,1.27-3.17.51-4-1.43a1,1,0,0,1,1.39,0l0,0C490.85,450.56,491.72,450.73,492.41,451.16Z"/><path d="M419,410.17c0-1.76,0-3.51,0-5.26A5.63,5.63,0,0,1,419,410.17Z"/><path d="M508.2,406.1h-5.27c-.07-.52,0-.9.64-.55h3.31a.91.91,0,0,1,.72-.33C508,405.36,508.33,405.58,508.2,406.1Z"/><path d="M490.37,410.26c-.42.8-.94,1.45-2,1.38C488.45,410.32,488.22,408.6,490.37,410.26Z"/><path d="M425.83,734.88a14.79,14.79,0,0,1,5.58-.49C429.63,735.52,427.69,734.75,425.83,734.88Z"/><path d="M303.68,735l5.27,0A5.33,5.33,0,0,1,303.68,735Z"/><path d="M530.16,426.06l-.66-2.65h1.21a1.78,1.78,0,0,1,.79,2.45C531.24,426.41,530.68,426.43,530.16,426.06Z"/><path d="M278.44,546.78l-1,.85a4.7,4.7,0,0,1-.84-1.26c-.06-.18.5-.73.82-.76C278,545.56,278.5,545.79,278.44,546.78Z"/><path d="M530.16,426.06c2.08-.49.87-1.66.55-2.65,1.36.12,1.36,1.09,1.29,2.09-.08,1.19-1,1.2-1.84,1.22Z"/><path d="M464.37,428.09c-.62-.23-.51-.78-.56-1.26.66-.94,1.33-.71,1.68.17S465,427.94,464.37,428.09Z"/><path d="M544.5,436.63,544,436c.23-1.53-.52-3.18.56-4.61Z"/><path d="M601.65,438.63V438c.87,0,1.76,0,1.85,1.23.06,1,.06,2-1.29,2.08C601.79,440.44,602.57,439.35,601.65,438.63Z"/><path d="M601.65,438.63c2.08.48.87,1.66.56,2.64H601Z"/><path d="M936.46,537.18a7.4,7.4,0,0,1-2.62,3.11A2.78,2.78,0,0,1,936.46,537.18Z"/><path d="M625.56,469l.6.69c-3.07.51-2.91-1.47-2.69-3.49l.61.8C624.54,467.68,624.66,468.61,625.56,469Z"/><path d="M809.81,471a15.18,15.18,0,0,1,5.53-.49C813.58,471.59,811.66,470.84,809.81,471Z"/><path d="M804.12,470.49a15.53,15.53,0,0,1,5.51.48C807.79,470.84,805.87,471.59,804.12,470.49Z"/><path d="M490.4,449.83l-1.39,0h-.66c-.74-.55-1.38-1.13-.61-2.12C489.29,447.59,489.7,448.89,490.4,449.83Z"/><path d="M728.6,666.07c.67-.43,1.33-.87,2-1.31,0,.81.22,1.77-.68,2.22S728.89,666.6,728.6,666.07Z"/><path d="M812,730.91c.64-1,1.75-.5,2.62-.78C814,731.16,813.67,733.29,812,730.91Z"/><path d="M507.55,405.55h-.67q1.67-3.17,3.31,0C509.31,406.14,508.43,404.9,507.55,405.55Z"/><path d="M350,498h-4.59A4.52,4.52,0,0,1,350,498Z"/><path d="M627.41,407.41a2,2,0,0,1,2,1.38C627.46,410.14,627.67,408.43,627.41,407.41Z"/><path d="M646,570.25l1.09-2C648.71,570,647.5,570.18,646,570.25Z"/><path d="M485.84,414.21c0,1-.3,1.74-1.38,2C483.1,414.23,484.82,414.46,485.84,414.21Z"/><path d="M595.7,727c-.09-1.62-.27-3.25.49-4.79C596.07,723.8,596.76,725.49,595.7,727Z"/><path d="M647.22,414.82c-.7,0-1.45.12-2-.56h4.6l-.65.54Z"/><path d="M780.3,725.61a2,2,0,0,1,2,1.31C780.43,728.32,780.59,726.61,780.3,725.61Z"/><path d="M446.63,415.36H442A4.56,4.56,0,0,1,446.63,415.36Z"/><path d="M508.87,454.5c-1,.32-2.16,1.52-2.65-.55l2.65-.09Z"/><path d="M357.18,645a3.11,3.11,0,0,1-1.09,2.68C354.5,646,356.59,645.81,357.18,645Z"/><path d="M843.15,642.51l2,1.1C843.52,645,843.2,644,843.15,642.51Z"/><path d="M196.85,641.62a12.89,12.89,0,0,1,4.86-.49C200.18,642.21,198.47,641.51,196.85,641.62Z"/><path d="M599.56,422.09c.23-1.4-.45-2.65-.66-4C600.6,419.2,600.65,420.55,599.56,422.09Z"/><path d="M368.52,419.33h-4.6A4.51,4.51,0,0,1,368.52,419.33Z"/><path d="M410.31,642.35a6.44,6.44,0,0,1,1.85-2.82C412.31,641,412.1,642.18,410.31,642.35Z"/><path d="M648.65,564.3l1.09-2C651.35,564,650.14,564.23,648.65,564.3Z"/><path d="M412.8,638.35a7.09,7.09,0,0,1,2.07-2.63C414.93,637.19,414.59,638.33,412.8,638.35Z"/><path d="M635.82,632.43l-1.1,2C633.28,632.78,634.32,632.48,635.82,632.43Z"/><path d="M481,422.76c.58,1.09-.19,1.83-.7,2.62C478.22,423.89,480.32,423.51,481,422.76Z"/><path d="M651.3,558.35l1.09-2C654,558,652.79,558.27,651.3,558.35Z"/><path d="M577.71,461.89a5,5,0,0,1,.63-.19c1,.19,2.08-.11,3,.41l.29.33C580.23,463.19,578.77,464,577.71,461.89Z"/><path d="M419.44,631.06a4.84,4.84,0,0,1,2.72-1.83C422,630.93,420.84,631.18,419.44,631.06Z"/><path d="M756.33,671.46l-.55.65c-2.3-1.48-.07-1.88.63-2.64C756.39,670.14,756.36,670.8,756.33,671.46Z"/><path d="M365.79,626.49a3.11,3.11,0,0,1-1.09,2.68C363.1,627.48,365.2,627.29,365.79,626.49Z"/><path d="M948.12,623.09c1.57-.75,3.24-.55,4.9-.47C951.47,623.68,949.76,623,948.12,623.09Z"/><path d="M623.52,434.05c.06.94-.6,1.47-1.18,2C621.33,434.67,621.42,434.52,623.52,434.05Z"/><path d="M821.29,539.94l-1.3.58-3.59-.1A11.73,11.73,0,0,1,821.29,539.94Z"/><path d="M827.72,466.33c.67-1.06,1.85-1.37,2.83-2C830.48,466.25,829.24,466.5,827.72,466.33Z"/><path d="M332.91,490.86l-.06-4.6A4.36,4.36,0,0,1,332.91,490.86Z"/><path d="M812,540.52l-1.3-.57a12.2,12.2,0,0,1,4.88.47Z"/><path d="M505,621.87c-.61,1-.82,2.21-2,2.73C502.83,623.1,503.13,621.92,505,621.87Z"/><path d="M708,674c.8-.74,1.78-.57,2.73-.52C710.25,675.71,709.05,674.38,708,674Z"/><path d="M619.31,445.26a11.88,11.88,0,0,1-.49,4.85C618.93,448.49,618.23,446.78,619.31,445.26Z"/><path d="M327.51,536h4.6A4.54,4.54,0,0,1,327.51,536Z"/><path d="M624.16,619.86l1.15-2C626.74,619.56,625.63,619.81,624.16,619.86Z"/><path d="M896.83,617c.47,1.53,1.15,3.06-.06,4.57Z"/><path d="M480.34,621.42a11.71,11.71,0,0,1-.48-4.85C480.92,618.1,480.23,619.8,480.34,621.42Z"/><path d="M896.18,609.67c.77,1.57.57,3.23.48,4.88C895.59,613,896.29,611.3,896.18,609.67Z"/><path d="M319,510.7l0-4.58A4.55,4.55,0,0,1,319,510.7Z"/><path d="M596.36,719.72c-.09-1.64-.29-3.3.48-4.85C596.73,716.49,597.42,718.19,596.36,719.72Z"/><path d="M851.72,678.83c-.88-.69-1.76-1.38-2.63-2.08C850.57,676.68,852,676.66,851.72,678.83Z"/><path d="M895.52,601.73c.76,1.57.56,3.23.48,4.88C894.93,605.07,895.63,603.36,895.52,601.73Z"/><path d="M332.11,517.9l-4.6,0A4.36,4.36,0,0,1,332.11,517.9Z"/><path d="M483.2,354.68a2.3,2.3,0,0,1-1.3,2C480.31,354.7,482.21,355,483.2,354.68Z"/><path d="M877.53,593.52a2.14,2.14,0,0,1-1.34-2C877.57,591.06,877.57,591.06,877.53,593.52Z"/><path d="M585.66,735.61l.64-.55,2-.13C587.55,735.65,587.19,737.92,585.66,735.61Z"/><path d="M483.13,383c1.08.21,1.37,1,1.39,2C483.5,384.74,481.78,385,483.13,383Z"/><path d="M486.41,386.91a1.68,1.68,0,0,1,2,1.37C486.46,389.63,486.68,387.93,486.41,386.91Z"/><path d="M559.84,397.62l3.3,0C562,399.63,560.93,398.65,559.84,397.62Z"/><path d="M565.15,397.72a12.09,12.09,0,0,1,4.86.49C568.39,398.09,566.68,398.8,565.15,397.72Z"/><path d="M910.1,586.35c-.79.77-1.78.48-2.71.52C908.08,585.58,908.87,584.81,910.1,586.35Z"/><path d="M865.66,582.75l-2-1.16C865.45,580,865.59,581.32,865.66,582.75Z"/><path d="M699.54,574.29c-.46.88-1.28.65-2,.66C697.79,573.49,698.41,573.1,699.54,574.29Z"/><path d="M704.81,573.45l-2,0c.1-.66.3-1.23,1.13-1.14C704.6,572.41,704.71,572.93,704.81,573.45Z"/><path d="M187.27,567.59a6.86,6.86,0,0,1,.5-4.12C187.67,564.85,188.29,566.32,187.27,567.59Z"/><path d="M962.67,531.16a9.16,9.16,0,0,1,4.25-.48C965.6,531.7,964.09,531.06,962.67,531.16Z"/><path d="M957,531.26l-1.3-.57a9.24,9.24,0,0,1,4.23.47Z"/><path d="M301.14,523.27l-.06-3.94A3.24,3.24,0,0,1,301.14,523.27Z"/><path d="M179.38,514.08a7.16,7.16,0,0,1-4.11.5C176.53,513.57,178,514.19,179.38,514.08Z"/><path d="M788.87,488.9l0,2.72-.66.66C788.05,491.07,787.46,489.8,788.87,488.9Z"/><path d="M693.62,478.76a9,9,0,0,1,.48,4.16C693.09,481.63,693.7,480.15,693.62,478.76Z"/><path d="M694.11,473.7a8.87,8.87,0,0,1-.49,4.21C693.71,476.5,693.08,475,694.11,473.7Z"/><path d="M583,460.36c.1-.36.29-.58.7-.47.08,1.42,0,2.76-2,2.55C581.24,461.21,582.66,461.13,583,460.36Z"/><path d="M500.25,454c-.92,1-1.77.23-2.63-.11v-.55C498.69,452.74,499.46,453.37,500.25,454Z"/><path d="M619.29,454.49l-.55-.65c0-1.19,0-2.37.08-3.56A9.27,9.27,0,0,1,619.29,454.49Z"/><path d="M645.89,420.75l-1.3.58-1.35.11C644,420.72,644.36,418.47,645.89,420.75Z"/><path d="M554.57,412.9c-.3,1-1.37.82-2,1.38C552.87,413.26,552.66,411.56,554.57,412.9Z"/><path d="M507.55,405.55c.88-1.2,1.76-.33,2.64,0l-.09.94-1.9-.39Z"/><path d="M503.57,405.55l-.64.55-2,.13C501.59,405.15,502.3,404.26,503.57,405.55Z"/><path d="M679,385.71c-.18.44-.36.87-.55,1.3v-3.93c.18.44.37.87.55,1.31Z"/><path d="M653.16,356.49A9.18,9.18,0,0,1,649,356C650.37,356.11,651.86,355.48,653.16,356.49Z"/><path d="M646.84,356a9,9,0,0,1-4.24.49C643.92,355.47,645.42,356.11,646.84,356Z"/><path d="M207.75,689a8.44,8.44,0,0,1,.47,4.25C207.21,691.94,207.84,690.43,207.75,689Z"/><path d="M485.11,686.39a8.83,8.83,0,0,1,.49,4.23C484.56,689.31,485.2,687.81,485.11,686.39Z"/><path d="M208.22,682.06a7.67,7.67,0,0,1-.48,4.1C207.84,684.79,207.23,683.32,208.22,682.06Z"/><path d="M854.92,683.42c-.61-.24-.51-.79-.57-1.28.33-.42.73-.87,1.15-.2S855.51,683.08,854.92,683.42Z"/><path d="M927.33,682.68c-.08-1.39-.35-2.81.51-4.09C927.73,680,928.34,681.42,927.33,682.68Z"/><path d="M623.27,670.15a7.19,7.19,0,0,1-.48,4.17C622.88,672.92,622.26,671.44,623.27,670.15Z"/><path d="M346.58,668.82a4,4,0,0,1-1.17,2.73C344.54,670.1,345.59,669.47,346.58,668.82Z"/><path d="M808.07,731.65l.65-.55,2-.06C810,732.07,809.29,732.92,808.07,731.65Z"/><path d="M908.69,730.41l2,0c-.09.52-.2,1-.85,1.11C909,731.63,908.79,731.06,908.69,730.41Z"/><path d="M626,655.58c.69,1.12-.26,1.81-.69,2.63C624.15,657,625,656.25,626,655.58Z"/><path d="M334.89,656.22a5.1,5.1,0,0,1,1.15-2.77C336.92,654.9,335.92,655.57,334.89,656.22Z"/><path d="M336.19,652.92a4.87,4.87,0,0,1,1.18-2.76C338.25,651.63,337.22,652.27,336.19,652.92Z"/><path d="M431.37,636.4c.05,1,.24,1.92-.55,2.7C430.13,638,430,637,431.37,636.4Z"/><path d="M754.82,633l.41-1.89c.66.11,1.24.38,1.07,1.17S755.44,633,754.82,633Z"/><path d="M349.23,662.87a4.07,4.07,0,0,1-1.17,2.72C347.19,664.14,348.25,663.52,349.23,662.87Z"/><path d="M841.26,628.46a2.13,2.13,0,0,1-.66,2C839.37,629.33,839.79,628.72,841.26,628.46Z"/><path d="M882.81,612.11a7.61,7.61,0,0,1-.48-4.14c.52-.07.9,0,.55.64C882.86,609.78,882.83,610.94,882.81,612.11Z"/><path d="M757.69,612.22a8.79,8.79,0,0,1-.48-4.25C758.24,609.29,757.6,610.8,757.69,612.22Z"/><path d="M754.33,598.75c-.64-.22-.54-.78-.59-1.27.32-.42.72-.87,1.14-.21S754.91,598.4,754.33,598.75Z"/><path d="M743.82,585.58l-1.94-1.48C744,582.71,743.79,584.28,743.82,585.58Z"/><path d="M553.3,580.2a4.16,4.16,0,0,1-2.7,1.37C550.77,579.68,552.22,580.31,553.3,580.2Z"/><path d="M325.14,578.92a9.69,9.69,0,0,1-4.24.48C322.21,578.37,323.72,579,325.14,578.92Z"/><path d="M655.82,413.51c-.48.76-1.27.61-2,.68l-1.52-.1A5.6,5.6,0,0,1,655.82,413.51Z"/><path d="M395,573.47a6.32,6.32,0,0,1-3.43-.53C392.73,573,394,572.49,395,573.47Z"/><path d="M379.19,408a6.89,6.89,0,0,1,.48,3.48C378.74,410.44,379.25,409.18,379.19,408Z"/><path d="M761.86,406.89l.6,1.31-.12,2.15A6.93,6.93,0,0,1,761.86,406.89Z"/><path d="M718,573.45a5.22,5.22,0,0,1-3.47-.5C715.73,573,717,572.5,718,573.45Z"/><path d="M888.23,718.91a2.29,2.29,0,0,1,2.21,1.39C889.35,720.39,888.23,720.53,888.23,718.91Z"/><path d="M379.7,403.59a6.76,6.76,0,0,1-.5,3.55C379.26,405.94,378.71,404.65,379.7,403.59Z"/><path d="M917.19,573.56c.34.81-.14,1.39-.55,2C915.6,574.55,915.8,573.89,917.19,573.56Z"/><path d="M814.77,582.85a2.09,2.09,0,0,1-2,1.37C812.75,582.78,813.76,582.81,814.77,582.85Z"/><path d="M809.47,586.15a2,2,0,0,1-2,1.38C807.45,586.09,808.46,586.12,809.47,586.15Z"/><path d="M674.43,586.82c-.21,1.14-1,1.4-2,1.37C672.41,586.75,673.42,586.78,674.43,586.82Z"/><path d="M540.06,588.14a2.06,2.06,0,0,1-2,1.38C538,588.08,539,588.1,540.06,588.14Z"/><path d="M761.18,483.59a6.29,6.29,0,0,1,.49-3.53C761.61,481.25,762.14,482.52,761.18,483.59Z"/><path d="M804.17,590.12a1.68,1.68,0,0,1-2,1.4C802.14,590.07,803.15,590.08,804.17,590.12Z"/><path d="M734.58,381.63a5.5,5.5,0,0,1-3.5-.49C732.26,381.2,733.52,380.68,734.58,381.63Z"/><path d="M724.87,381.14a5.57,5.57,0,0,1-3.5.49C722.43,380.69,723.69,381.2,724.87,381.14Z"/><path d="M541.38,372.2a6.34,6.34,0,0,1,.49,3.57C540.89,374.69,541.43,373.4,541.38,372.2Z"/><path d="M534.76,592.11c-.23,1.12-1,1.4-2,1.38C532.74,592.05,533.75,592.07,534.76,592.11Z"/><path d="M808.08,480.89c.49-.72,1.28-.55,2-.65l1.41.09A5.31,5.31,0,0,1,808.08,480.89Z"/><path d="M403.64,486.36h3.27A2.48,2.48,0,0,1,403.64,486.36Z"/><path d="M408.16,689.31c.38.85-.27,1.37-.63,2C406.58,690.26,406.79,689.6,408.16,689.31Z"/><path d="M776.33,723c1,0,1.82.22,2,1.38C777.34,724.38,776.34,724.4,776.33,723Z"/><path d="M799.54,594.09a1.79,1.79,0,0,1-2,1.43C797.49,594.05,798.5,594.05,799.54,594.09Z"/><path d="M896.9,594.11c.08.81-.5,1.32-.87,1.92C895,594.81,895.46,594.23,896.9,594.11Z"/><path d="M728.67,698.57l-.57.65c0-1.09,0-2.19,0-3.28C728.92,696.67,728.54,697.68,728.67,698.57Z"/><path d="M287.24,600v-3.27A2.52,2.52,0,0,1,287.24,600Z"/><path d="M385.63,463.78a7,7,0,0,1-.48,3.59C385.21,466.16,384.68,464.87,385.63,463.78Z"/><path d="M311.51,486.93c0,1.09,0,2.18,0,3.27A2.48,2.48,0,0,1,311.51,486.93Z"/><path d="M755.78,682l.54.64c0,.45,0,.89,0,1.34C755,683.72,754.73,683.07,755.78,682Z"/><path d="M632.68,474.93c.21.68.42,1.37.64,2.06-1.76-.2-1.21-1.57-1.33-2.61C632.53,474.17,632.57,474.59,632.68,474.93Z"/><path d="M296.37,515.26h-3.28A2.44,2.44,0,0,1,296.37,515.26Z"/><path d="M790.38,602.73a1.82,1.82,0,0,1-1.48,2C788.86,603.66,788.89,602.66,790.38,602.73Z"/><path d="M652,606.69a1.82,1.82,0,0,1-1.45,2C650.51,607.64,650.53,606.64,652,606.69Z"/><path d="M342,680.07a5.11,5.11,0,0,1-1.17,2.75C340.66,681.68,340.79,680.66,342,680.07Z"/><path d="M882.88,608.61c-.19-.21-.37-.43-.55-.64,0-.45-.07-.89-.1-1.34C883.63,606.9,884,607.53,882.88,608.61Z"/><path d="M882.3,621.83a5.48,5.48,0,0,1,.52-3.45C882.75,619.54,883.28,620.8,882.3,621.83Z"/><path d="M777.12,619.26c0,1-.68,1.56-1.44,2C775.62,620.25,775.61,619.22,777.12,619.26Z"/><path d="M927.79,495.53a6.11,6.11,0,0,1-.51,3.47C927.34,497.82,926.82,496.57,927.79,495.53Z"/><path d="M486.24,670.15a5.53,5.53,0,0,1-.47,3.51C485.82,672.48,485.31,671.22,486.24,670.15Z"/><path d="M107.14,620.9a5.39,5.39,0,0,1,.47,3.57C106.66,623.38,107.19,622.1,107.14,620.9Z"/><path d="M787.55,729.11c.87-.41,1.34.35,2,.66C788.5,730.64,787.83,730.45,787.55,729.11Z"/><path d="M896,622.51c.39.85-.29,1.35-.64,2C894.44,623.45,894.65,622.79,896,622.51Z"/><path d="M773.11,625.2a2.44,2.44,0,0,1-1.38,2.11C771.65,626.25,771.59,625.2,773.11,625.2Z"/><path d="M479.86,629.11l.55-.65c1,1,.79,1.68-.6,2Z"/><path d="M344.75,632.42a4.83,4.83,0,0,1,1.23-2.78C346.11,630.81,346,631.86,344.75,632.42Z"/><path d="M342.64,637l1.35-2.76C344.11,635.47,344,636.56,342.64,637Z"/><path d="M757,665.52a5,5,0,0,1-.51,3.42C756.56,667.79,756,666.54,757,665.52Z"/><path d="M236.51,728.92a6.5,6.5,0,0,1,3.59-.48C239,729.41,237.72,728.87,236.51,728.92Z"/><path d="M852.42,646.39c.89-.47,1.31.46,2,.65C853.35,648,852.7,647.75,852.42,646.39Z"/><path d="M337.52,649.61a4.9,4.9,0,0,1,1.19-2.74C338.83,648,338.69,649,337.52,649.61Z"/><path d="M855.19,696.57a6,6,0,0,1,.47-3.53C855.61,694.23,856.13,695.5,855.19,696.57Z"/><path d="M288.31,520c0,1.09,0,2.18.05,3.27A2.47,2.47,0,0,1,288.31,520Z"/><path d="M385.15,467.43a7,7,0,0,1,.48,3.59C384.68,469.92,385.21,468.64,385.15,467.43Z"/><path d="M131.51,530.58l-.06,3.27A2.38,2.38,0,0,1,131.51,530.58Z"/><path d="M265.25,534.63l-3.27-.22C263.13,533.66,264.23,533.45,265.25,534.63Z"/><path d="M487,664.84c.29.86-.44,1.33-.76,2C485.34,665.7,485.64,665.06,487,664.84Z"/><path d="M317,537.82c0-1.09,0-2.18-.05-3.28A2.4,2.4,0,0,1,317,537.82Z"/><path d="M406.91,448.43h-3.27A2.5,2.5,0,0,1,406.91,448.43Z"/><path d="M487.74,447.75c.2.71.41,1.41.61,2.12-1.84-.28-1.19-1.7-1.27-2.78Z"/><path d="M301.66,540.36l-3.27,0A2.45,2.45,0,0,1,301.66,540.36Z"/><path d="M681.44,730.26a5.53,5.53,0,0,1,3.49-.48C683.87,730.71,682.62,730.2,681.44,730.26Z"/><path d="M349.23,434v3.28A2.49,2.49,0,0,1,349.23,434Z"/><path d="M310.3,541.25l3.27,0A2.5,2.5,0,0,1,310.3,541.25Z"/><path d="M784.24,727.78c.86-.4,1.33.37,2,.64C785.19,729.33,784.53,729.14,784.24,727.78Z"/><path d="M242.22,545.76v-3.27A2.5,2.5,0,0,1,242.22,545.76Z"/><path d="M269.92,543.22l3.28,0A2.38,2.38,0,0,1,269.92,543.22Z"/><path d="M202.24,557.64a5,5,0,0,1,3.44-.51C204.65,558.08,203.4,557.56,202.24,557.64Z"/><path d="M923.15,559c.39.84-.26,1.36-.62,2C921.57,560,921.79,559.3,923.15,559Z"/><path d="M545.28,422.75a1.41,1.41,0,0,0,.88,1.42c0,.62-.09,1.18-.85,1.3C545,424.57,544.05,423.67,545.28,422.75Z"/><path d="M895.48,725a2,2,0,0,1,2,1.37C896.49,726.36,895.49,726.38,895.48,725Z"/><path d="M877,705.1a2.15,2.15,0,0,1,1.42,2C876.9,707.15,876.9,706.14,877,705.1Z"/><path d="M596.81,559.67c.38.84-.24,1.37-.61,2C595.23,560.63,595.44,560,596.81,559.67Z"/><path d="M493.08,710.15c.65.64,1.39,1.22,1.36,2.26C492.81,712.37,493,711.22,493.08,710.15Z"/><path d="M921.16,563.64c.36.83-.21,1.37-.6,2C919.58,564.6,919.79,564,921.16,563.64Z"/><path d="M571.76,732.41c.85-.41,1.32.37,2,.62C572.72,734,572.06,733.77,571.76,732.41Z"/><path d="M594.82,564.3c.37.83-.19,1.38-.58,2C593.24,565.27,593.45,564.61,594.82,564.3Z"/><path d="M761.83,416.78a6.29,6.29,0,0,1,.5-3.6C762.26,414.39,762.82,415.69,761.83,416.78Z"/><path d="M649.39,530.91c-3.8-2.56-8-5-9.69-9.81-1.53-4.3-4.21-7.56-9-8.42a2.74,2.74,0,0,0-2.17-.69c-1.64.74-3.44.08-5.1.63a8.24,8.24,0,0,0-6.43,5.13,35.36,35.36,0,0,1-2.74,4.26c-1.89,1.56-2.15,4-3.37,6l0,0c-.73,1-1.48,2-1.27,3.33-2.49,5.65-4.8,11.37-7.51,16.9-1.85,3.79-2.77,8-5.31,11.49-.4.6-.92,1.16-.61,2,0,1.15-.81,1.83-1.38,2.66-.39.6-.94,1.16-.58,2l-6.53,16.53c-1.48,1.46-1.6,3.62-2.72,5.27a15.16,15.16,0,0,1-3.45-5.2,2.06,2.06,0,0,0-1.23-1.93c-1.76-1.92-3.44-3.91-5.27-5.74-3.11-3.11-5.25-3.51-9.22-1.56-4.23,2.07-8.35,4.36-12.52,6.55-.87.52-2.08.37-2.7,1.37l-10.54,6.57c-.67.47-1.56.62-2,1.38-.63,1.44-2.27,1.61-3.27,2.59-.67.47-1.56.62-2,1.38-3.4,3.72-7.93,6.21-11.16,10.12-3.86,1-5.51,4.24-7.3,7.31-3.65,3.19-6.15,7.35-9.3,11-1.23.5-1.45,1.74-2,2.73-3.21,6-6.89,11.75-9.43,18.15A117.12,117.12,0,0,0,487,664.84a2.14,2.14,0,0,0-.76,2c.78,1.11-.54,2.22,0,3.34-.47,1.13.1,2.4-.47,3.51l-.18,2.44c-.6,2.92.22,5.92-.49,8.83v1.46c.6,1.36-.05,2.86.49,4.23a40.69,40.69,0,0,0,1,5.33c1.62,5,4.63,9.33,6.45,14.2a3.45,3.45,0,0,0,1.36,2.26l5.19,7.25a6,6,0,0,0,2.11,2.67c4.5,3.83,8.71,8.17,15.09,8.77a17.56,17.56,0,0,0,5.92,0,56.82,56.82,0,0,0,8.57-3.67c5.61-2.87,10.59-6.73,15.9-10.08,1.73-1.09,2.53-1.71,3.73.92,1.9,4.16,4.44,8,9.39,9.54,3.91,1.22,7.62,3.06,11.42,4.62.59.4,1.16.9,2,.62,1.78,1.09,4.26.57,5.67,2.49a20.72,20.72,0,0,1,6.76,0,2.69,2.69,0,0,0,2.15-.55A11.11,11.11,0,0,0,595.7,727c.56-1.55-.19-3.25.49-4.79.06-.83.11-1.66.17-2.48.55-1.58-.16-3.28.48-4.86.12-8,1.91-15.78,3.65-23.5,5.58-24.58,13.9-48.28,23.67-71.5.63-.53,1.29-1,1.15-2a2.41,2.41,0,0,1,.8-2c.38-.89,1.38-1.51,1.18-2.66a2.41,2.41,0,0,1,.8-2c.38-.89,1.4-1.5,1.17-2.66a2.45,2.45,0,0,1,.81-2c.39-.89,1.4-1.5,1.2-2.66a5.94,5.94,0,0,1,1.43-3.29c.41-.88,1.42-1.5,1.22-2.66a5.94,5.94,0,0,1,1.43-3.29c.41-.89,1.41-1.5,1.21-2.66a6,6,0,0,1,1.44-3.3c.41-.88,1.41-1.49,1.21-2.66a6,6,0,0,1,1.44-3.29c.41-.88,1.41-1.5,1.21-2.66.5-1.31,1-2.63,1.49-3.94.63-.54,1.32-1,1.09-2l1.56-3.92c.64-.53,1.3-1,1.09-2l1.56-3.92c.64-.53,1.3-1,1.09-2l1.56-3.91c.63-.54,1.3-1.05,1.09-2,.74-1.91,1.55-3.79,2.21-5.73C657.39,542.45,657,536.06,649.39,530.91Zm-85,115.93A136.81,136.81,0,0,0,558,669.92a5.24,5.24,0,0,1-2.38,3.64c-3.2,2.33-6.41,4.67-9.44,7.21-2.09,1.75-4.56,2.19-7,2.51-3.21.41-5.17-1.87-5-5.34.49-8.79,3.66-16.68,8.29-24,8.1-12.83,17.68-24.41,29.52-34,.85-.69,1.75-1.32,3.41-2.56C571.5,627.81,567.93,637.32,564.38,646.84Z"/><path d="M702.8,674.73h0Z"/><path d="M757.7,615.63v-3.41c-.59-1.37,0-2.87-.48-4.25l-2.88-9.22a1.14,1.14,0,0,0-.59-1.27,69.34,69.34,0,0,0-9.92-11.9c-.48-.71-.64-1.84-1.94-1.48A62.65,62.65,0,0,0,718,573.45c-1.11-.51-2.37.12-3.47-.5a46.1,46.1,0,0,0-9.75.5,1.61,1.61,0,0,0-2,0c-1,.85-2.13.77-3.28.81a2,2,0,0,0-2,.66c-1.31.51-2.6,1.07-3.91,1.54-6.92,2.48-12.83,6.82-19.19,10.33-.67.47-1.55.62-2,1.37-7.37,5.54-13.74,12.17-20.39,18.5-.87.39-1,1.35-1.45,2l-1.22,1.3c-1.09,1.75-2.7,3.16-3.45,5.15l-3.39,5.38a3.87,3.87,0,0,0-1.82,2.82.46.46,0,0,1-.2.49c-1.32.6-1.15,2.12-1.87,3.09l-2.79,5.51c-.61.53-1.26,1.05-1.1,2l-2.13,4.61c-.39.89-1.39,1.51-1.19,2.66q-2.7,6.94-5.42,13.87a4.16,4.16,0,0,0-.69,2.63q-1,6-2,11.94c-.52,1.35.14,2.83-.48,4.17,0,4.38-.62,8.87.14,13.11a52.78,52.78,0,0,0,11.35,24.33c8.46,10.38,18.74,17.08,32.15,18.68a77.21,77.21,0,0,0,12.54,0l2.47-.17c1.1-.59,2.37,0,3.49-.48,9-1.46,18-2.87,26.65-6.08,5.44-2,10.24-4.61,11.69-11a43.37,43.37,0,0,1,3.78-9.6c1.51-.93,1.44-2.44,1.46-3.92-.42-1.05,0-2.21-.43-3.25-1.38-3.51-3.37-6.51-6.82-8.32a11.54,11.54,0,0,0-7.86-.24l-11.73,2.67c-1.74-.21-3.23.6-4.79,1.13l-1.22.16c-3.67.29-7.35,0-11,0l-.2.08-.14-.15c-1.22-.86-2.46-1.62-4-1.12-4.07-1.52-7.46-3.66-7.94-8.52a29.2,29.2,0,0,1,0-8.95l0,0a37.69,37.69,0,0,0,1.29-7.52c.2-1.14.26-2.28.55-3.45.66-2.63,1.39-1.86,2.44-.36a20.5,20.5,0,0,0,8.84,8.74l.85.75c1.11,1.85,3,2.47,4.88,3.1.59.9,1.58.68,2.42.86,3.07-.19,6.17,1.3,9.22-.14,1.63-1.08,3.7.86,5.26-.74.88-.27,2,.38,2.71-.52s2.14-.65,3.22-1c2.73.66,4.69-.92,6.7-2.32a5.9,5.9,0,0,1,3.3-1.45c1,.15,1.47-.53,2-1.13l2.61-1.55c1.06.17,1.57-.51,2-1.31,4.1-3.39,8.36-6.52,11.95-10.55A65.1,65.1,0,0,0,754.82,633c1-.43.74-1.15.41-1.89l2-9.27C757.8,619.79,757,617.65,757.7,615.63Zm-62.27,28a126.7,126.7,0,0,1-15.83,3.13c8.84-11.64,15.83-23.7,26.39-32.93a13.26,13.26,0,0,1,8-3.58c3-.22,3.94,1.14,3.93,3.85C717.8,630.11,710.72,639.41,695.43,643.68Z"/><path d="M794.23,467.7c-1.45.82-2.47.69-2.71-1.2A3.71,3.71,0,0,1,794.23,467.7Z"/><path d="M938.27,523.29c-2.47.11-3.94-.81-3.69-3.53Z"/><path d="M824.51,481c1.66.21,3.8-1.07,4.67,1.54Z"/><path d="M794.18,486.83a3.2,3.2,0,0,1,3.3-1.9C796.46,485.71,795.59,486.74,794.18,486.83Z"/><path d="M625.56,469c-1.5.08-1.53-.93-1.48-2C624.85,467.45,625.61,467.91,625.56,469Z"/><path d="M583,460.36c.18,1.07-.85,1.39-1.29,2.08-1.13-.17-2.43.46-3.34-.74A9.25,9.25,0,0,1,583,460.36Z"/><path d="M549.4,450.48c-1.55,0-1.48-1.05-1.41-2.11C548.72,448.9,549.44,449.43,549.4,450.48Z"/><path d="M492.41,451.16c-1,0-2,.1-2-1.36C491.44,449.68,492,450.36,492.41,451.16Z"/></svg>