<svg id="Camada_1" data-name="Camada 1" xmlns="http://www.w3.org/2000/svg" viewBox="0 0 1080 1080"><path d="M578.53,540.14c0,15.21-.08,30.41.07,45.62,0,3.47-1.07,4.27-4.54,4.75-9.21,1.27-14.35-2.27-19-10.4-11.52-20.18-24.25-39.68-36.56-59.41-.72-1.16-1-3.59-3.07-2.81-1.58.58-.79,2.55-.79,3.88-.1,20.91-.24,41.83-.1,62.74,0,4.25-1,5.89-5.55,5.78-10.71-.26-10.73,0-10.71-10.89,0-28.2.21-56.41,0-84.61,0-4.61,1.7-5,5.73-5.6,10.54-1.56,16.45,2.54,21.62,11.8,10,17.93,21.53,35,32.5,52.44.84,1.34,1.22,4,3.29,3.33,1.88-.62.83-3.08.84-4.69.17-19.16.34-38.33.27-57.49,0-3.94,1.16-5.19,5.14-5.12,11.15.17,11.16,0,11.16,11.23v39.45Z"/><path d="M320.49,544.64c-.08-26.67,13.63-47.45,34.73-56.07a55.45,55.45,0,0,1,59.83,11.85c3,3,3.23,5.13.2,8.29-7.6,7.93-7.48,8.05-16.19,1.28-14.91-11.59-35.24-10.23-48.86,3.26a38.72,38.72,0,0,0-4,51.1c14.35,19.11,39.88,20.95,56.71,4.08,3.92-3.93,4.65-3.93,8.36,0l1.29,1.39c7.4,7.74,7.42,8.23-.85,14.87-18.35,14.73-38.65,17.19-59.61,7.24S321.42,564.11,320.49,544.64Z"/><path d="M814.55,540.91c0-15,.13-30.11-.09-45.15-.06-4.23,1.35-5.42,5.48-5.35,11.42.2,11.42,0,11.42,11.57,0,8.08.17,16.16-.07,24.24-.11,3.73.73,5.44,4.89,5.36,11.1-.21,22.2-.13,33.3,0,3.26,0,4-1.37,4-4.31-.07-10.61.21-21.22,0-31.83-.06-3.8,1.17-4.91,4.92-4.89,12,.06,12-.08,12,12.1-.08,27.72-.28,55.45-.21,83.17,0,4.43-1.38,5.67-5.74,5.56-11-.28-11-.08-11-10.93,0-10.14-.12-20.29.07-30.42.07-3.59-1.19-4.67-4.68-4.62-11.09.17-22.2.19-33.29,0-3.53-.06-4.2,1.34-4.19,4.48.05,12.2-.23,24.39-.18,36.58,0,3.39-.87,4.74-4.55,4.74-12.18,0-12.18.16-12.18-11.82V540.91Z"/><path d="M254,418.22c0-15.2.09-30.4-.07-45.6,0-3.18.93-4.05,4-3.88a181.62,181.62,0,0,1,51,10c2.64.93,2.89,2,1.9,4.4q-17.39,42.81-34.57,85.71c-.84,2.09-1.64,3-4.15,2.09a46.79,46.79,0,0,0-13.93-2.72c-3.46-.13-4.4-1.37-4.35-4.84C254.14,448.31,254,433.27,254,418.22Z"/><path d="M128.14,536.94c-15.06,0-30.13-.1-45.19.08-3.35,0-4.31-.83-4.11-4.2A181.69,181.69,0,0,1,88.7,482.7c.91-2.59,1.87-3,4.44-2q42.92,17.34,85.94,34.42c2.24.89,2.94,1.91,2.11,4.24a50.12,50.12,0,0,0-2.84,13.91c-.18,3.08-1.63,3.77-4.53,3.75C158.59,536.87,143.37,536.94,128.14,536.94Z"/><path d="M247.36,663.13c0,14.24-.13,28.49.08,42.73.06,4.06-.54,5.7-5.28,5.39a189.45,189.45,0,0,1-47.79-9.33c-3.47-1.16-3.46-2.46-2.29-5.35q16.77-41.49,33.31-83.07c1-2.52,1.88-3.31,4.75-2.37,4,1.32,8.3,2.53,12.49,2.57,4.59.06,4.84,2.12,4.8,5.74C247.26,634,247.36,648.57,247.36,663.13Z"/><path d="M425.62,540c0-15.2.11-30.41-.08-45.6-.05-4.06,1.43-5.1,5.3-5.05q26.64.35,53.27.16c3.78,0,5,1.24,4.88,4.95-.27,9.58,1.12,8.95-9,8.93-11.41,0-22.83.09-34.24-.14-3.12-.06-3.92,1.28-3.93,3.88,0,6.33.12,12.67,0,19-.09,3.6,1.47,4.6,4.88,4.56,12-.15,24.1.1,36.14-.14,4.3-.09,5.84,1.46,5.34,5.54a13.66,13.66,0,0,0,0,3.32c.41,3.77-1.28,5-5,4.93-11.57-.26-23.14-.22-34.7-.42-6.35-.1-6.53,0-6.65,6.53s0,13-.41,19.46c-.25,4.29,1.46,5.4,5.53,5.34,12.2-.17,24.41.14,36.61,0,3.92-.05,5.34,1.25,5.26,5.21-.22,10.8.92,9.79-9.68,9.75-16.32-.07-32.64-.29-49-.22-4.05,0-5.14-1.51-5.09-5.34.16-14.88.06-29.77.06-44.66Z"/><path d="M668,540.43c0-14.89.12-29.79-.08-44.68,0-4.23,1.07-5.92,5.62-5.84,17.9.33,35.82.38,53.73.37,3.29,0,4.47,1,4.39,4.35-.24,10.89,1,9.25-8.91,9.32-11.1.07-22.2.14-33.3-.06-3.7-.06-5.14,1.08-5,4.87.23,6,.21,12,0,18.06-.12,3.55,1.23,4.68,4.73,4.63,12.2-.16,24.42.1,36.62-.15,4.11-.09,5.17,1.4,5.06,5.23-.26,9.49.83,8.29-8.49,8.31-10.94,0-21.88,0-32.82-.21-3.8-.08-5.55,1-5.44,5,.2,7.29.16,14.58,0,21.87-.07,3.32,1.23,4.44,4.49,4.42,12.53-.06,25,.24,37.57,0,4.33-.07,5.43,1.47,5.33,5.5-.26,10.58.89,9.37-9.53,9.34-16.49,0-33-.33-49.46-.23-3.94,0-4.79-1.4-4.75-5,.16-15.05.07-30.1.07-45.15Z"/><path d="M183.39,393.19c1.41,0,1.53,1.31,1.92,2.23q16.56,38.55,33.08,77.1c.79,1.83.55,2.79-1.3,3.68a59.6,59.6,0,0,0-13.33,9c-1.68,1.45-2.54,1-3.85-.33q-29.68-29.75-59.45-59.41c-1.38-1.37-1.71-2.22-.05-3.73a165.05,165.05,0,0,1,41.55-28C182.39,393.52,182.85,393.39,183.39,393.19Z"/><path d="M195.71,589.1c0,1.56-1.05,2.14-1.79,2.89q-26.52,26.53-53,53.08c-1.88,1.89-3,2.08-4.81,0a170.54,170.54,0,0,1-25-36.8c-1.5-3-1-4.32,2.1-5.63q34.08-14.42,68-29.12c2.33-1,3.85-1.35,5.12,1.62,1.86,4.37,4.83,8.14,7.69,11.93C194.64,587.8,195.24,588.52,195.71,589.1Z"/><path d="M300.82,595.22c.69.63,1.38,1.21,2,1.84q24.38,24.35,48.8,48.68c1.87,1.85,1.53,2.86-.19,4.41a156.53,156.53,0,0,1-35.66,24.18c-3,1.46-3.73.32-4.74-2.08q-13.26-31.2-26.68-62.34c-.74-1.7-1.4-3,1-4.13a61,61,0,0,0,13.35-9C299.27,596.25,300,595.84,300.82,595.22Z"/><path d="M632.17,548.42c0,12.52-.07,25,0,37.56,0,3.29-.77,5-4.52,4.58a34.12,34.12,0,0,0-8.08,0c-4,.49-4.71-1.28-4.68-4.84.24-25.19.2-50.38.5-75.57.05-4.1-.86-5.6-5.21-5.34-6.48.39-13,0-19.5.14-2.22,0-2.91-.64-3-2.93-.69-12.32-.76-12.35,11.32-12.31,18.87.07,37.73.27,56.59.21,3.49,0,4.62.85,4.57,4.5-.16,10.93,0,10.9-11,10.52-3.8-.13-7.67.37-11.41-.12-4.73-.63-5.59,1.73-5.56,5.57.07,9.51,0,19,0,28.53Z"/><path d="M740.55,541.4c0-15.5.06-31,0-46.51,0-3.37.91-4.66,4.58-4.65,12.36.06,12.38-.09,12.36,12.43,0,22,0,44-.24,66-.05,4.38,1.2,5.71,5.63,5.62,12.35-.24,24.71.15,37.06,0,4-.06,5.68.91,5.56,5.26-.39,13.88,1.63,11.52-11.51,11.58-16.31.07-32.62-.24-48.92-.19-3.67,0-5-1.06-4.94-4.89.2-14.87.08-29.75.08-44.62Z"/><path d="M304.66,418.6c1,.45,1.82.86,2.68,1.25a135,135,0,0,1,32.75,21.55c2.08,1.81,2,2.75.07,4.64q-19.1,18.81-37.93,37.9c-1.84,1.86-3,2-5,.23a50.2,50.2,0,0,0-13.11-8.43c-2.58-1.1-2.63-2.38-1.7-4.66,6.76-16.66,13.39-33.37,20.15-50C303,420.13,302.79,418.3,304.66,418.6Z"/><path d="M254,639.51c0-7.29.09-14.58-.05-21.87-.05-2.6.69-3.51,3.44-3.63a56.61,56.61,0,0,0,16.69-3.44c2.2-.79,3.34-.46,4.31,1.87q8.58,20.56,17.49,41c1.14,2.59.25,3.2-1.91,4a126.63,126.63,0,0,1-36.63,7.41c-3.13.14-3.4-1-3.37-3.43C254.08,654.09,254,646.8,254,639.51Z"/><path d="M200.93,594.63c.77.58,1.53,1.09,2.2,1.69a64.73,64.73,0,0,0,14.93,10c2.26,1.1,2.39,2.12,1.51,4.28q-8.12,19.71-15.91,39.54c-1,2.61-1.76,3.48-4.66,2.1a126.8,126.8,0,0,1-31.11-20.68c-1.29-1.18-2.29-2-.54-3.73,10.71-10.58,21.32-21.25,32-31.89C199.77,595.54,200.28,595.18,200.93,594.63Z"/><path d="M197,491.49c-.66.82-1.21,1.54-1.8,2.24a63.41,63.41,0,0,0-9.14,13.81c-1.08,2.32-2.36,2.36-4.49,1.49q-20.43-8.32-40.95-16.39c-2.19-.86-3-1.52-1.78-4a130.32,130.32,0,0,1,20-30.4c1.72-1.93,2.78-2.36,4.81-.29,10.32,10.5,20.8,20.87,31.21,31.29C195.56,489.87,196.16,490.59,197,491.49Z"/><path d="M152.63,543.6c7.12,0,14.25.1,21.37-.05,2.63,0,3.9.4,4.1,3.47a57.8,57.8,0,0,0,3.21,16.22c.74,2,.21,3.15-1.82,4q-20.53,8.64-41,17.5c-2.07.9-2.72.27-3.38-1.53a130.71,130.71,0,0,1-7.55-37c-.17-2.92,1.47-2.61,3.2-2.61Z"/><path d="M247.35,442.46c0,7.28-.12,14.57.06,21.86.07,2.61-.76,3.61-3.35,3.82a60.32,60.32,0,0,0-16.2,3.47c-2.13.8-2.77-.11-3.46-1.73q-8.84-20.72-17.75-41.39c-.87-2-.81-2.95,1.53-3.8a131.14,131.14,0,0,1,35.67-7.43c2.61-.19,3.63.52,3.56,3.34C247.23,427.88,247.35,435.17,247.35,442.46Z"/><path d="M999.8,586c-13.46-29.6-27-59.17-40.32-88.83-2-4.44-4.55-6.67-9.63-6.67s-7.8,1.94-9.83,6.42c-13,28.59-26.22,57.1-39.36,85.64-4,8.7-4,8.7,5.56,8.7,10.91-.2,7.91,1.53,12.4-7.88a84.06,84.06,0,0,0,3.49-7.76c1.28-3.58,3.35-5,7.37-4.89,11.72.31,23.48.62,35.16-.07,7.58-.44,12.44,1.46,14.1,9.2,2.06,9.63,7.8,13.17,17.6,11.72C1001.83,590.79,1002.15,591.2,999.8,586ZM964,557.09c-4.76-.1-9.51,0-14.27,0v-.16c-5.08,0-10.15,0-15.23,0-2.6,0-3.44-.85-2.23-3.47,5.25-11.33,10.38-22.72,15.59-34.07.37-.81.66-1.94,1.75-2,1.47-.15,1.64,1.17,2.07,2.16,5,11.26,10,22.55,15.06,33.77C968.15,556.46,966.9,557.14,964,557.09Z"/></svg>