<svg id="Camada_1" data-name="Camada 1" xmlns="http://www.w3.org/2000/svg" viewBox="0 0 1080 1080"><path d="M252.51,672.82H827.57V827.5H252.51Zm139,64.16,1.16.41c.05,1.11.15,2.23.15,3.35q0,30.59-.11,61.19c0,1.92.72,2.67,2.65,2.65q8.49-.09,17,0c2.25,0,2.91-.94,2.87-3.13-.16-8.86-.18-17.72-.19-26.58q-.08-39.24,0-78.49c0-2.78-.87-3.47-3.52-3.33-4.26.23-8.55.14-12.81,0-2-.07-3.33.28-4.4,2.23-2.72,4.93-5.77,9.68-8.61,14.55q-13.14,22.44-26.22,44.93c-1.15,2-2.14,2.13-3.37,0-3.46-6-7-11.93-10.54-17.87-8.33-14-16.65-28-25.1-41.91a5,5,0,0,0-3.54-1.89c-4.69-.22-9.4,0-14.09-.13-2.38-.08-3.17.71-3.16,3.1q.11,52.7,0,105.4c0,2.48.91,3.15,3.18,3.11,5.34-.1,10.69-.18,16,0,2.74.09,3.42-.88,3.41-3.5-.09-18.37,0-36.74,0-55.11v-8.13a14.76,14.76,0,0,1,2.36,2.22c7.8,12.94,15.79,25.77,23.21,38.93,2.78,4.93,5.53,8.18,11.73,7.08,1.9-.34,3.27-.37,4.38-2.28,7.14-12.34,14.43-24.59,21.67-36.87C387.53,743.61,389.51,740.29,391.48,737Zm93.14,67.94c3.91-.75,10.38-1.28,16.36-3.27,12.83-4.27,22.77-12.59,30.37-23.79,1.51-2.23,1.39-3.19-1.25-4.1a129.33,129.33,0,0,1-15.17-5.88c-2.56-1.26-3.52-.85-5.16,1.18-8.91,11.05-24,19.34-40.75,12-12.8-5.59-22.92-21.77-21.11-35.61A35.37,35.37,0,0,1,463.28,720c8.91-6.19,18.75-7.84,29.17-4.22A38.78,38.78,0,0,1,510,728.64c1.05,1.31,2,2.25,4,1.36,5.46-2.38,11-4.58,16.58-6.64,2.28-.84,2.19-1.76,1-3.49-6-8.49-13.17-15.55-22.54-20.28-19.86-10-39.41-9.07-58.1,2.54-24,14.9-32.9,44.27-20.86,69.64C440.32,793.41,458.37,803.81,484.62,804.92Zm247.79,0c3.86-.73,10.24-1.21,16.12-3.19,13-4.38,23.16-12.81,30.77-24.28,1.39-2.08.84-2.88-1.35-3.65-5.12-1.78-10.38-3.36-15.15-5.86-2.95-1.54-3.88-.68-5.61,1.44-8.9,10.88-24,18.67-40,11.9-18.7-7.92-27.58-31.73-17.27-49.26,5.94-10.1,14.58-16.56,26.53-17.8,13.3-1.38,23.1,4.86,31.36,14.52a4.29,4.29,0,0,0,3.62,1.25c4.63-1.54,9.15-3.46,13.68-5.28,5.81-2.34,5.87-2.4,2.11-7.46-9.87-13.31-23-21.5-39.39-23.82A56.39,56.39,0,0,0,695.79,704c-21.86,15.83-29.44,43.28-18.44,67.11C687.54,793.12,705.75,803.92,732.41,804.91ZM597.78,759.08h-.12c0-14.31,0-28.61,0-42.91,0-2.49,1.11-3.39,3.54-3.35,8.21.12,16.43.09,24.65.2,2,0,3-.6,2.95-2.73q-.12-7.2,0-14.41c0-2-.71-2.78-2.82-2.77q-39.56.07-79.12,0c-2.14,0-3.09.48-3,2.83q.24,7.05,0,14.09c-.08,2.51,1,3,3.24,3,7.16-.13,14.31-.06,21.46-.06,6.31,0,6.36,0,6.37,6.21q0,41.16-.06,82.31c0,2.3.78,3.1,2.92,3.08,5.76,0,11.53-.11,17.29,0,2.12,0,2.78-.8,2.77-2.85C597.76,787.47,597.78,773.28,597.78,759.08Zm41.61-10.47h0c0,17.51,0,35-.06,52.53,0,2.55.84,3.4,3.32,3.35,5.54-.11,11.1-.08,16.65,0,1.84,0,2.72-.5,2.71-2.53q-.06-53,0-106c0-2.38-.94-2.83-3-2.79-5.23.12-10.48.24-15.7,0-3.16-.16-4,.87-3.94,3.94C639.46,714.23,639.39,731.42,639.39,748.61Z"/><path d="M619.32,291.85a16.37,16.37,0,0,1,16.2,16.28c0,8.69-7.65,16.16-16.44,16.14-8.39,0-16.06-7.73-16.1-16.21A16.5,16.5,0,0,1,619.32,291.85Z"/><path d="M701.8,385.92a16.19,16.19,0,1,1-32.38-.39c.07-8.18,7.91-16,16.1-16C694.08,369.44,701.81,377.24,701.8,385.92Z"/><path d="M517.32,319.17A16.58,16.58,0,0,1,500.89,303c0-8.49,7.62-16.16,16.15-16.21a16.22,16.22,0,0,1,.28,32.43Z"/><path d="M390.78,418.2a16.47,16.47,0,0,1-15.94,16.31c-8.63.07-16.23-7.6-16.27-16.41s7.62-16.3,16.37-16.27C383.47,401.85,390.78,409.41,390.78,418.2Z"/><path d="M667.65,570.19A16.12,16.12,0,0,1,684,554.07a16.3,16.3,0,0,1,15.84,16.31,16.48,16.48,0,0,1-16.72,16.21C674.75,586.46,667.53,578.79,667.65,570.19Z"/><path d="M697.45,594.77c-11,6.7-26.68,4-34.72-6.09-1.59-2-2.88-2.51-5.38-1.62q-20.6,7.4-41.33,14.39c-3.46,1.17-4.45,4.12-5.76,6.83-4.4,9.05-8.73,18.15-13.08,27.23,1.59,0,3.18,0,4.78,0,91.77,0,173.52-37.16,225.54-94.7V252.5H371.44c-33.83,39.77-53.8,88.61-53.8,141.33,0,53.39,20.47,102.78,55.08,142.82,6.64-13.69,13.18-27.09,19.57-40.56a6.35,6.35,0,0,0,0-4.32c-4.36-12.91-9.16-25.68-13.16-38.69-1.55-5-3.61-6.92-9-7.33-11.15-.84-21.09-11.59-22.74-22.76-2.26-15.26,6.19-27.29,18-31.35,10.49-3.6,21.83-1.9,30.21,7.87,10.49,12.23,9.2,29.32-2.84,40.09-1.73,1.55-2,2.88-1.19,5.24,4.17,11.63,8,23.37,12,35.05,1.48,4.34,3.15,8.61,4.47,13a6.77,6.77,0,0,1-.15,4.45c-7.54,16-15.23,31.87-22.89,47.79-.47,1-1,1.92-1.61,3.07a269.32,269.32,0,0,0,33.87,29.22c6.52-13.52,12.95-26.87,19.39-40.2,3.29-6.81,6.69-13.56,9.85-20.43a6.78,6.78,0,0,0,.26-4.53c-4.92-14.74-10-29.42-15-44.16a5.73,5.73,0,0,1,.13-3.88c8.81-18.45,17.74-36.84,26.61-55.26q13.94-28.92,27.8-57.86c4-8.23,8.13-16.39,12-24.68.44-1-.15-3-1-3.84-12.48-13.35-9.87-34.54,5.88-43.92s35.55-.89,40.74,16.44c3.69,12.33-2.38,28-15.31,33.6-4.25,1.82-8.69,2.95-13.37,2.33-2.27-.3-3.38.51-4.38,2.62-9.77,20.48-19.71,40.87-29.54,61.31-8.76,18.23-17.43,36.49-26.17,54.73-2.43,5.08-5.07,10.07-7.4,15.2a6.2,6.2,0,0,0-.25,4.2c4.87,14.42,10,28.78,14.78,43.22a8.5,8.5,0,0,1-.26,5.76c-8.7,18.38-17.58,36.67-26.43,55-2,4.19-4.08,8.38-6.22,12.74a295.24,295.24,0,0,0,37.81,20.82c5.49-11.4,10.86-22.54,16.22-33.69q14.13-29.37,28.25-58.75c8.08-16.78,16.25-33.52,24.32-50.3s16.06-33.59,24.13-50.37,16.12-33.36,24.18-50.05c5.1-10.54,10.13-21.11,15.33-31.61,1.14-2.3.34-3.63-1.13-5.31-11.89-13.69-8-35.64,8.79-44,17.47-8.64,38.57,3.84,39.77,23.28,1.06,17.08-12.21,30.74-27.92,30.15-4.38-.16-6.11,1.17-7.81,4.8C603.22,357.93,594.91,375,586.67,392c-5.64,11.7-11.33,23.38-17,35.09-7.6,15.82-15.14,31.68-22.74,47.5-5.59,11.61-11.25,23.18-16.85,34.79q-12.27,25.47-24.49,51-12,24.89-24,49.76l-1.08,2.23a313,313,0,0,0,41.31,13.4c2.12-4.38,4.2-8.66,6.26-12.94,7.74-16.12,15.77-32.12,23-48.45,2.26-5.09,6.36-5.9,10.41-7.36,12.32-4.45,24.74-8.6,37.06-13a7.92,7.92,0,0,0,4.19-3.44c9.24-18.94,18.29-38,27.42-57s18.3-38,27.45-57c2.72-5.65,5.37-11.34,8.21-16.94a3.52,3.52,0,0,0-.54-4.56c-13.71-15.68-8-39.4,11.66-45.95,16.64-5.55,33,4.95,36,21.88a28.09,28.09,0,0,1-15.78,30.58,24.72,24.72,0,0,1-14.32,2.3c-2.13-.34-3.17.48-4,2.22q-9.27,19.45-18.58,38.89c-5.64,11.71-11.4,23.36-17,35.07q-11.41,23.74-22.72,47.53c-2.43,5.09-4.89,10.17-7.31,15.27-1.72,3.63-5.53,3.78-8.59,4.88-12.51,4.5-25.17,8.6-37.66,13.15a9.44,9.44,0,0,0-4.55,4.47c-7,14.14-13.7,28.39-20.53,42.59-1.78,3.7-3.59,7.39-5.42,11.12a330.44,330.44,0,0,0,44.79,5.83c2.62-5.49,5.09-10.68,7.58-15.85,4-8.34,8.29-16.57,12.06-25,1.33-3,3.56-4.13,6.15-5,15.27-5.37,30.54-10.74,45.88-15.91,2.45-.83,3-2.21,3.14-4.44.63-10.65,5.65-18.54,15.12-23.49a27.54,27.54,0,0,1,37.29,12.33C715.13,571.33,710.54,586.79,697.45,594.77Z"/><path d="M809.09,571.33A299.23,299.23,0,0,1,715.9,624.9,334.73,334.73,0,0,1,602,644.52q-9.06,0-18-.47h-7c.06-.13.12-.27.19-.41A331.6,331.6,0,0,1,488,624.9a299,299,0,0,1-93.19-53.57c-27-23-48.19-49.81-63-79.67a218.18,218.18,0,0,1,0-195.65,241.62,241.62,0,0,1,27.82-43.51H252.43V662.86H827.5V554.13Q818.8,563,809.09,571.33Z"/></svg>