<svg id="Camada_1" data-name="Camada 1" xmlns="http://www.w3.org/2000/svg" viewBox="0 0 1080 1080"><path d="M300.62,695C320.93,590.37,340.78,488.1,361,384.14c43.57,0,86.55-.37,129.52.18,19.37.24,39.12.31,58,4.1,25.1,5,38.52,21.66,37.15,46.76-2.22,40.52-10.42,79.08-51.22,95.75,9.63,11.94,23.78,22.67,27.89,36.4,4.4,14.74,1.33,32.71-1.91,48.57-9.39,45.84-32.56,71.8-72.71,75.63-41,3.91-82.44,2.64-123.7,3.35C343.47,695.24,323,695,300.62,695Zm95.81-62.69c19.36,0,35.83.77,52.2-.21,16.87-1,26.82-19.94,26.32-45.63-.38-18.87-13.35-17.68-26-17.72-10,0-20.17-.93-30,.41-4.47.6-11,5-12,8.89C402.71,595,400.1,612.49,396.43,632.26Zm23.4-121.41c16.91,0,31.36,2,44.84-.74,8.26-1.69,19.13-9.3,21.55-16.65,4.17-12.61,3-27.1,3-40.79,0-1.8-6.58-5-10.2-5.13-15.65-.57-31.33-.25-47.06-.25C427.8,469.17,424.07,488.67,419.83,510.85Z"/><path d="M241.31,384.15c22.35,0,42.94,0,63.53,0,4.67,0,9.33.4,16.24.72-20.09,103.62-40,206.25-60.12,310-23.54,0-45.92.71-68.18-.58-4.59-.26-11.23-7.22-12.73-12.32-11-37.31-20.88-74.94-31.14-112.46A17,17,0,0,0,142,559.18L115.28,693.94h-79c20.08-103.62,39.88-205.8,59.83-308.79h79.55L211.21,519l3.57-.22C223.49,474.58,232.21,430.35,241.31,384.15Z"/><path d="M758.88,481.25c-2.16-31.8-10.42-39.62-37.61-33.26-8.22,1.93-19.39,10.25-20.8,17.31-1.61,8.11,4.59,19.22,10.31,26.85,4.15,5.53,12.91,7.79,19.83,11q16.83,7.86,33.95,15.06c28.91,12.16,54.81,27.34,55.83,63.45,1.16,41.16-12.44,76.47-49.56,97.29-47.49,26.62-98.55,27.53-149,9.95-36.05-12.57-45.05-40.58-32.07-87.77,5.38-.24,11.15-.7,16.93-.73,21.12-.09,42.25,0,63.32,0,.4,29.47,4.2,34.39,26,35.47,22.76,1.12,34.74-7.43,37.59-25.9,2.17-14.1-5.09-22.61-16.18-28.52-18.73-10-37.8-19.34-56.77-28.87C605.64,524.9,594.92,469.86,635.5,423c36.84-42.56,126.55-57.57,175.51-29.37,26.23,15.11,39.74,50.75,29.53,80.23-1.18,3.39-7.49,6.95-11.51,7.07C806,481.59,783,481.25,758.88,481.25Z"/><path d="M919.13,511.06c3.09-15.84,6.31-29.05,8.09-42.45,1.56-11.76,7.19-15.71,18.8-15.14,16.89.83,33.85.22,52.52.22-2.08,11.46-3.58,20.08-5.21,28.67s-3.38,17.25-5.53,28.15h55.92c-3.86,20.13-6.72,37.91-11.09,55.31-.81,3.22-7.52,6.5-11.83,7-14.95,1.77-34.29-2.89-43.86,4.88-8.94,7.24-7,27.37-11.07,41.46-1.28,4.42-6.39,10.45-10.29,10.88-12.83,1.42-25.91.62-38.89.65-5.79,0-11.59,0-19.48,0,1.86-11.19,3.37-20.26,4.89-29.33,1.43-8.56,2.89-17.11,4.71-27.9H850.65c3.65-19.49,6.23-36.82,10.56-53.72,1-3.71,8-8,12.45-8.31C888.25,510.4,903,511.06,919.13,511.06Z"/></svg>