<svg id="Camada_1" data-name="Camada 1" xmlns="http://www.w3.org/2000/svg" viewBox="0 0 1080 1080"><path d="M66.5,451.51c38,0,75.91.1,113.86-.13,4.86,0,5.87,1.39,5.71,5.92-.36,9.83-.07,19.68-.16,29.52,0,1.44.92,3.21-.86,4.36-1.86-2-1.51-4.52-1.53-6.91-.07-8.25-.12-16.49,0-24.74.07-3.91-1.42-5.5-5.38-5.49-34.48,0-69,0-103.44.06-5,0-5.55.65-5.61,5.7-.13,9.87,0,19.73,0,29.59q0,77.15,0,154.27c0,3,.6,6.21-1.57,8.87l-1-.06Z"/><path d="M336.62,522.91c9.73-10.87,20.44-17.71,33.58-20.43a61.13,61.13,0,0,1,28.37.61c15.7,4.15,26.08,16.72,28.42,34.4a97.74,97.74,0,0,1,.94,12.55c.08,32.67,0,65.34.13,98,0,3.75-.87,4.93-4.76,4.85-12.14-.26-24.29-.29-36.42,0-4.23.11-5-1.31-4.95-5.18.17-28.3.09-56.6.09-84.9,0-1.94,0-3.89-.13-5.82-1.13-14.84-10.46-21.11-24.75-16.62-7.7,2.42-13.41,7.58-18.56,13.53-1.49,1.71-1,3.66-1,5.54,0,29.43-.1,58.86.07,88.29,0,3.94-.83,5.25-5,5.16-12.3-.29-24.6-.17-36.91-.06-2.87,0-4.29-.36-4.28-3.85q.18-70.34,0-140.69c0-2.78.86-3.53,3.57-3.5q19.19.19,38.36,0c2.59,0,3.35.78,3.25,3.31C336.49,512.6,336.62,517.1,336.62,522.91Z"/><path d="M67.46,652.53q0-97.08-.08-194.16c0-4.56,1-6,5.82-6q53.21.3,106.41,0c4.13,0,5.66.84,5.53,5.3-.33,11.16-.09,22.33-.09,33.49-21.19.09-42.39.33-63.59.15-4.58,0-6.08.94-5.92,5.76.38,11.63.24,23.28,0,34.92-.06,3.24.94,4,4.07,4,17.81-.14,35.62,0,53.42-.16,3.6,0,4.67.81,4.56,4.5-.29,9.37-.26,18.76,0,28.13.09,3.51-.69,4.67-4.46,4.62-17.48-.22-35,0-52.45-.2-4,0-5.19.94-5.15,5,.19,23.29,0,46.57.19,69.86,0,4-1.06,5.18-5.1,5.09C96.26,652.56,81.86,652.62,67.46,652.53Z"/><path d="M215.38,578.7c0-23.14.09-46.27-.09-69.4,0-3.67.94-4.6,4.57-4.53,12.79.23,25.58.18,38.37,0,2.95,0,3.82.67,3.81,3.73q-.15,70.13,0,140.25c0,3.06-.68,4.15-4,4.1-12.63-.19-25.26-.21-37.89,0-3.74.06-4.92-.87-4.89-4.79C215.48,625,215.38,601.83,215.38,578.7Z"/><path d="M703,362.42l128.45-26.86,157.37-32.93c2.66,2.34,3.23,5.47,3.33,8.78a2.68,2.68,0,0,1-1,1.1C960,330.2,928.9,348.18,897.73,366c-25.13,14.4-50.21,28.88-75.38,43.19-2.05,1.16-4,2.93-6.61,2.7-1.87-2.55-4.3-4.84-3.78-8.45,7.65-5.79,16.47-9.6,24.78-14.24,30.24-16.9,60.68-33.43,91-50.22,16.56-9.17,33.17-18.25,49-26.94-14.88,3.6-30.69,7-46.47,10.64q-59.19,13.56-118.41,27c-33.78,7.73-67.61,15.25-101.37,23.08-1.86.43-3.78,1-5.71.15C703.45,369.56,701.88,366.21,703,362.42Z"/><path d="M803.42,542.47,693.19,391.05c1.48-3.18,3.73-5.37,7.39-5.75,6.33,6.48,11.56,13.87,17.16,20.94C748.43,445,779.12,483.68,810.19,523c-1.74-13.71-3.89-26.73-5.78-39.79q-3.23-22.29-6.54-44.57c-.25-1.71-1-3.51.58-5a10.3,10.3,0,0,1,7-.74c1.93,1.34,2.22,3.52,2.68,5.53q9.9,43,19.72,86.09c.46,2,1.13,4.09.32,6.19-.7,1.31-2,1.51-3.25,1.68-7.48,1.06-14.15,3.73-19.37,9.43A1.84,1.84,0,0,1,803.42,542.47Z"/><path d="M990.82,311.69l1-.05c2.48-1,4,0,4.9,2.31L848.61,538.29c-.71,1.08-1.36,2.19-2,3.29a2.62,2.62,0,0,1-3-1.11c-2.88-3.76-8-4.66-10.81-8.39,1.88-5.09,5.58-9,8.67-13.32q64.95-90.21,129.83-180.47C977.74,329.38,983.73,320.13,990.82,311.69Z"/><path d="M833.3,532.23a36,36,0,0,1,13.27,9.35c10.67,15.74,3.82,31.77-6.5,38.5a26.59,26.59,0,0,1-38.85-33.3c.68-1.46,1.47-2.87,2.2-4.31,6.27-7.86,14.51-11.45,24.48-11.33C830,530.07,831.74,530.65,833.3,532.23Z"/><path d="M212.22,451.62a26.31,26.31,0,0,1,26.43-26.47,26.52,26.52,0,1,1-26.43,26.47Z"/><path d="M700,385.8l-6.8,5.25c-11.85,3.31-20.24,1.1-26-6.83a20.87,20.87,0,0,1,32-26.69c1.43,1.5,2.61,3.25,3.91,4.89,1,3.35,2.1,6.65,2.13,10.19a3,3,0,0,1,.73,2.05,19.51,19.51,0,0,1-4,10.09A4.32,4.32,0,0,1,700,385.8Z"/><path d="M122.16,697.66c-1.79,5.47-3.66,10.92-5.33,16.43-.74,2.44-1.73,3.72-4.66,3.66-2.75,0-4-.9-4.77-3.5-1.61-5.53-3.51-11-5.71-17.76-.86,6.81-1.77,12.21-2.14,17.66-.25,3.62-2.32,3.72-4.92,3.45-3.3-.33-1.55-2.61-1.37-4,1-8.33,2.23-16.64,3.4-24.95.25-1.8-.22-4,2.84-4.11,2.75-.07,4.81,0,5.77,3.41,2,7.25,4.59,14.37,7.22,22.44,2.72-8.15,5.28-15.25,7.44-22.48.9-3,2.62-3.37,5.3-3.41,3.32-.05,3,2.28,3.31,4.22,1.19,8.47,2.3,17,3.41,25.44.19,1.42,1.45,3.56-1.47,3.43-2.07-.1-5.14,1.54-5.58-2.56-.61-5.75-1.39-11.48-2.09-17.22Z"/><path d="M163,755.18c0,7.41-.09,13.5,0,19.59.06,2.56-.94,3.33-3.41,3.33s-2.89-1.19-2.87-3.28c.06-8.4,0-16.79.07-25.19,0-1.57-1.08-4,1.3-4.52,2.56-.53,5.34-.93,7.31,2.08,4.21,6.43,8.7,12.66,13.74,19.93,0-6.67,0-12.23,0-17.8,0-2.11-.79-4.55,3.06-4.52,3.51,0,3.4,2,3.39,4.37,0,8.08,0,16.15-.06,24.22,0,1.59,1,4-1.49,4.48s-4.94.65-6.79-2.17C173,769.1,168.34,762.74,163,755.18Z"/><path d="M587.51,757c0-2.59,0-5.17,0-7.76,0-2.24-.53-4.46,3.19-4.47,3.43,0,3.52,1.71,3.47,4.23-.11,5.5.13,11-.1,16.49-.37,8.89-5.1,13.25-13.91,13.2-9,0-13.59-4.3-13.9-13.18-.21-5.81.06-11.64-.1-17.45-.08-2.69,1.1-3.27,3.48-3.23s3.67.32,3.64,3.12c-.06,6.13-.07,12.29.32,18.41.3,4.87,2.59,6.66,7.18,6.53,4.38-.13,6.42-2.31,6.7-7.16,0-.32,0-.65,0-1C587.5,762.18,587.5,759.6,587.51,757Z"/><path d="M996.72,314c-1.67-.7-2.82-2.48-4.9-2.31-1-3-2-6-3-9,.21-.78.43-1.56.63-2.33,1.89-7.09,7.85-11.13,14.35-9.73a12.11,12.11,0,0,1,9.47,14.12c-1.12,6.69-7,10.74-14.25,9.83A21.55,21.55,0,0,1,996.72,314Z"/><path d="M300.74,761.58c.1,8.92,6.33,13.43,14.57,10.13,2.61-1,3.37-.19,4.42,1.72,1.43,2.62-.75,3-2.22,3.76a12.64,12.64,0,0,1-2.74.93c-2.81.71-7.43.27-2.41,5,1.79,1.7.47,4-1.52,5.29a6.78,6.78,0,0,1-7.33.32c-1.28-.82-.16-2.29,1.48-2.38,3.58-.18,2.77-.37,1.83-3.85-1.4-5.22-5.59-5.4-8.26-8a18.71,18.71,0,0,1-3.09-21.9c3.75-6.83,12.41-10,20.65-7.46,1.39.44,4.2.29,3.46,2.83-.64,2.15-1.63,4.07-5.24,3C306.23,748.47,300.64,753.14,300.74,761.58Z"/><path d="M67.82,700.9c0-4.36.1-8.72,0-13.08-.08-2.51.79-3.43,3.34-3.33,4.35.17,8.73.17,13.08,0,2.58-.1,2.8,1.19,2.86,3.25.06,2.29-1,2.73-3,2.62-1.62-.09-3.24.08-4.85,0-2.75-.2-4.45.12-4.41,3.73s1.45,4.2,4.35,3.86a1.1,1.1,0,0,1,.48,0c2.06.73,5.82-1.86,6,2.47.15,5-4,2.67-6.12,2.64-3.66,0-4.67,1.08-4.67,4.69s1.31,4.52,4.53,4.16c1.76-.19,3.56.06,5.33,0,2.16-.13,2.8.93,2.84,2.9s-.51,3-2.72,2.94c-4.68-.11-9.37-.14-14.06,0-2.45.08-3-1.06-3-3.21C67.88,709.94,67.82,705.42,67.82,700.9Z"/><path d="M103.53,761.29c0-4.37.11-8.74,0-13.1-.1-2.53.8-3.43,3.34-3.34,4.37.16,8.74.11,13.11,0,2,0,2.87.63,2.92,2.77,0,2.32-.77,3.24-3.08,3.06-1.6-.13-3.24.11-4.85-.05-3.08-.3-4.62.34-4.65,4.07,0,3.92,2.13,3.63,4.63,3.54a3.08,3.08,0,0,1,1,0c1.9.62,5.26-1.77,5.32,2.66s-3.21,2.42-5.22,2.89-5.38-1.6-5.64,3c-.22,4.12.77,6.16,5.26,5.45,1.58-.25,3.24,0,4.85,0,2.32-.12,2.59,1.23,2.58,3.08s-.46,2.74-2.44,2.71q-7.27-.09-14.57,0c-2.35,0-2.51-1.41-2.49-3.19C103.56,770.35,103.53,765.82,103.53,761.29Z"/><path d="M474.6,761.26c0-4.36.1-8.72-.05-13.07-.08-2.5.77-3.44,3.32-3.34,4.19.17,8.39.12,12.59,0,2.14,0,3.28.49,3.34,2.92s-1.1,3.05-3.24,2.91c-1.61-.11-3.24.09-4.84-.05-2.81-.23-4.41.21-4.38,3.77,0,3.35,1.23,4.2,4.22,3.87,1.43-.16,2.91.06,4.35,0,2.11-.15,2.33,1.06,2.31,2.71s-.16,2.93-2.26,2.85c-1.13,0-2.26,0-3.39,0-4.94,0-6.3,2-5.1,6.77.47,1.86,1.69,1.64,2.92,1.67q3.39.07,6.78,0c1.94,0,2.91.59,2.95,2.77,0,2.36-.89,3.09-3.13,3-4.35-.11-8.72-.14-13.07,0-2.47.09-3.46-.71-3.37-3.28C474.71,770.29,474.6,765.77,474.6,761.26Z"/><path d="M408.36,761.19c0-4.19.1-8.39,0-12.58-.08-2.54.49-3.91,3.44-3.76,4.19.2,8.4.14,12.6,0,2.45-.07,2.93,1.1,3,3.24,0,2.31-1.18,2.67-3,2.59-1.61-.07-3.24.11-4.84,0-2.94-.28-4.27.46-4.3,3.88,0,3.57,1.64,3.57,4.35,3.88,2.24.25,6.55-2.55,6.43,2.73-.1,4.81-4.14,2.47-6.31,2.52-3.24.08-4.5.81-4.46,4.32,0,3.34.92,4.74,4.36,4.33,1.92-.22,3.88,0,5.81,0,2.3,0,2.53,1.37,2.54,3.19s-.8,2.6-2.61,2.58c-4.68,0-9.37-.1-14.05,0-2.54.07-2.89-1.27-2.86-3.32C408.41,770.23,408.36,765.71,408.36,761.19Z"/><path d="M244.91,769.91c2.56-7.62,5-14.62,7.25-21.65.72-2.22,1.63-3.45,4.33-3.47,3.47,0,3.72,1,2.58,4Q254,761.79,249.29,775c-.86,2.44-2.19,3.11-4.62,3.12s-3.72-.88-4.59-3.23c-3.18-8.61-6.65-17.12-9.84-25.72-.46-1.23-2.49-3.39-.32-4s5.6-1.91,7,2q3.51,10,7.05,20.06C244.14,767.84,244.37,768.44,244.91,769.91Z"/><path d="M200.57,702.26c0-5.63.1-10,0-14.36-.08-2.4.5-3.53,3.2-3.41,4.36.2,8.74.16,13.11,0,2.47-.08,3,1,3,3.2s-1.06,2.78-3,2.65a19.19,19.19,0,0,0-3.39,0c-2.61.31-6.22-1.67-6.14,3.88.08,5.27,3.48,3.33,5.95,3.66a18.82,18.82,0,0,0,2.91,0c1.83-.06,2.05,1.1,2,2.54s.06,2.68-1.87,2.68a25.13,25.13,0,0,1-3.88,0c-4.07-.64-5.26,1-5.1,5,.12,3.06,1,4,3.93,3.72,1.92-.2,3.89.08,5.83-.06,2.4-.19,3,.89,3,3.13s-1,2.87-2.92,2.67a4,4,0,0,0-.49,0c-5.15-.11-12.19,1.78-15-.84C198.19,713.53,201.16,706.42,200.57,702.26Z"/><path d="M462.78,702.09c0-5.43.09-9.8,0-14.16-.07-2.38.52-3.56,3.21-3.44,4.2.19,8.42.14,12.62,0,2.21-.07,3.18.53,3.19,3s-1.05,3.06-3.21,2.9c-1.45-.11-2.91,0-4.37,0-2.44-.05-4.71-.53-4.64,3.47.07,3.61,1.39,4.51,4.58,4.13a37.49,37.49,0,0,1,4.37,0c1.85,0,1.93,1.25,1.94,2.65s-.26,2.57-2.05,2.56a29.54,29.54,0,0,1-3.88,0c-3.76-.53-5.08.81-4.94,4.74.11,3.21,1,4.33,4.17,4,1.92-.21,3.89,0,5.82,0,2.21-.09,2.67,1.09,2.74,3,.07,2.14-.8,3-2.85,2.78H479c-5.15-.11-12.1,1.76-15-.85C460.34,713.53,463.38,706.43,462.78,702.09Z"/><path d="M401.39,718.38a15.8,15.8,0,0,1-7.05-1.56c-1.19-.61-3.67-.6-2.34-3.15,1-1.87,1.78-4,4.65-2.13a9.3,9.3,0,0,0,4.18,1c2.41.18,4.72-.42,5.45-3s-1.48-3.63-3.34-4.62c-2.14-1.15-4.4-2.08-6.45-3.37a9.1,9.1,0,0,1-4.21-10.5c1-4,4-6.07,8-6.79a16.45,16.45,0,0,1,8.59.77c1.21.43,3.83.31,2.75,2.86-.74,1.74-1.34,4.39-4.43,2.65a8.46,8.46,0,0,0-2.79-.79c-2.21-.34-4.43-.14-5.35,2.19-1,2.54.85,3.84,2.85,4.83,1.45.71,2.94,1.36,4.38,2.09,5.76,2.93,8,7,6.74,11.91S407.51,718.38,401.39,718.38Z"/><path d="M508.8,778.69a13.91,13.91,0,0,1-6.77-1.5c-1.28-.62-3.45-1-2-3.33,1-1.61,1.68-3.71,4.32-2a7.44,7.44,0,0,0,3.2,1c2.63.27,5.6.42,6.61-2.63s-1.83-4-3.92-5.19a59.85,59.85,0,0,1-6.74-3.79c-3.33-2.47-4.29-6.07-3.25-10s3.85-6,7.66-6.52c3.21-.48,6.49-.53,9.53.91,1.12.53,3.28.64,2,2.86-.88,1.57-1.2,3.7-4.17,2.6s-7-2.61-8.31,1.57,3.25,4.36,5.72,5.82c.42.24.86.45,1.29.67,5.73,2.89,8.15,7,7,11.83S515.51,778.76,508.8,778.69Z"/><path d="M629.28,744.55a11.9,11.9,0,0,1,5.66,1.06c1.09.6,3.33.57,2.2,2.78-.79,1.56-1.08,3.85-4.07,2.77s-7-2.64-8.4,1.41,3.1,4.44,5.57,5.89a43.43,43.43,0,0,1,5,2.92A9.41,9.41,0,0,1,633,777.61a16.49,16.49,0,0,1-13.65-.58c-1.23-.58-3-1-1.71-3,1-1.5,1.51-3.92,4.24-2.15a6.47,6.47,0,0,0,2.72.95c2.75.29,6,.8,7.15-2.45s-2-4.22-4.17-5.44c-1-.55-2-1-3-1.52-5.62-2.92-8-7.15-6.71-12C619,746.86,623.15,744.38,629.28,744.55Z"/><path d="M237.84,684a57.08,57.08,0,0,1,5.69,1.32c1.17.38,3.28.65,2,2.82-.88,1.44-1.11,4.17-4,2.54a9.89,9.89,0,0,0-2.32-.69c-2.53-.65-5.13-.64-6.2,2.09s1.39,3.91,3.4,5c2.28,1.2,4.69,2.18,6.84,3.58,3.29,2.13,4.51,5.41,4,9.23s-2.9,6.37-6.55,7.64a17,17,0,0,1-13.17-1c-1.48-.69-2.59-1.56-1.28-3.25.87-1.12,1.17-3.35,3.54-2.09a9.78,9.78,0,0,0,7.46,1.19c1.61-.45,3-1.34,3.22-3.2a3.37,3.37,0,0,0-2.15-3.47c-2.13-1.13-4.35-2.11-6.45-3.31-4.8-2.74-6.87-7.22-5.52-11.65C227.53,686.57,231.73,683.91,237.84,684Z"/><path d="M436.72,701.25c0-4.2,0-8.4,0-12.59-.05-2.4-.19-4.2,3.36-4.26,3.8-.08,3.67,1.87,3.63,4.47-.07,6.3.18,12.6-.1,18.89-.15,3.52,1.16,4.58,4.43,4.21,1.75-.2,3.55,0,5.33-.05,2.07-.12,2.85.72,2.84,2.81s-.49,3-2.69,2.93q-7-.17-14.06,0c-2.16.06-2.8-.82-2.75-2.85C436.79,710.29,436.72,705.77,436.72,701.25Z"/><path d="M490,701c0-4.51.14-9,0-13.52-.12-2.88,1.45-3,3.61-3,2.32,0,3.51.4,3.47,3.13q-.22,13.51,0,27c.05,2.89-1.44,3-3.6,3-2.32.05-3.59-.42-3.49-3.15C490.11,710,490,705.52,490,701Z"/><path d="M147.39,761.68c0,4.37-.11,8.74,0,13.1.1,2.57-.91,3.31-3.38,3.33-2.64,0-3.74-.65-3.68-3.52q.24-13.1,0-26.2c-.05-2.79.9-3.55,3.61-3.58,3,0,3.54,1.2,3.46,3.77C147.29,753,147.4,757.31,147.39,761.68Z"/><path d="M420.24,701c0-4.51.15-9-.05-13.52-.14-2.9,1.39-3,3.56-3s3.51.38,3.47,3.12q-.23,13.53,0,27.06c0,2.88-1.42,3-3.59,3s-3.56-.4-3.44-3.13C420.39,710.05,420.24,705.53,420.24,701Z"/><path d="M609.88,761.27c0,4.51-.17,9,.06,13.51.15,3.05-1.41,3.26-3.82,3.33-2.63.07-3.23-1-3.2-3.42q.15-13.26,0-26.53c0-2.5.75-3.35,3.3-3.34s3.87.49,3.73,3.43C609.72,752.58,609.88,756.93,609.88,761.27Z"/><path d="M336.5,735.68c2.66.18,5.41,2.43,8.57.76.32-.17,1.59.95,2.08,1.7.68,1.06-.34,1.77-1,2.4-1.84,1.72-4,1.77-6.33,1.17-1.23-.32-2.59-1.17-3.65-.88-2.22.59-4.79,1-5-1.61C331.06,736.79,333.85,736,336.5,735.68Z"/><path d="M748.64,531.91c-16.95-37.41-67.87-39.28-88.91-14.29-.47.56-1.06,1-2.28,2.18,0-4.35-.23-7.86.07-11.32.27-3.14-.95-3.72-3.83-3.69q-18.71.22-37.4,0c-2.88,0-3.85.58-3.85,3.7q.15,102.62,0,205.24c0,3,.77,3.84,3.79,3.8,12.3-.17,24.61-.25,36.91,0,4.12.09,5.42-.73,5.37-5.18-.28-21.49-.13-43-.13-64.64a5.16,5.16,0,0,1,1.15,0c34.54,19,74.76,6.45,90.43-29.32C762.56,589.7,761.51,560.29,748.64,531.91Zm-43.72,73.27c-7.63,17.7-31.28,22.17-45.09,8.74-1.56-1.52-1.43-3.1-1.43-4.83q0-13.82,0-27.62c0-9.21,0-18.42,0-27.63,0-1.82.15-3.45,1.47-4.91,7.53-8.32,16.59-12.78,28-11,7.63,1.18,12.77,5.82,16.24,12.49,3.73,7.18,4.84,15,5.26,22.93C709.93,584.23,709.3,595,704.92,605.18Z"/><path d="M590.13,571.27c-.8-16.51-3.61-32.5-13.48-46.33-11.08-15.54-27.06-21.63-45.4-23.54C498.93,498,468.06,515,455.46,543.56c-7,15.83-8.44,32.46-5.95,49.42,4.08,27.77,18.19,47.93,45.12,58a81,81,0,0,0,22.2,4.88c22.64,1.76,44.58-.47,64.9-11.79,2.61-1.45,3-2.54,1.63-5.12q-5.61-10.72-10.74-21.7c-1.34-2.87-2.41-3.7-5.61-2-10.5,5.57-21.93,7.63-33.72,7.71-19.5.13-30.9-9-34.9-27.52-.8-3.69.21-4.31,3.64-4.27,13.76.16,27.53.07,41.3.07,14.09,0,28.18-.07,42.27.06,2.75,0,3.95-.45,4.12-3.58A159,159,0,0,0,590.13,571.27Zm-53.62-10.18H521c-7,0-13.91-.11-20.87.06-2.72.06-3.39-.75-2.73-3.34,1.15-4.55,2.39-9,4.82-13.11,5.16-8.63,14.26-12.44,25.56-10.75,8.4,1.25,14.18,7.09,16.59,16.76C547,561.09,547,561.09,536.51,561.09Z"/><path d="M783.23,407c9.22-10.4,18.14-11.28,28.85-2.85a30.65,30.65,0,0,1,4,7.34c1.87,10.12-1.11,16.22-10.63,21.78l-7,1.31c-5.88,1.21-12.2-1.86-15.79-7.76a20.11,20.11,0,0,1-2.94-13.92C780.46,410.66,780.51,408,783.23,407Z"/><path d="M780.81,412.94l-76.28-27.78c-1.06-.39-2.13-.74-3.2-1.11,1.79-2.85,2.68-6.07,3.74-9.22L783.23,407C782.42,409,781.62,411,780.81,412.94Z"/><path d="M556.43,781.2c-2.92,1-5.71.42-8.13-2.79,1.47-.74,2.64-1.25,3.73-1.89,6.77-3.95,9.78-12.67,7.2-20.77-2.51-7.91-9.38-12-18.68-11.12a16,16,0,0,0-14.38,14.09c-1.1,9.08,2.81,16.17,10.81,18.84a11.9,11.9,0,0,1,5.35,3.86,14.8,14.8,0,0,0,15.33,4.84c1.26-.29,3.17-.68,2.15-2.83C559.18,782.1,558.94,780.31,556.43,781.2ZM543.09,773c-5.84,0-9.67-4.42-9.8-11.37S537,750.28,543,750.21s9.56,4.07,9.58,11.32S549.14,772.93,543.09,773Z"/><path d="M374.94,744.53c-10.2,0-17,6.84-17,17.07s7,17.06,17.08,17.1,17-7,17-17.17S385.14,744.52,374.94,744.53ZM374.85,773c-5.84-.07-9.72-4.78-9.59-11.66s3.73-11,9.62-11.08c6.1-.1,9.62,4.06,9.63,11.37S381,773,374.85,773Z"/><path d="M83.37,745.51c-3.7-.68-7.42-.42-11.13-.67-3.29-.22-4.72.77-4.48,4.29.26,4,.06,8.08.06,12.13v3.88c0,14.39.6,14.89,15.13,12.55,8.6-1.39,13.85-7.67,13.85-16.57S92.23,747.11,83.37,745.51Zm-5.43,27.14c-2,0-2.94-.61-2.9-2.75.08-5.49.07-11,0-16.46,0-2,.51-2.81,2.71-2.92,7.27-.37,11.82,3.7,11.83,10.87S85.1,772.78,77.94,772.65Z"/><path d="M209.93,744.53c-10.32-.16-17.64,6.89-17.68,17.05A16.63,16.63,0,0,0,209,778.69c10.22.21,17.6-7,17.64-17.13C226.64,751.71,219.77,744.69,209.93,744.53ZM209.35,773c-5.9-.05-9.63-4.51-9.62-11.5s3.78-11.25,9.85-11.24,9.54,4.32,9.51,11.47S215.42,773,209.35,773Z"/><path d="M522.56,703.25c6.12-3.36,7.8-6.44,6.59-11.69-.94-4.12-4.64-6.65-10.46-7-2.9-.15-5.82.11-8.72-.11s-4,.64-3.93,3.72q.29,12.82,0,25.67c-.06,3,.9,3.87,3.87,3.85s3.69-1.08,3.47-3.72a44,44,0,0,1,0-6.29c.08-1.15-.78-2.91.93-3.3,1.37-.32,2.17,1.18,2.89,2.21a41.12,41.12,0,0,1,4,6.08c2.11,4.52,5.34,6,10.59,4.37Zm-6-4.12c-3.63.29-3.44-1.9-3.17-4.34.07-2.19-1-5.12,3.2-4.74,2.9.25,5.69.46,5.78,4.28C522.5,698.32,519.79,698.88,516.58,699.13Z"/><path d="M314.93,700.51c3.91-2.39,6-5.44,4.71-9.86-1.36-4.74-5.33-5.72-9.52-6-2.9-.21-5.84.09-8.74-.14s-4,.71-3.9,3.76c.22,5.65.07,11.32.07,17,0,13.34,0,13.34,13.59,12.32,5.56-.42,9.23-2.92,10-6.91C322,705.63,319.81,702.33,314.93,700.51Zm-7.32-10.43c3.1,0,5.59.77,5.37,4.22s-2.78,3.74-5.59,3.91c-3.95.23-2.72-2.55-2.94-4.54C304.18,691.15,304.83,689.51,307.61,690.08Zm.44,22.4c-3.25.45-4-1.26-3.58-4,.34-2.15-1.58-5.69,4.25-5.35,2,.16,5.37.44,5.45,4.63C314.25,711.77,311,712.07,308.05,712.48Z"/><path d="M344.26,703.28c5.92-3.35,7.89-6.68,6.78-11.39s-5-7.17-11.74-7.33c-2.58-.06-5.18.13-7.76-.06s-3.73.51-3.67,3.42c.18,8.72.16,17.46,0,26.18-.05,2.68.69,3.63,3.49,3.62s3.75-.88,3.53-3.61a67.8,67.8,0,0,1,0-7.27c0-.9-.4-2.13.82-2.49,1-.32,1.83.54,2.39,1.31,1.78,2.5,3.84,4.88,5.12,7.62,2.15,4.6,5.48,5,10.29,3.85Zm-6.17-4.12c-4.1.29-3.16-2.46-3.23-5.13-.28-2.21-.16-4.34,3.56-4,3.16.27,6,.81,5.82,4.68S341.25,698.93,338.09,699.16Z"/><path d="M185.51,703.29c6.15-3.51,7.76-6.28,6.6-11.4-1.05-4.62-4.75-7.09-11.18-7.32-2.91-.1-5.83,0-8.74-.05-2-.07-3,.45-3,2.68.08,9.22.12,18.44,0,27.66,0,3.12,1.88,2.7,3.84,2.79,2.13.11,3.21-.4,3.26-2.9.07-3.45-1-9.77.63-9.84,4.33-.19,5.53,5.12,7.41,8.42,2.47,4.34,5.58,5,10.37,3.79Zm-6.27-4.17c-4.76.22-2.59-3.3-3-5.35-.53-2.85.63-4.28,3.44-3.68,3.32,0,5.73.87,5.59,4.55C185.14,698.59,182.36,699,179.24,699.12Z"/><path d="M280.83,713.79c-3.34-8.88-6.89-17.68-10.29-26.54-.72-1.85-1.61-3-3.83-2.73-1.79.26-3.85-.63-4.83,2-3.8,10.23-7.74,20.4-11.68,30.74,4,.72,7.54,1.3,8.44-3.8.14-.76.46-1.71,1.41-1.74,3.71-.09,7.43-.23,11.12,0,2.59.14,2.08,2.89,3.05,4.42,1.86,2.92,4.8,1.73,6.94,1.22S281.23,714.86,280.83,713.79Zm-11.58-8c-8.06.38-8.1.37-5.44-7.13.58-1.62.63-3.5,2.38-5.2l4,11.75C269.75,705.51,269.51,705.79,269.25,705.8Z"/><path d="M376.2,686.55c-.87-2.29-2.55-2-4.3-2s-3.35,0-4.19,2.23c-3.72,10.1-7.63,20.12-11.57,30.43,4.47,1.06,7.66.81,8.53-4,.31-1.71,1.74-1.62,3-1.62,2.74,0,5.48,0,8.22,0,1.37,0,2.84.07,3.1,1.62,1,5.75,5,4.55,9.16,4.14C384.11,706.89,380.08,696.75,376.2,686.55Zm-6.4,11.83c.51-1.5,1.07-3,2-5.64,1.7,4.92,3,8.82,4.42,12.8C367,706.43,367,706.43,369.8,698.38Z"/><path d="M565.59,715c-3.7-9.47-7.5-18.91-11.1-28.42-.89-2.33-2.57-2.09-4.32-2.06-1.54,0-3.16-.41-4,1.75-3.82,10.25-7.77,20.46-11.78,31,4,.6,7.44,1.45,8.35-3.53.12-.7.82-1.81,1.3-1.84a100.16,100.16,0,0,1,11.62-.12c2.23.14,1.85,2.7,2.63,4.18,1.56,3,4.28,1.46,6.48,1.55C566.68,717.57,566,716,565.59,715Zm-19.91-9.62L550,692.73c.89,2.41,1.51,4,2.09,5.68C555,706.75,555,706.75,545.68,705.41Z"/><path d="M354.35,774.27c-3.63-8.78-7.06-17.65-10.41-26.55-.83-2.21-2.06-3-4.32-2.85-1.73.15-3.44-.28-4.31,2.06-3.53,9.52-7.24,19-10.86,28.46-.41,1.06-.91,2.4.89,2.53,2.46.19,5.44,1.07,6.16-2.68.53-2.8,2.13-3.67,4.82-3.37a23.17,23.17,0,0,0,5.33,0c3-.36,5,.42,5.59,3.64.44,2.66,2.4,2.65,4.53,2.5C354.88,778.44,355.68,777.46,354.35,774.27Zm-12.85-8.06h-6.8l4.48-13c1.5,4.11,2.78,7.55,4,11C343.75,765.82,342.86,766.22,341.5,766.21Z"/><path d="M672.91,775.37c-3.65-9.47-7.43-18.9-11-28.38-.86-2.24-2.5-2.09-4.3-2.11s-3.35.08-4.17,2.31c-3.73,10.09-7.64,20.13-11.56,30.37,4.13,1,7.47,1.24,8.43-3.75.15-.74.42-1.74,1.38-1.76,3.71-.1,7.44-.26,11.13,0,2.57.14,2.08,2.9,3,4.44,1.7,2.81,4.34,1.45,6.54,1.43C674.36,777.86,673.23,776.2,672.91,775.37Zm-17.53-16.26c.52-1.5,1.06-3,2.08-5.93l4.38,12.54C652.63,767.07,652.63,767.07,655.38,759.11Z"/><path d="M278.75,746.55c-1.1-2.66-6.86-2.45-7.92.25-4,10.16-7.81,20.4-11.74,30.76,4.17,1,7.5,1.15,8.4-3.8.31-1.67,1.48-1.87,2.88-1.86,2.91,0,5.82.07,8.72,0,1.49,0,2.66.42,2.91,1.9,1,5.57,4.85,4.35,9.06,3.92C286.9,767.12,283,756.78,278.75,746.55Zm-.4,19.16c-1.72,1-4.37.48-6.61.4-1.44-.06-1.22-1.24-.89-2.16,1.15-3.31,2.36-6.6,3.89-10.84,1.14,3.32,2,5.58,2.69,7.89C277.91,762.6,279.73,764.92,278.35,765.71Z"/><path d="M459.42,745.47c-4.16-1-8.36-.37-12.53-.57-2.5-.12-2.37,1.55-2.37,3.21,0,4.52,0,9,0,13.54,0,4.35.11,8.71,0,13.05-.08,2.44.63,3.47,3.24,3.41,2.43-.06,4.14-.31,3.78-3.35-.17-1.43.1-2.92-.05-4.35-.34-3,.49-4.62,3.89-4.24a12.86,12.86,0,0,0,4.31-.39c5.45-1.28,8.34-4.93,8.34-10.32S465.16,746.82,459.42,745.47Zm-4.73,15.65c-5.1.35-2.55-3.56-3.26-5.45.23-2.52-1.11-5.66,3.42-5.29,3.44.28,6.09,1.18,6.15,5.14C461.08,759.71,458.29,760.87,454.69,761.12Z"/><path d="M153,684.78a50.68,50.68,0,0,0-5.79-.31v.07a15.57,15.57,0,0,1-2.9,0c-4.47-.83-5.37,1.23-5.21,5.32.31,8,.17,16.11,0,24.17,0,2.58.51,3.78,3.44,3.72,2.58-.06,3.9-.54,3.65-3.46-.21-2.39-.72-5.19.24-7.15,1.28-2.63,4.61-.89,7-1.48,6-1.5,9.28-5.06,9.23-10.7C162.64,689.44,159.22,685.77,153,684.78Zm-3.87,15.92c-5,.32-2-3.66-3.08-5,.49-2.63-1.27-6,3.4-5.65,3.49.24,6.17,1.2,6.19,5.17C155.67,699.44,152.68,700.48,149.13,700.7Z"/></svg>