<svg id="Camada_1" data-name="Camada 1" xmlns="http://www.w3.org/2000/svg" viewBox="150 0 1620 289.76"><defs><style>
@font-face {
	font-family: FuturaExtraBold;
	src: url(../../assets/Futura/FuturaPTExtraBold.otf);
}
.cls-1{font-size:40.11px;font-family:FuturaExtraBold, Futura PT;font-weight:800;}.cls-1,.cls-2{fill:none;stroke:#000;stroke-miterlimit:10;}</style></defs><text class="cls-1" transform="translate(157.47 75.33)">APOIO</text><path d="M981.1,167.48c0,5.09,0,10.18,0,15.27,0,1.16-.36,1.43-1.52,1.59-3.08.42-4.8-.76-6.35-3.48-3.86-6.76-8.12-13.28-12.24-19.88-.24-.39-.32-1.21-1-.95-.53.2-.27.86-.27,1.3,0,7-.08,14,0,21,0,1.42-.33,2-1.86,1.94-3.59-.09-3.59,0-3.59-3.65,0-9.44.07-18.88,0-28.32,0-1.54.57-1.67,1.92-1.87,3.52-.52,5.5.85,7.23,3.95,3.36,6,7.21,11.72,10.88,17.55.28.45.41,1.35,1.1,1.11s.28-1,.28-1.57c.06-6.41.11-12.82.09-19.24,0-1.32.39-1.73,1.72-1.71,3.73.06,3.73,0,3.73,3.76v13.2Z"/><path d="M894.74,169c0-8.93,4.56-15.88,11.62-18.77a18.56,18.56,0,0,1,20,4c1,1,1.07,1.72.06,2.77-2.54,2.66-2.5,2.7-5.42.43a12.23,12.23,0,0,0-16.35,1.09,13,13,0,0,0-1.32,17.1,12.26,12.26,0,0,0,19,1.37c1.31-1.32,1.55-1.32,2.79,0l.44.46c2.47,2.59,2.48,2.76-.29,5-6.14,4.93-12.94,5.75-19.95,2.42A17.81,17.81,0,0,1,894.74,169Z"/><path d="M1060.09,167.74c0-5,0-10.08,0-15.11,0-1.42.45-1.82,1.83-1.79,3.83.06,3.83,0,3.83,3.87,0,2.7,0,5.41,0,8.11,0,1.25.25,1.82,1.64,1.8,3.71-.07,7.43-.05,11.14,0,1.1,0,1.34-.46,1.33-1.44,0-3.55.07-7.1,0-10.65,0-1.27.39-1.65,1.65-1.64,4,0,4,0,4,4.05,0,9.28-.09,18.56-.07,27.83,0,1.49-.46,1.9-1.92,1.87-3.69-.1-3.69,0-3.69-3.66,0-3.4,0-6.79,0-10.18,0-1.2-.4-1.57-1.57-1.55-3.71.06-7.43.06-11.14,0-1.18,0-1.41.45-1.4,1.5,0,4.08-.08,8.16-.06,12.24,0,1.13-.3,1.59-1.53,1.59-4.07,0-4.07,0-4.07-4V167.74Z"/><path d="M872.49,126.68c0-5.09,0-10.18,0-15.26,0-1.07.31-1.36,1.34-1.3a60.79,60.79,0,0,1,17.09,3.33c.88.32,1,.66.64,1.47q-5.82,14.34-11.58,28.69c-.28.7-.54,1-1.39.7a15.73,15.73,0,0,0-4.66-.91c-1.15,0-1.47-.46-1.45-1.62C872.53,136.75,872.49,131.71,872.49,126.68Z"/><path d="M830.36,166.41c-5,0-10.08,0-15.12,0-1.12,0-1.44-.28-1.38-1.41a60.71,60.71,0,0,1,3.3-16.77c.31-.87.63-1,1.49-.67q14.36,5.79,28.76,11.52c.75.29,1,.63.71,1.41a16.51,16.51,0,0,0-1,4.66c-.06,1-.55,1.26-1.52,1.25C840.55,166.39,835.46,166.41,830.36,166.41Z"/><path d="M870.26,208.64c0,4.77,0,9.54,0,14.3,0,1.36-.18,1.91-1.77,1.81a63.2,63.2,0,0,1-16-3.13c-1.16-.38-1.16-.82-.77-1.79Q857.37,206,862.91,192c.34-.84.63-1.1,1.59-.79a14.16,14.16,0,0,0,4.18.86c1.54,0,1.62.71,1.61,1.92C870.23,198.9,870.26,203.77,870.26,208.64Z"/><path d="M929.92,167.42c0-5.09,0-10.18,0-15.26,0-1.36.47-1.71,1.77-1.69q8.91.12,17.83.05c1.27,0,1.66.42,1.63,1.66-.09,3.21.38,3-3,3-3.82,0-7.64,0-11.46,0-1,0-1.32.43-1.32,1.3,0,2.12,0,4.24,0,6.36,0,1.2.49,1.54,1.63,1.52,4,0,8.06,0,12.09,0,1.44,0,2,.49,1.79,1.85a4.58,4.58,0,0,0,0,1.11c.14,1.26-.43,1.68-1.66,1.65-3.87-.08-7.74-.07-11.61-.14-2.13,0-2.19,0-2.23,2.19s0,4.34-.14,6.51c-.08,1.44.49,1.81,1.85,1.79,4.09-.06,8.17.05,12.26,0,1.31,0,1.79.42,1.76,1.75-.08,3.61.31,3.27-3.24,3.26-5.46,0-10.93-.1-16.39-.07-1.35,0-1.72-.51-1.7-1.79,0-5,0-10,0-15Z"/><path d="M1011,167.58c0-5,0-10,0-15,0-1.42.36-2,1.88-2,6,.11,12,.13,18,.12,1.1,0,1.49.34,1.47,1.46-.09,3.64.33,3.1-3,3.12-3.71,0-7.43,0-11.14,0-1.24,0-1.72.36-1.67,1.63.08,2,.07,4,0,6,0,1.19.41,1.57,1.58,1.55,4.09,0,8.17,0,12.26,0,1.37,0,1.73.47,1.69,1.75-.09,3.18.28,2.78-2.84,2.78-3.66,0-7.32,0-11-.06-1.28,0-1.86.33-1.82,1.69.06,2.43,0,4.87,0,7.31,0,1.11.41,1.49,1.5,1.48,4.19,0,8.39.08,12.58,0,1.44,0,1.81.49,1.78,1.84-.09,3.54.3,3.13-3.19,3.12-5.52,0-11-.11-16.55-.07-1.32,0-1.61-.47-1.59-1.68,0-5,0-10.07,0-15.11Z"/><path d="M848.85,118.3c.48,0,.52.44.65.74Q855,132,860.57,144.85c.26.61.18.93-.44,1.23a20.09,20.09,0,0,0-4.46,3c-.56.49-.85.33-1.29-.11q-9.93-9.94-19.9-19.88c-.46-.46-.57-.74,0-1.25a55.15,55.15,0,0,1,13.9-9.37C848.52,118.41,848.67,118.37,848.85,118.3Z"/><path d="M853,183.87c0,.52-.34.71-.59,1q-8.88,8.88-17.75,17.77c-.63.63-1,.69-1.61,0a57.18,57.18,0,0,1-8.35-12.31c-.5-1-.33-1.45.71-1.89,7.6-3.21,15.18-6.48,22.76-9.74.78-.34,1.29-.45,1.72.54a19.39,19.39,0,0,0,2.57,4Z"/><path d="M888.16,185.91c.23.22.46.41.67.62,5.44,5.43,10.87,10.88,16.33,16.29.63.62.52,1-.06,1.48a52.27,52.27,0,0,1-11.93,8.09c-1,.49-1.25.11-1.59-.69q-4.44-10.45-8.93-20.87c-.25-.57-.47-1,.32-1.38a20.43,20.43,0,0,0,4.47-3C887.64,186.26,887.86,186.12,888.16,185.91Z"/><path d="M999.05,170.25c0,4.19,0,8.38,0,12.57,0,1.11-.26,1.69-1.52,1.54a11.09,11.09,0,0,0-2.7,0c-1.33.16-1.58-.43-1.57-1.62.08-8.43.07-16.87.17-25.29,0-1.38-.29-1.88-1.74-1.79-2.17.13-4.35,0-6.53,0-.74,0-1-.21-1-1-.23-4.12-.25-4.13,3.79-4.12,6.31,0,12.63.09,18.94.07,1.17,0,1.55.29,1.53,1.51,0,3.66,0,3.65-3.7,3.52-1.27,0-2.56.12-3.81,0-1.59-.21-1.87.58-1.86,1.86,0,3.19,0,6.37,0,9.55Z"/><path d="M1035.32,167.9c0-5.19,0-10.38,0-15.57,0-1.12.3-1.55,1.53-1.55,4.14,0,4.14,0,4.14,4.16,0,7.36,0,14.72-.08,22.08,0,1.47.4,1.92,1.88,1.89,4.13-.08,8.27.05,12.4,0,1.35,0,1.91.31,1.87,1.76-.14,4.64.54,3.86-3.86,3.88-5.46,0-10.91-.09-16.37-.07-1.23,0-1.67-.35-1.65-1.63.06-5,0-10,0-14.94Z"/><path d="M889.44,126.8l.9.42a45.6,45.6,0,0,1,11,7.21c.69.61.66.93,0,1.56q-6.39,6.3-12.69,12.68c-.62.62-1,.66-1.67.08a16.54,16.54,0,0,0-4.39-2.82c-.86-.37-.88-.8-.57-1.56,2.26-5.58,4.48-11.17,6.75-16.75C888.87,127.32,888.81,126.7,889.44,126.8Z"/><path d="M872.49,200.74c0-2.44,0-4.88,0-7.32,0-.87.22-1.17,1.15-1.22a18.75,18.75,0,0,0,5.58-1.15c.74-.26,1.12-.15,1.44.63,1.92,4.59,3.86,9.17,5.86,13.72.38.87.08,1.07-.64,1.33a42.78,42.78,0,0,1-12.26,2.48c-1.05,0-1.14-.34-1.13-1.15C872.51,205.62,872.49,203.18,872.49,200.74Z"/><path d="M854.72,185.72c.26.19.51.36.74.56a21.28,21.28,0,0,0,5,3.36c.75.37.8.71.5,1.44q-2.72,6.58-5.32,13.23c-.34.87-.59,1.16-1.56.7a42.24,42.24,0,0,1-10.41-6.92c-.44-.39-.77-.67-.18-1.25,3.58-3.54,7.13-7.11,10.7-10.67A5.54,5.54,0,0,1,854.72,185.72Z"/><path d="M853.4,151.2c-.22.27-.4.51-.6.75a21.55,21.55,0,0,0-3.06,4.62c-.36.78-.79.79-1.5.5q-6.84-2.79-13.7-5.49c-.74-.28-1-.5-.6-1.34a43.37,43.37,0,0,1,6.71-10.18c.58-.64.93-.79,1.61-.09,3.45,3.51,7,7,10.45,10.47C852.93,150.66,853.13,150.9,853.4,151.2Z"/><path d="M838.56,168.64c2.38,0,4.77,0,7.15,0,.88,0,1.31.13,1.37,1.16a19.39,19.39,0,0,0,1.08,5.43c.25.69.07,1.06-.61,1.34q-6.87,2.89-13.72,5.86c-.69.3-.91.09-1.13-.51a43.7,43.7,0,0,1-2.52-12.39c-.06-1,.49-.87,1.07-.87Z"/><path d="M870.26,134.79c0,2.44,0,4.88,0,7.31,0,.88-.26,1.22-1.12,1.29a19.73,19.73,0,0,0-5.42,1.16c-.72.26-.93,0-1.16-.59q-3-6.93-5.94-13.85c-.29-.66-.27-1,.51-1.27a43.88,43.88,0,0,1,11.94-2.49c.87-.06,1.21.18,1.19,1.12C870.22,129.91,870.26,132.35,870.26,134.79Z"/><path d="M1122.09,182.84c-4.5-9.91-9-19.8-13.49-29.73a3.52,3.52,0,0,0-6.52-.08c-4.35,9.57-8.77,19.11-13.17,28.66-1.34,2.91-1.34,2.91,1.86,2.91,3.65-.07,2.65.51,4.15-2.64a26.43,26.43,0,0,0,1.17-2.6,2.19,2.19,0,0,1,2.47-1.63c3.92.1,7.85.21,11.76,0,2.54-.15,4.17.49,4.72,3.07.69,3.23,2.61,4.41,5.89,3.93C1122.77,184.43,1122.88,184.57,1122.09,182.84Zm-12-9.69c-1.59,0-3.18,0-4.77,0v0h-5.1c-.87,0-1.15-.28-.75-1.16,1.76-3.79,3.48-7.6,5.22-11.4.13-.27.22-.65.59-.69s.54.39.69.72c1.67,3.78,3.33,7.55,5,11.31C1111.5,172.94,1111.08,173.17,1110.09,173.15Z"/><path d="M608,115.56l1.13-1.7a2.12,2.12,0,0,1,1.15-1.15l.75-.56c.17-.3.49-.3.77-.39.43-.27,1.1-.13,1.31-.77h4.56c0,.24.28.28.42.32a8,8,0,0,1,5.88,6.71,4.85,4.85,0,0,1,0,1.7,9.06,9.06,0,0,1-3.08,5.28,2.14,2.14,0,0,1-1.21.78l-2,.74a.52.52,0,0,1-.41.22,3.38,3.38,0,0,0-1.55,0h0c-.45-.18-.94,0-1.39-.14l-.34,0c-.55,0-1.13.06-1.54-.45-.4-.15-.72-.47-1.16-.5a2.4,2.4,0,0,1-1.33-1l-.54-.55a2,2,0,0,1-.93-1.34c-.19-.85-.89-1.52-.85-2.45-.14-.33,0-.7-.14-1a4.75,4.75,0,0,0,0-1.64A2.87,2.87,0,0,1,608,115.56Z"/><path d="M597.3,111.36V111h1l0,.65a.58.58,0,0,1-.51,0A.62.62,0,0,1,597.3,111.36Z"/><path d="M489.74,164.73c.69-1.63,2.24-2.09,3.69-2.64a45.46,45.46,0,0,1,8.87-2c.38-.16.8.05,1.18-.15l.72,0c.51-.17,1.06.06,1.57-.14l1.28-.05c1.28-.19,2.58.08,3.87-.14a5.91,5.91,0,0,0,.84,0c3.33-.43,5.76,1.41,8.17,3.27a4.18,4.18,0,0,1,1.34,2.8c.14.79.17,1.61.24,2.42a1.51,1.51,0,0,1,0,.94c-.08.52-.13,1-.25,1.56a1.85,1.85,0,0,1-1.87,1.51c-2.25.14-4.49,0-6.73.07a2.87,2.87,0,0,0-1.13.07l-.5,0c-.32.15-.68,0-1,.15-1.18.13-2.36.27-3.54.39-.92.09-.52.8-.62,1.28s0,.8-.14,1.18l-2.12,8.54c-.19.32-.06.49.27.48a3.61,3.61,0,0,0,1.31-.07l.9-.05c.51-.17,1.06.06,1.57-.14l.9-.05c.51-.17,1.06.06,1.57-.14,2.92.42,3.5,2.75,4.12,5a4.4,4.4,0,0,1-1.16,4.41c-1,1.08-1.69,2.53-3.21,3.09-.46.17-.95,0-1.4.15a12.83,12.83,0,0,0-3,0c-.65.17-1.33-.07-2,.13l-1.07.06c-.77.18-1.57-.08-2.33.14-.81-.15-1.19.15-1.49,1a175.68,175.68,0,0,1-8.36,19.57,18.32,18.32,0,0,1-1.62,2.64c-1.63,2.13-1.45,1.69-3.57.54-1.9-1-3.68-2.26-5.83-2.74-2.44-.54-3.21-1.58-3.37-4.14a13.24,13.24,0,0,1,1.24-5.8c1.31-3.34,3.18-6.4,4.79-9.59a5.9,5.9,0,0,1,.64-1.12c1.09-1.36.88-2.82.42-4.33a6.17,6.17,0,0,1-.12-1.3c-.14-.33,0-.7-.14-1a3.69,3.69,0,0,1,.24-2.47,2.45,2.45,0,0,1,1.59-1.42,23.93,23.93,0,0,0,2.29-.94,1.1,1.1,0,0,0,.58-.58,52.54,52.54,0,0,0,3.9-10.75A6.14,6.14,0,0,0,491,172c-.38-2.12-.86-4.23-1.29-6.34A1.38,1.38,0,0,1,489.74,164.73Z"/><path d="M575.81,195.11a2.29,2.29,0,0,0-.18-1.78c-.32-.88-1.12-.93-2.46-.28a2,2,0,0,1-.78.52h0a2.81,2.81,0,0,1-1.32,1.34h0c-.19.26-.23.63-.59.76-.18,0-.18.19-.18.33a1.54,1.54,0,0,1-.53.81l-.21.39a4.14,4.14,0,0,1-1,1.89c-1.2,2.62-1.89,5.42-2.83,8.13-1.29,3.74-2.26,7.59-4,11.16a10.59,10.59,0,0,1-1.24,2,2.77,2.77,0,0,1-3.7.93,18.65,18.65,0,0,1-8-6.47,3,3,0,0,1-.28-2.35,14.67,14.67,0,0,1,1.29-4.06,3.89,3.89,0,0,1,.33-.79,11.28,11.28,0,0,1,1-2.44,2.5,2.5,0,0,1,.33-.79l.43-.93a2.55,2.55,0,0,1,.33-.78l.62-1.3a2.45,2.45,0,0,1,.52-1.16,12.18,12.18,0,0,0,.83-1.89c-.07-.33.22-.51.32-.77a45,45,0,0,0,2.15-4.55c-.07-.33.22-.51.32-.77,1.08-1.55,1.22-3.44,1.76-5.18a57.57,57.57,0,0,1,2.88-8.15c.54-1.12,1.17-2.27,2.76-2,.3.19.67,0,1,.15a21.72,21.72,0,0,1,3.78,1.54,7.11,7.11,0,0,1,3.13,3c.26.56.57.39.94.23,2.07-.89,4-2.06,6.11-2.84,2.78-1,4.63.17,6.09,1.81a18.28,18.28,0,0,1,4.31,8.6c.16.46-.05,1,.14,1.4v.61a4,4,0,0,0,0,1.54.64.64,0,0,1-.12.44c-.26,1.24-.49,2.49-.79,3.72a99.08,99.08,0,0,1-4.93,15c-1.09,2.57-1.87,5.25-3,7.81-.81,1.85-2.37,2.53-4.08,3.09a9.76,9.76,0,0,1-1.1.24c-.52.16-1.08-.06-1.6.14-.29,0-.6.05-.87-.15a1,1,0,0,1-.94-.43,28.15,28.15,0,0,1-4.9-4.22,2.48,2.48,0,0,1-.61-2.65c.53-1.76,1.43-3.36,2.07-5.07-.08-.23.06-.39.18-.57a37.54,37.54,0,0,0,1.94-3.79c-.06-.49.34-.76.53-1.14l1.56-3.22c0-.33.23-.51.35-.77l.24-.56c-.08-.33.22-.5.31-.76l1-2.46a2.45,2.45,0,0,1,.54-1.72h0C575.74,195.63,575.6,195.33,575.81,195.11Z"/><path d="M550.54,182.24a7.89,7.89,0,0,0,2.62,2.22c.46.21.59.62.84,1a4.85,4.85,0,0,1,0,1.7c-.85,2-2,4-2.71,6a2.8,2.8,0,0,1-.35.79.58.58,0,0,0-.22.53,1.82,1.82,0,0,1-.39.8,13.51,13.51,0,0,0-1.13,2.82,3.69,3.69,0,0,1-.34.79.16.16,0,0,0,0,.16,2.31,2.31,0,0,1-.34.79.12.12,0,0,0,0,.15,2.26,2.26,0,0,1-.33.8,98.48,98.48,0,0,0-3.46,9.72c-1.08,3.54-1.94,7.13-2.66,10.75a2.8,2.8,0,0,1-1.33,2.14,3.35,3.35,0,0,1-1.51,0,23.15,23.15,0,0,1-4.66-1.54,10.79,10.79,0,0,1-3.84-2.18,6,6,0,0,1-1-2c-.3-.68-.54-.95-1.29-.41-1.56,1.12-3.22,2.12-4.81,3.21a9.25,9.25,0,0,1-2.66,1.06c-.33.14-.71,0-1,.14-3.1.2-4.78-1.72-6.11-4.11a15.67,15.67,0,0,1-2-6.13c-.15-.4,0-.83-.14-1.22v-.82c.19-.37,0-.8.14-1.18a35.46,35.46,0,0,1,2-7.43c.82-2.5,1.84-4.95,2.81-7.4,1.08-2.72,2.05-5.49,3.34-8.11,1.13-2.29,1.84-4.77,3.33-6.88a3.13,3.13,0,0,1,2.69-1.14c2.14.33,3.71,1.71,5.37,2.91a8.3,8.3,0,0,1,3.15,3.56,1.76,1.76,0,0,1,0,.94c-1.43,4.81-3.86,9.2-5.81,13.79a49.2,49.2,0,0,0-2,5.49,3.33,3.33,0,0,0,0,.84,2.58,2.58,0,0,0,0,1.53,1.63,1.63,0,0,0,2.26.37,7.56,7.56,0,0,0,4.26-4.74,119.81,119.81,0,0,1,4.46-11.79c1.41-3.33,3-6.56,4.61-9.8a2.52,2.52,0,0,1,1.9-1.6c.39-.16.83,0,1.22-.14,1.69.07,2.69,1.28,3.82,2.28A2.21,2.21,0,0,1,550.54,182.24Z"/><path d="M678.06,221.72l-.39-.2c-.23.07-.39-.06-.56-.18l-.56-.25c-.27,0-.42-.19-.58-.37s-.39-.21-.55-.37-.45-.18-.59-.39l-.36-.37a2.51,2.51,0,0,1-1.54-1.53l-.34-.38a2.77,2.77,0,0,1-1-1.36l-1.94-4.13a5.85,5.85,0,0,1-.59-2.46c0-.32.18-.63,0-.95a.62.62,0,0,1-.12-.49,20.57,20.57,0,0,0,0-3,.8.8,0,0,1,.14-.65.12.12,0,0,0,0-.15c.18-.31,0-.67.14-1a22.84,22.84,0,0,1,2.41-7.45c.59-1.18,1.21-2.34,1.82-3.51.11-.22.17-.47.4-.61.39-.28.47-.76.74-1.12.13-.2.16-.47.41-.58l3.38-4.18c.15-.18.17-.47.43-.57l2-2.07c.12-.24.39-.27.58-.41l.75-.74c.13-.22.39-.26.58-.4s.76-.33.94-.74c.13-.22.39-.26.58-.4.43,0,.6-.41.93-.55.14-.22.4-.26.59-.4a27.66,27.66,0,0,1,4.8-1.62c.61-.09,1.22-.21,1.83-.31a15.34,15.34,0,0,1,3,0,21.1,21.1,0,0,1,4.37,1.57c.28-.05.43.15.58.34a17.34,17.34,0,0,1,3,2.52c.25.11.25.38.39.57a20,20,0,0,1,1.34,3.76.52.52,0,0,1,.14.41,2.28,2.28,0,0,0,0,1.16v1.8c-.18.31,0,.68-.15,1a29.26,29.26,0,0,1-1.37,3.55c-.19.44-.27.94-.76,1.17l-.37.39a1,1,0,0,1-.82.95,7.78,7.78,0,0,1-2.41,1.2,5.39,5.39,0,0,1-1.7,0,.69.69,0,0,0-.58,0c-.23.08-.39-.06-.56-.19a10.56,10.56,0,0,1-2.09-.79c-.27,0-.42-.15-.57-.32s-.36,0-.45-.23c-1-.51-1.18-1.37-.54-2.47a1.32,1.32,0,0,1,.25-.75c0-.22,0-.44.19-.58a5.13,5.13,0,0,0,.51-2.47c-.74-1-1.52-.56-2.29-.06-.3.19-.64.25-.93.43a2,2,0,0,0-.74.75c-.21.36-.26.85-.78,1a.9.9,0,0,0-.36.55c-.16.27-.22.62-.53.79l-.09.16a1,1,0,0,1-.58.95l-.12.23c-.25.43-.18,1-.73,1.32-.13.15-.28.3-.23.53a4.75,4.75,0,0,1-1.16,2.3,2.9,2.9,0,0,0-.56,1.33c.06.33-.23.51-.34.77l0,.18c.07.33-.23.5-.32.77a6.72,6.72,0,0,0-.8,3c-.4,1,.26,1.83.36,2.76a.1.1,0,0,0,.08.12c.34.28.83.37,1.07.79s.48.12.72.17a4.3,4.3,0,0,0,1.82,0,8.1,8.1,0,0,0,2.8-1.36,1.58,1.58,0,0,1,1-.52c1.39-1,2.84-1.53,4.48-.6.3.13.65.21.76.6l.75,1a.3.3,0,0,1,.16.36,9.22,9.22,0,0,1,.22,2.77c-.16.32,0,.68-.14,1-.4,3.89-3.34,5.65-6.27,7.36a22.68,22.68,0,0,1-5.37,2.27c-.19.28-.47.26-.75.23l-.38,0a.85.85,0,0,1-.66.12c-1-.13-2.09.06-3.13-.1a22.31,22.31,0,0,1-2.29-.38A.65.65,0,0,1,678.06,221.72Z"/><path d="M715.27,177.07l1-2.28c-.1-.24.06-.4.17-.57a1.5,1.5,0,0,0,.39-.76c-.08-.24.06-.4.18-.57,1.08-1.76,1.77-3.74,3.07-5.37a1.89,1.89,0,0,1,.75-.9c1.28-1.14,2.6-.45,3.91-.09.47.13.85.52,1.38.49.41.16.88.19,1.17.58a22.18,22.18,0,0,1,4.3,2.6,1.77,1.77,0,0,1,.69,2,25.73,25.73,0,0,1-2.61,5.54c-.15.26-.4.47-.38.83,1.06,0,2.14-.21,3.08.54a6.67,6.67,0,0,1,2.52,4.93,1.55,1.55,0,0,1-.37,1q-1.75,2.61-3.52,5.2a3.34,3.34,0,0,1-.47.45c-.52.17-1.06-.06-1.57.14l-.9.05c-.51.17-1.06-.07-1.56.14l-.92.05c-.45.16-.95,0-1.4.14-.64.16-.77.78-1,1.24a49,49,0,0,0-4.41,12,10.08,10.08,0,0,0-.39,2.67c-.2.37,0,.79-.15,1.17a9,9,0,0,0,1.8,6.49,18.08,18.08,0,0,0,1.06,1.75.94.94,0,0,1-.11,1.39,14.55,14.55,0,0,1-7.53,4.08.47.47,0,0,1-.57,0,10.49,10.49,0,0,1-3.21-1.17c-.19-.14-.45-.18-.58-.4l-1.45-1.33a.93.93,0,0,1-.63-.4l-.54-.54a1.3,1.3,0,0,1-.79-.94l-1.5-1.9c-.24-.12-.27-.39-.41-.58a9.48,9.48,0,0,1-.62-2.07,9.08,9.08,0,0,1,0-2.27c.44-4.37,2-8.44,3.39-12.56a59.06,59.06,0,0,1,2.51-6.25c-.08-.23.06-.39.18-.56l.22-.26a2.1,2.1,0,0,0,0-1.31l0-.72c-.16-.45,0-.94-.14-1.4l0-.87c-.16-.46,0-.95-.14-1.41a4.5,4.5,0,0,1,.14-1.63.5.5,0,0,1,.25-.55,7.3,7.3,0,0,1,3-2.08.74.74,0,0,1,.78-.15c.66.06.9-.4,1.09-.9.27-.73.52-1.47.78-2.2C715,177.4,715.16,177.24,715.27,177.07Z"/><path d="M662.47,139.26l-3,.05c-.37.21-.66,0-.95-.18a7.08,7.08,0,0,0-1.51-.44,2.09,2.09,0,0,1-1.72-.91,5.87,5.87,0,0,1-1.23-1,1.8,1.8,0,0,1-1.23-1.14l-.59-.92a1.64,1.64,0,0,1-.73-1.34,10.94,10.94,0,0,1,0-5.68,1.63,1.63,0,0,1,.74-1.34,10.83,10.83,0,0,1,3.42-3.25,1.05,1.05,0,0,1,1-.52l2.47-.63c.32-.14.69,0,1-.14h1.78c.32.17.69,0,1,.14l.36.1a.75.75,0,0,1,1,.28l1.15.39a.83.83,0,0,1,.93.45,9.63,9.63,0,0,1,4.29,5.49c.28,0,.28.28.31.49s-.24.69,0,1.05V131c-.16.33,0,.7-.15,1a9.55,9.55,0,0,1-6.48,6.74c-.26.1-.59,0-.79.24S662.81,139.33,662.47,139.26Z"/><path d="M700.28,141.35a8.93,8.93,0,0,0,1.73-.91,1.44,1.44,0,0,1,1.51-.38,6.19,6.19,0,0,0,1.71-.24,1.31,1.31,0,0,1,1.52,0l1.68.3a4.21,4.21,0,0,1,3.24,1.3c.86.57,1.49,1.41,2.29,2.06a.88.88,0,0,1,.61.92,11.09,11.09,0,0,1,1,2.69c.25.1.28.31.29.54a2.61,2.61,0,0,0,0,1.61.86.86,0,0,1-.37.86c-.95,3.72-3.57,5.72-7.08,6.78-.24.37-.59.29-.94.22l-3,0c-.37.2-.66,0-1-.19l-1.89-.62a1,1,0,0,1-1-.52A12.91,12.91,0,0,1,698,153.7c-.44-.18-.58-.59-.77-1-.25-1.09-1-2-1-3.2a7.62,7.62,0,0,1,0-2.08c.15-.37-.06-.8.21-1.14a.71.71,0,0,1,.23-.94,17.15,17.15,0,0,1,2.65-3.41A.94.94,0,0,1,700.28,141.35Z"/><path d="M694.05,140.23a1.52,1.52,0,0,0-.21,1,.63.63,0,0,1-.36.77,9.34,9.34,0,0,1-3.08,3.77c-.16.35-.5.44-.81.57a10.69,10.69,0,0,1-3.56,1.19c-.52.17-1.07-.06-1.58.14h-.06c-.51-.2-1.06,0-1.58-.14a12,12,0,0,1-2.64-.61,2.3,2.3,0,0,0-.34-.12l-.66-.28c-.17-.06-.24-.21-.35-.33l-.93-.6a2.59,2.59,0,0,1-1.54-1.53l-.29-.39a1.2,1.2,0,0,1-.69-1.1l-.28-.79a1.49,1.49,0,0,1-.47-1.69c.18-1-.1-2.07.23-3.1.21-.64.56-1.2.74-1.83a1.8,1.8,0,0,1,1-1.51l1.49-1.32a3,3,0,0,1,1.9-1.14l3.42-.8a2.06,2.06,0,0,1,2.26.08c.1.17.25.13.4.1a.62.62,0,0,1,1,.19,10.27,10.27,0,0,1,3.79,1.76c.55,0,.75.36.94.78l.19.18a3.84,3.84,0,0,1,1.76,3l.38,1.34A10.65,10.65,0,0,1,694.05,140.23Z"/><path d="M718.12,157.32a6.15,6.15,0,0,0,0-1.66c.17-.31,0-.68.14-1l.05-.76a1.11,1.11,0,0,1,.38-.95c.27-.1.3-.35.38-.57,0-.83.6-1.25,1.15-1.7l.55-.56c.17-.44.6-.57,1-.78a20.26,20.26,0,0,1,3.6-1.5.68.68,0,0,1,.94,0l.76-.19a1.76,1.76,0,0,1,1.9,0,.56.56,0,0,0,.57.17.61.61,0,0,1,1,.19,10.43,10.43,0,0,1,3.79,1.76c.55,0,.76.36,1,.77l.19.19c.56.07.54.6.76.95l.12.18a2,2,0,0,1,.87,1.87l.26.79a.56.56,0,0,1,.3.59c-.27.79,0,1.62-.18,2.41l-.08.37a.77.77,0,0,1-.3,1,9.7,9.7,0,0,1-7.63,5.92c-.4.14-.83,0-1.23.14h-.78a1.77,1.77,0,0,0-1.22.06,2.16,2.16,0,0,1-1.52-.39,4.91,4.91,0,0,0-1.52-.57,1.08,1.08,0,0,1-.95-.58l-.93-.6-.19-.15a3.52,3.52,0,0,1-1-.85,4.6,4.6,0,0,1-.31-.53h0a1.86,1.86,0,0,1-1-1.51c-.2-.5-.17-1.09-.56-1.52A.81.81,0,0,1,718.12,157.32Z"/><path d="M690,166.84l-.78.3a1.92,1.92,0,0,1-1.5.48,2.2,2.2,0,0,0-1.41-.07h-.22a2.39,2.39,0,0,0-1.4,0,.78.78,0,0,1-.58-.22,12.76,12.76,0,0,1-4-1.52c-.37-.2-.79-.34-1-.78l-.74-.75a1.51,1.51,0,0,1-.77-1,.12.12,0,0,0,0-.13,4.57,4.57,0,0,1-1.36-3.54c.27-.57,0-1.2.19-1.77.16-.37-.08-.8.2-1.15-.22-.38,0-.67.23-.94l1.31-2.07a1.62,1.62,0,0,0,.17-.35,6.42,6.42,0,0,1,1-1c.17-.12.3-.29.48-.4a5.51,5.51,0,0,0,.86-.47.58.58,0,0,1,.36-.1c.17-.29.63,0,.77-.4s.62-.28,1-.38l.55,0a.79.79,0,0,1,.59-.36c.32-.08.63.26.95,0a.12.12,0,0,0,.17,0,1,1,0,0,1,.28-.16c.59.09,1.18-.08,1.77,0,.15.06.33.08.4.26.35.26.75.06,1.12.16l.12,0a2.18,2.18,0,0,1,1.2.26c.11.07.14.2.24.28l.76.38a.81.81,0,0,1,.93.46,15.45,15.45,0,0,1,2.67,2.63,1,1,0,0,1,.61,1.11c.21.71.43,1.41.64,2.11a1.73,1.73,0,0,1,.11,2.07,10,10,0,0,1-1.75,4c-.26.31-.5.63-.76.95A5,5,0,0,1,690,166.84Z"/><path d="M651.09,149.85v-.24c.18-.39,0-.82.14-1.21a10.36,10.36,0,0,1,1.19-3.18,1.57,1.57,0,0,1,.77-1l.55-.55a6.51,6.51,0,0,1,4.55-2.3c.39,0,.8.09,1.14-.21a.81.81,0,0,1,.62-.19,2.71,2.71,0,0,0,1.62,0,.76.76,0,0,1,.61.22c.32.32.77.1,1.12.25a3.55,3.55,0,0,1,2.86,1.11,22.28,22.28,0,0,1,2.47,2.08,1.68,1.68,0,0,1,.9,1.33l.67,1.68a.86.86,0,0,1,.19,1.14c0,.48.09,1,.14,1.45-.17.32,0,.69-.14,1A9.67,9.67,0,0,1,667.6,156a2.05,2.05,0,0,1-1.54,1.1l-.93.46a1.48,1.48,0,0,1-1.52.56,5.05,5.05,0,0,0-1.33.21,13.48,13.48,0,0,1-2.84,0l-.57-.05c-.37.3-.66,0-1-.14l-.38-.19a.74.74,0,0,1-.94-.24c-.18-.42-.65-.33-1-.54a1.93,1.93,0,0,1-1.51-1,13.06,13.06,0,0,1-2.68-3.78c-.22-.28-.41-.57-.19-.94l0-.39C651.08,150.66,651.27,150.24,651.09,149.85Z"/><path d="M646.67,138.79l.06.3a1.89,1.89,0,0,1,.56,1.64c-.26.63,0,1.32-.17,2a2.83,2.83,0,0,0-.26,1.14.63.63,0,0,1-.32.77l-.46,1.12a5.73,5.73,0,0,1-3.94,3.46l-1.16.48a.76.76,0,0,1-.93.29h-.57a7.63,7.63,0,0,1-2.08,0,11.05,11.05,0,0,1-2.28-.43,1.23,1.23,0,0,1-.38,0,3.39,3.39,0,0,1-1.12-.57c-.09-.09-.13-.22-.22-.31l-.37-.22a.86.86,0,0,1-.76-.58l-.54-.56a1.41,1.41,0,0,1-.32-.17,2.63,2.63,0,0,1-.33-.49,3.42,3.42,0,0,1-.13-.34,8.56,8.56,0,0,1-1.16-3,.48.48,0,0,1-.15-.41,2.25,2.25,0,0,0,0-1.18v-.05c.19-.45,0-.94.14-1.39a12.11,12.11,0,0,1,.87-2.63c0-.29.13-.45.34-.59l1.68-1.88c.21-.38.61-.46,1-.6a16.44,16.44,0,0,1,3-1.14.9.9,0,0,1,.47-.17,10.13,10.13,0,0,0,2.46,0,1.79,1.79,0,0,1,1.63.49,14.69,14.69,0,0,1,2.46,1.19c.55,0,.75.36,1,.76l1.26,1.52A1.79,1.79,0,0,1,646.67,138.79Z"/><path d="M639.48,114.76a14.21,14.21,0,0,1,3.79,1.55c.47.22,1,.4,1.13,1h0a2.38,2.38,0,0,1,1.3,1.71l.65,1.69c.54.46.43,1.14.57,1.73a1.42,1.42,0,0,0,0,1.09.81.81,0,0,1-.22.59,9.83,9.83,0,0,1-1.56,3.64,8.79,8.79,0,0,1-3.95,3,1.26,1.26,0,0,1-1,.53c-.32.08-.65-.21-1,0l-.08,0-.06,0a.68.68,0,0,1-.6.16c-.42-.21-.83,0-1.25,0a.87.87,0,0,1-.43-.21,10.67,10.67,0,0,1-2.28-.55,1.3,1.3,0,0,1-1.31-.6c-.09-.28-.41-.22-.58-.39a.71.71,0,0,1-.56-.4l-1.52-1.7a.56.56,0,0,1-.33-.57,8.71,8.71,0,0,1-1-5.16c.07-.83.48-1.56.53-2.38.06-.62.53-1,.92-1.35l.4-.45a4.59,4.59,0,0,1,2.85-2.21h0a3,3,0,0,1,2.1-.73l.38-.06c.39-.15.82,0,1.21-.14h.62C638.66,114.8,639.09,114.61,639.48,114.76Z"/><path d="M623.93,133.59l.46,1a1.59,1.59,0,0,1,.44,1.31c-.18.75.09,1.53-.14,2.27a.85.85,0,0,1,.13.25.61.61,0,0,1-.32.7l-.19.58a1.35,1.35,0,0,1-.65,1.48h0c-.18.38-.2.87-.74,1l-1.32,1.18c-.24.35-.48.7-1,.66l-1.11.49c-.09.08-.14.21-.25.28a4.29,4.29,0,0,1-1.22.36.42.42,0,0,1-.24-.07c-1.07-.2-2.16.06-3.24-.2a9.3,9.3,0,0,1-3.76-1.93,1,1,0,0,1-.76-.65c0-.14,0-.26-.19-.3a1.69,1.69,0,0,1-.32-.19,1.56,1.56,0,0,1-.32-.52.2.2,0,0,1,0-.23l-.59-1.13a.49.49,0,0,1-.19-.58l-.17-1.13a.5.5,0,0,1-.14-.46c.15-.47,0-1,.12-1.44a1.19,1.19,0,0,0,0-.77.74.74,0,0,1,.2-.75.55.55,0,0,0,0-.17c.1-.14,0-.32.09-.47a2.66,2.66,0,0,1,.64-.88l1.36-1.87a.54.54,0,0,1,.57-.39l1.91-1.15c.19-.27.42-.41.74-.21.49-.21,1.06-.08,1.52-.38a.74.74,0,0,1,.47-.18c.58.3,1.24-.2,1.81.18a.54.54,0,0,0,.57.17c.32-.21.56-.1.76.19l1.32.45a.5.5,0,0,1,.58.32,17.31,17.31,0,0,1,2.45,2.15A1,1,0,0,1,623.93,133.59Z"/><path d="M591.45,131.32l.73-.73a.71.71,0,0,1,.57-.4,14.81,14.81,0,0,1,3-1.16.84.84,0,0,1,.62-.15,2.85,2.85,0,0,0,1.45-.06.54.54,0,0,1,.56.29,9,9,0,0,1,3.25,1.46c.72,0,1,.52,1.14,1.14A8,8,0,0,1,604,134a.63.63,0,0,1,.32.7.85.85,0,0,1-.13.25,6.7,6.7,0,0,1-.19,2.85.73.73,0,0,1-.38.95,8.32,8.32,0,0,1-1.75,2.25,2.19,2.19,0,0,1-1.89,1.19,11.46,11.46,0,0,1-1.9.55,1.05,1.05,0,0,1-.71.24h-.44a4.33,4.33,0,0,1-.88,0c-.14,0-.28,0-.43,0a1.49,1.49,0,0,1-.77-.34l-1.34-.57a.2.2,0,0,1-.21,0,3.63,3.63,0,0,1-.51-.28,1.1,1.1,0,0,1-.18-.14c-.17-.21-.44-.3-.63-.5a2.25,2.25,0,0,1-.16-.31,20.24,20.24,0,0,1-1.74-2.81.75.75,0,0,1-.2-.75v-.58a1.17,1.17,0,0,1,0-1.51v-.58c-.09-.29.09-.51.2-.75a1,1,0,0,0,0-.17,1.72,1.72,0,0,1,.75-1.35l.21-.37A.75.75,0,0,1,591.45,131.32Z"/><path d="M597.67,111.53l.55.11a9.6,9.6,0,0,1,3.06,1.46c.74,0,1,.57,1.14,1.14l.57.77a1.67,1.67,0,0,1,.61,1.68l.19.57c.15.65,0,1.31.09,1.95a.59.59,0,0,1-.28.71,7.13,7.13,0,0,1-6.46,5.29,16.11,16.11,0,0,1-2.86-.18c-.33-.1-.73,0-1-.39l-1.14-.76a.73.73,0,0,1-.57-.39l-.54-.55a.71.71,0,0,1-.4-.56,7.89,7.89,0,0,1-1.14-2.65.61.61,0,0,1-.18-.62c.17-.54,0-1.11.13-1.66-.07-1,.58-1.75.84-2.64a.61.61,0,0,1,.37-.57l1.87-1.71c.16-.3.49-.3.77-.39l2.26-.61A7.63,7.63,0,0,1,597.67,111.53Z"/><path d="M580.19,131.65a6.71,6.71,0,0,1,4.93,3.3.29.29,0,0,1,.16.36,5.69,5.69,0,0,0,.44,1.51,1.29,1.29,0,0,1,0,1.51,6.58,6.58,0,0,1-2.59,4,6.27,6.27,0,0,1-9.63-3.18,5.83,5.83,0,0,1,4.27-7.25c.37-.07.73-.16,1.1-.24A3.26,3.26,0,0,1,580.19,131.65Z"/><path d="M584.51,119.56l.28.93c.15.65,0,1.3.09,2a.57.57,0,0,1-.28.7,6.16,6.16,0,0,1-7,4.3,5.67,5.67,0,0,1-5-4.68,8.63,8.63,0,0,1,0-2.27,5.72,5.72,0,0,1,4.22-4.59c.92-.51,1.89-.22,2.84-.19l2,.63a3.34,3.34,0,0,1,2.33,2.11.13.13,0,0,0,.06.14A1,1,0,0,1,584.51,119.56Z"/><path d="M562.55,146.6v0c.15-.32,0-.69.13-1,.53-2.31,1.9-4,5.17-4.4a1.67,1.67,0,0,1,.94,0,5.89,5.89,0,0,1,5.17,4.59,5.39,5.39,0,0,1,0,1.7,6,6,0,0,1-3.45,4.16,9.24,9.24,0,0,1-1.72.44,1.67,1.67,0,0,1-.94,0,5.46,5.46,0,0,1-4.92-3.44c-.14-.33-.11-.66-.25-1S562.7,146.93,562.55,146.6Z"/><path d="M567.46,124.06a6.32,6.32,0,0,1,3.89,2.48,11.94,11.94,0,0,1,.9,2.12,4,4,0,0,1,0,1.5,6.06,6.06,0,0,1-2.61,3.85,5.8,5.8,0,0,1-8-1.76,4.21,4.21,0,0,1-.66-1.71c-.14-.32,0-.68-.14-1v-.25c.16-.33,0-.7.14-1,.57-2.57,2.36-3.75,4.78-4.22A5.11,5.11,0,0,1,567.46,124.06Z"/><path d="M557.77,132.79a5.16,5.16,0,0,1,3.83,2.81l.38.84a5.71,5.71,0,0,1,0,1.89,5.1,5.1,0,0,1-5.35,3.81,4.77,4.77,0,0,1-4.41-4.19,1.67,1.67,0,0,1,0-.94,4.73,4.73,0,0,1,4.22-4.21A3.09,3.09,0,0,1,557.77,132.79Z"/><path d="M549,149.94a4.19,4.19,0,0,1-3.51-5.43c.54-2.22,2.87-3.57,5.5-3a4.23,4.23,0,0,1,2.46,6.8,4.48,4.48,0,0,1-2.75,1.63A4.85,4.85,0,0,1,549,149.94Z"/><path d="M558.76,156.37a3.73,3.73,0,0,1-3.83-3.86,3.78,3.78,0,0,1,4-3.73,4,4,0,0,1,3.94,3.87A4,4,0,0,1,558.76,156.37Z"/><path d="M552.45,155.39a3.43,3.43,0,0,1,2.31,2.14,3.06,3.06,0,0,1-2.57,3.74,2.81,2.81,0,0,1-3.15-1.6,2.76,2.76,0,0,1,1.58-4.07l.51-.21A3.09,3.09,0,0,1,552.45,155.39Z"/><path d="M543.72,155.64a2.93,2.93,0,0,1-2.32-2.5,1.59,1.59,0,0,1,0-.94,2.64,2.64,0,0,1,2.12-2.27c1.71-.26,2.93.2,3.6,1.35.14.24.27.48.4.73a2.81,2.81,0,0,1,0,1.32,3.49,3.49,0,0,1-2.32,2.31A3.66,3.66,0,0,1,543.72,155.64Z"/><path d="M547.32,161.09a4.67,4.67,0,0,1,1.47.94c1.2,1.46.65,3.54-1.47,4.25a3.26,3.26,0,0,1-1.32,0,2.41,2.41,0,0,1-2.07-2.23c-.11-1.59.45-2.39,2.07-3A2.94,2.94,0,0,1,547.32,161.09Z"/><path d="M538.19,157.51a2.4,2.4,0,0,1,2.52-1.79,2.74,2.74,0,0,1,2.85,2,3,3,0,0,1,0,1.31,2.93,2.93,0,0,1-3.2,1.91,2.52,2.52,0,0,1-2.18-1.91A3.5,3.5,0,0,1,538.19,157.51Z"/><path d="M533.35,167.38a1.64,1.64,0,0,1-1.78-1.65,1.73,1.73,0,0,1,1.81-1.93,2.09,2.09,0,0,1,2,1.79A1.91,1.91,0,0,1,533.35,167.38Z"/><path d="M537.06,160.33a3.46,3.46,0,0,1,1.35,1.17,2.17,2.17,0,0,1,0,1.13c-.81,1.27-1.94,1.61-3,1a1.74,1.74,0,0,1-.66-1,1.59,1.59,0,0,1,0-.94c.06-.84.67-1.15,1.37-1.36A1.51,1.51,0,0,1,537.06,160.33Z"/><path d="M541.06,167.79a1.18,1.18,0,0,1-1-1.37c0-.61.16-1.21.81-1.43a1.5,1.5,0,0,1,1.7.45l.36.43a1.44,1.44,0,0,1,0,.94,2.23,2.23,0,0,1-1,1A1.67,1.67,0,0,1,541.06,167.79Z"/><path d="M529.47,168.36a1,1,0,0,1-.87-1.09,1.13,1.13,0,0,1,1.2-1,1.28,1.28,0,0,1,1.34.93c.17.58-.35.88-.73,1.19A1.38,1.38,0,0,1,529.47,168.36Z"/><path d="M538.58,167.54c.55.32,1,.76.69,1.43a1.27,1.27,0,0,1-1.62.64,1.16,1.16,0,0,1-.76-1.26c0-.5.31-.7.75-.8A1.59,1.59,0,0,1,538.58,167.54Z"/><path d="M642.14,149.18a10.28,10.28,0,0,0,3.94-3.46.61.61,0,0,1,.1.9,9.48,9.48,0,0,1-3.24,2.76C642.63,149.58,642.29,149.71,642.14,149.18Z"/><path d="M658.29,141.38a13.48,13.48,0,0,0-4.55,2.3.84.84,0,0,1,.36-.8,12,12,0,0,1,3.12-1.8C657.57,140.94,658.09,140.73,658.29,141.38Z"/><path d="M646.2,202.29l2.54,2.51a.65.65,0,0,1-.79,0,6.68,6.68,0,0,1-1.84-1.83C645.94,202.76,645.84,202.49,646.2,202.29Z"/><path d="M690,166.84a13.86,13.86,0,0,0,3.4-2.15c.1.55-.21.8-.57,1.2-.61.67-1.54.61-2.12,1.24A.43.43,0,0,1,690,166.84Z"/><path d="M711.67,141.43a18.12,18.12,0,0,0-3.24-1.3c.22-.76.82-.55,1.19-.31a7.08,7.08,0,0,0,1.52.68A.71.71,0,0,1,711.67,141.43Z"/><path d="M634,115.55a14.51,14.51,0,0,0-2.85,2.21,1,1,0,0,1,.76-1.43.74.74,0,0,0,.41-.33A1.16,1.16,0,0,1,634,115.55Z"/><path d="M693.67,136.43a11.76,11.76,0,0,0-1.76-3c.31-.31.52-.3.8.1a9.58,9.58,0,0,0,1.15,1.77A.71.71,0,0,1,693.67,136.43Z"/><path d="M676.5,159.78a8.4,8.4,0,0,0,1.18,3.43.71.71,0,0,1-.86-.5A23.1,23.1,0,0,1,676,160c-.06-.28,0-.58.36-.62C676.48,159.5,676.41,159.68,676.5,159.78Z"/><path d="M666.26,142.55a21.14,21.14,0,0,0-2.86-1.11c.21-.76.71-.46,1.11-.27a2.64,2.64,0,0,0,1.2.41C666.36,141.59,666.27,142.11,666.26,142.55Z"/><path d="M528.12,165.89a.74.74,0,0,1-.2,1.2.64.64,0,0,1-.91-.19c-.38-.45-.28-.78.18-1.07C527.51,165.78,527.83,165.67,528.12,165.89Z"/><path d="M584,118.45a9.38,9.38,0,0,0-2.33-2.11A2,2,0,0,1,584,118.45Z"/><path d="M536.49,169.67a.76.76,0,0,1-.73.71.67.67,0,0,1-.59-.79.55.55,0,0,1,.68-.57C536.21,169.08,536.48,169.25,536.49,169.67Z"/><path d="M690.76,190.73a3.23,3.23,0,0,1,1.82-1.06c.64-.16,1.19,0,1.4.69-.12,0-.33.1-.34.07-.51-1-1.08-.29-1.56,0A2.08,2.08,0,0,1,690.76,190.73Z"/><path d="M601.7,185.69l-2.09,2.1a2.52,2.52,0,0,1,1.82-2.3C601.51,185.48,601.61,185.62,601.7,185.69Z"/><path d="M511.53,172.3a2.51,2.51,0,0,1,1.38-.16l6.48,0a.78.78,0,0,1-.62.16Z"/><path d="M685.44,199.27a14.58,14.58,0,0,1,1.16-2.3C687,198.28,686.69,198.81,685.44,199.27Z"/><path d="M685.64,130.42l-2.26-.08c.07-1,.92-.41,1.38-.62S685.51,130,685.64,130.42Z"/><path d="M526.61,165.29c0,.61-.35.69-.67.72a.61.61,0,0,1-.64-.56c-.08-.4.21-.53.58-.54S526.58,164.94,526.61,165.29Z"/><path d="M693,194.16a2.08,2.08,0,0,0,.54,2.47c-.18,0-.4.09-.53,0A1.71,1.71,0,0,1,693,194.16Z"/><path d="M737.18,153.71l-.87-1.87a.79.79,0,0,1,1,.54C737.53,152.86,737.73,153.32,737.18,153.71Z"/><path d="M645.7,119l-1.3-1.71C645.53,117.27,646.15,118.09,645.7,119Z"/><path d="M534.6,169.72c0,.55-.25.68-.61.69s-.49-.32-.49-.63a.45.45,0,0,1,.53-.5C534.43,169.29,534.61,169.48,534.6,169.72Z"/><path d="M729,147.63l-1.9,0c-.06-.62.46-.62.82-.7C728.45,146.8,728.78,147.15,729,147.63Z"/><path d="M695.94,159.79c0-.69-.07-1.38-.11-2.07.46.12.88.31.68.88C696.37,159,696.88,159.76,695.94,159.79Z"/><path d="M636.07,114.82l-2.1.73c0-.47,0-.86.64-.75a.63.63,0,0,0,.65-.2C635.6,114.25,635.88,114.45,636.07,114.82Z"/><path d="M646.73,122.39l-.38-1.71c.37,0,.84.11.68.5-.24.55,1,1.18-.14,1.58C646.76,122.67,646.83,122.5,646.73,122.39Z"/><path d="M600,142.16a11.56,11.56,0,0,0,1.89-1.19c.27,1.07-.89.93-1.27,1.46C600.44,142.63,600,142.57,600,142.16Z"/><path d="M680,152.17l-.45.4c-.29.15-.59.27-.88,0a6.54,6.54,0,0,0,1.26-1,.77.77,0,0,1,1.22-.12l-.2.16A3.74,3.74,0,0,0,680,152.17Z"/><path d="M603.6,116.69,603,115c0-.21.1-.38.34-.22.59.39.34,1.14.7,1.65C604.09,116.52,603.79,116.67,603.6,116.69Z"/><path d="M669.63,146l-.9-1.33c.32-.36.59-.26.84.09S670.12,145.52,669.63,146Z"/><path d="M676.35,144a9.69,9.69,0,0,1,1.54,1.53C676.78,145.69,676.35,145.26,676.35,144Z"/><path d="M647.12,140.62l-.39-1.53c.29,0,.74-.09.7.37s.7,1.12-.15,1.53C647.14,140.9,647.21,140.73,647.12,140.62Z"/><path d="M656.94,205.48l1.92-.67C658.29,205.8,657.51,206.07,656.94,205.48Z"/><path d="M666.06,157.07l1.54-1.1C667.54,157,666.89,157.49,666.06,157.07Z"/><path d="M608,115.56a7.08,7.08,0,0,1-.62,2.07A1.52,1.52,0,0,1,608,115.56Z"/><path d="M687.74,167.42l1.51-.28c0,.35,0,.65-.46.62s-1,.64-1.42-.18C687.45,167.44,687.63,167.51,687.74,167.42Z"/><path d="M655.25,137.78l1.72.91C656,139.09,655.36,138.74,655.25,137.78Z"/><path d="M646.67,138.79l-.81-1.57C647,137.23,647.13,137.55,646.67,138.79Z"/><path d="M623.66,141.15l.65-1.48c.48.28.41.75.29,1.15S624,141.18,623.66,141.15Z"/><path d="M724.8,164.57l1.53.19c.1.09.29,0,.37.17A1.18,1.18,0,0,1,724.8,164.57Z"/><path d="M663.61,158.09a8.41,8.41,0,0,1,1.52-.56c0,.41,0,.79-.5.87S663.8,158.7,663.61,158.09Z"/><path d="M706.75,139.83h-1.52c-.05-.6.43-.65.81-.64S706.82,139.27,706.75,139.83Z"/><path d="M651.68,210.88a6.19,6.19,0,0,1-3.17,0A5.88,5.88,0,0,1,651.68,210.88Z"/><path d="M720.27,150.69l-1.15,1.7C718.78,151.59,719.28,150.85,720.27,150.69Z"/><path d="M669.09,209.73a8.67,8.67,0,0,1,.59,2.46A2.44,2.44,0,0,1,669.09,209.73Z"/><path d="M680,131.14l-1.9,1.14A1.58,1.58,0,0,1,680,131.14Z"/><path d="M524.58,164.53c-.32,0-.36-.29-.39-.54s0-.58.41-.56a.47.47,0,0,1,.5.43C525.16,164.28,524.83,164.36,524.58,164.53Z"/><path d="M672.93,218.06l1.54,1.53A1.39,1.39,0,0,1,672.93,218.06Z"/><path d="M695.19,155.61l-.61-1.11c.32-.34.63-.29.81.11S695.79,155.39,695.19,155.61Z"/><path d="M654.12,156.16l1.51,1C654.66,157.47,654.2,157.17,654.12,156.16Z"/><path d="M676.57,133.6c-.33.5-.66,1-1,1.51C675.28,134.2,675.63,133.66,676.57,133.6Z"/><path d="M651.08,206.15l2.65,0c0,.37-.31.71-.56.53C652.51,206.17,651.73,206.48,651.08,206.15Z"/><path d="M602.8,131.71l-1.14-1.14c.36-.39.65-.18,1,.08A.71.71,0,0,1,602.8,131.71Z"/><path d="M674.62,140l.47,1.69C674.26,141.57,674,140.79,674.62,140Z"/><path d="M641.19,133.75l-1.52-.39a.29.29,0,0,1-.19-.15A1,1,0,0,1,641.19,133.75Z"/><path d="M579.62,115.71a11.78,11.78,0,0,0-2.84.19C577.65,114.73,578.67,115.77,579.62,115.71Z"/><path d="M703.52,140.06a3.48,3.48,0,0,1-1.51.38C702.41,139.58,703,139.43,703.52,140.06Z"/><path d="M652.21,126.37a4.1,4.1,0,0,1-.74,1.34C651.05,126.73,651.2,126.46,652.21,126.37Z"/><path d="M718.88,159.79l1,1.51C718.85,161.12,718.6,160.75,718.88,159.79Z"/><path d="M550.54,182.24a7.78,7.78,0,0,1-1.4-1.35C550.22,180.89,550.51,181.18,550.54,182.24Z"/><path d="M630.72,118.21c-.08.6-.65.87-.92,1.35C629.52,118.64,629.67,118.41,630.72,118.21Z"/><path d="M575.66,195.87a4.5,4.5,0,0,1-.54,1.72C574.63,196.81,574.94,196.28,575.66,195.87Z"/><path d="M683.73,208.09a3,3,0,0,1-.36-2.76c.08.61-.2,1.28.45,1.79C684.14,207.37,683.72,207.75,683.73,208.09Z"/><path d="M651.47,133.39a4.26,4.26,0,0,1,.73,1.34C651.2,134.64,651.06,134.37,651.47,133.39Z"/><path d="M652.79,135.65a5.12,5.12,0,0,1,1.23,1.14C652.94,137,652.65,136.71,652.79,135.65Z"/><path d="M568.58,199.09a8.48,8.48,0,0,1,1-1.89C569.6,198,569.56,198.8,568.58,199.09Z"/><path d="M571.07,194.91a4.33,4.33,0,0,1,1.32-1.34C572.36,194.41,572,195,571.07,194.91Z"/><path d="M585.72,138.33v-1.51C586.51,137.53,586.51,137.89,585.72,138.33Z"/><path d="M602.42,114.24l-1.14-1.14C602.16,112.76,602.42,113,602.42,114.24Z"/><path d="M510.92,159.62a25,25,0,0,1-3.87.14A17.28,17.28,0,0,1,510.92,159.62Z"/><path d="M645,205.54a5.71,5.71,0,0,1,.37-2.16A2.4,2.4,0,0,1,645,205.54Z"/><path d="M714.57,144.41l-.61-.92c.26-.28.57-.36.73,0S715.24,144.21,714.57,144.41Z"/><path d="M719.87,161.29l.39.33a1.44,1.44,0,0,0,1.06,1l.08.18C720.3,163,719.87,162.54,719.87,161.29Z"/><path d="M643.29,222.1h3.6A8.41,8.41,0,0,1,643.29,222.1Z"/><path d="M633.23,130.16l1.31.6c0,.34-.31.48-.5.25S633,130.9,633.23,130.16Z"/><path d="M590.84,132.26c-.26.44-.34,1-.75,1.35C589.76,132.65,589.87,132.47,590.84,132.26Z"/><path d="M686.83,196.44l.73-1.32C687.51,195.66,688.13,196.57,686.83,196.44Z"/><path d="M659,209.81a10.06,10.06,0,0,0-2.26-.07c.14-.29.35-.46.68-.33a1.32,1.32,0,0,0,1.16-.06C659.05,209.13,659,209.53,659,209.81Z"/><path d="M610.24,112.71a3.1,3.1,0,0,1-1.15,1.15C609,113,609.39,112.63,610.24,112.71Z"/><path d="M628.3,162.27a3.82,3.82,0,0,1-1,1.72C627.48,163.31,627.44,162.54,628.3,162.27Z"/><path d="M640.24,131.12l1-.35c-.21.81-.74,1-1.52.55C639.82,131.12,640.09,131.3,640.24,131.12Z"/><path d="M620.64,144l1-.66C621.58,144.35,621.48,144.42,620.64,144Z"/><path d="M584.51,119.56l-.47-1c.4,0,.73,0,.85.49S584.79,119.52,584.51,119.56Z"/><path d="M680.91,222.29h3.22c0,.15,0,.26-.18.16A12.39,12.39,0,0,1,680.91,222.29Z"/><path d="M669.09,205.17v3.22c-.15,0-.26,0-.16-.18v-2.85C668.85,205.18,669,205.16,669.09,205.17Z"/><path d="M608.38,122.74a5.44,5.44,0,0,1,.93,1.34A1,1,0,0,1,608.38,122.74Z"/><path d="M644.4,117.28l-1.13-1C644,116.25,644.57,116.33,644.4,117.28Z"/><path d="M589.87,135.11v1.51C589.12,136.12,589.12,135.61,589.87,135.11Z"/><path d="M678.63,152.57h.88a3.58,3.58,0,0,1-1.07,1,.73.73,0,0,1,0-.79Z"/><path d="M695.53,177.8h-3A6,6,0,0,1,695.53,177.8Z"/><path d="M660.69,214.26l.3-1.12a.31.31,0,0,1,.16-.19C661.38,213.52,661.63,214.1,660.69,214.26Z"/><path d="M644.6,135.7l-1-.76C644.54,134.57,644.6,134.61,644.6,135.7Z"/><path d="M736.19,151.66a3,3,0,0,1-.76-.95C736.21,150.4,736.21,150.4,736.19,151.66Z"/><path d="M620.69,179.72c-.15.56-.15,1.2-.78,1.52A1.49,1.49,0,0,1,620.69,179.72Z"/><path d="M735.24,150.52l-1-.77C735.19,149.38,735.24,149.43,735.24,150.52Z"/><path d="M684.88,209a1.57,1.57,0,0,1-1.07-.79C684.37,208.2,685,208.13,684.88,209Z"/><path d="M670.49,148.78l-.19-1.14a.72.72,0,0,1,.69.62C671,148.6,670.8,148.74,670.49,148.78Z"/><path d="M690.22,151,690,151c-.33-.51-.9-.28-1.34-.44h0c.09-.49.46-.46.8-.38S690.28,150.46,690.22,151Z"/><path d="M730.5,148l-1-.19c0-.41.16-.58.57-.53S730.47,147.7,730.5,148Z"/><path d="M646.54,144.6c.17-.23.07-.57.32-.77.47,0,.48.4.38.7S646.79,144.7,646.54,144.6Z"/><path d="M703.12,195.64a2.73,2.73,0,0,1,.76-1.17,1.55,1.55,0,0,1-.25,1.15C703.48,195.82,703.3,195.91,703.12,195.64Z"/><path d="M649,205l1.4.89C649.68,206,649.12,205.82,649,205Z"/><path d="M622.94,142.11l.74-1C623.73,142.26,623.68,142.32,622.94,142.11Z"/><path d="M596,142.7l.95,0a.37.37,0,0,1,0,.54c-.32-.05-.69.13-.95-.19A.26.26,0,0,1,596,142.7Z"/><path d="M705.63,217.31c.47.14.57.59.79.94C705.83,218.21,705.21,218.2,705.63,217.31Z"/><path d="M691.91,151.87l-.93-.46c.06-.39.34-.4.61-.3S691.93,151.56,691.91,151.87Z"/><path d="M638.38,187.52a2.89,2.89,0,0,1-1,1.48C637.21,188.17,638,188,638.38,187.52Z"/><path d="M624.83,135.87a2.88,2.88,0,0,1-.44-1.31C625.11,134.81,625.17,135.27,624.83,135.87Z"/><path d="M687.18,150.27h-1.9c.12-.7.45-.35.76-.16h.19C686.9,149.61,687.05,149.64,687.18,150.27Z"/><path d="M662.47,139.26c.25-.31.63-.11.93-.22,0,.27.06.57-.34.61S662.5,139.63,662.47,139.26Z"/><path d="M671.62,216.32c.36.43.85.77,1,1.36A1.16,1.16,0,0,1,671.62,216.32Z"/><path d="M691.72,133.25l-.94-.78C691.59,132.16,691.68,132.23,691.72,133.25Z"/><path d="M623.93,133.59l-.62-1.1c.18-.34.39-.11.59,0a1,1,0,0,1,.19,1.14Z"/><path d="M687.68,194.89l.58-.95C688.79,194.7,688.42,194.91,687.68,194.89Z"/><path d="M675.37,142.52a3.15,3.15,0,0,1,.69,1.1C675.32,143.57,675,143.28,675.37,142.52Z"/><path d="M715.52,150.11l.19-.77c.1-.11,0-.28.16-.37C716.48,149.54,716.42,149.74,715.52,150.11Z"/><path d="M707.5,157.11c.26-.32.63-.12.94-.22,0,.27.06.57-.35.61S707.54,157.48,707.5,157.11Z"/><path d="M659.44,158.3h2.84A5.27,5.27,0,0,1,659.44,158.3Z"/><path d="M666.26,123.19l-.93-.45c0-.39.32-.4.6-.3S666.28,122.88,666.26,123.19Z"/><path d="M609.85,124.63c.55.17.85.69,1.33,1A1.26,1.26,0,0,1,609.85,124.63Z"/><path d="M691.24,207.29a1.68,1.68,0,0,1-1,.52C690.22,207,690.66,207,691.24,207.29Z"/><path d="M639.48,133.21l.19.15H637c0-.32.17-.28.37-.17Z"/><path d="M640.05,150a1.43,1.43,0,0,1,.93-.29c0,.25.08.55-.27.61S640.12,150.36,640.05,150Z"/><path d="M689.24,192.44a3.17,3.17,0,0,1,.78-1C689.92,191.93,690.36,192.81,689.24,192.44Z"/><path d="M603.6,138.72l.38-.95c.22.26.45.53.25.9S603.82,138.85,603.6,138.72Z"/><path d="M533.08,169.64a.49.49,0,0,1-.47.4c-.26,0-.32-.13-.29-.34s-.07-.4.25-.36A.56.56,0,0,1,533.08,169.64Z"/><path d="M687,130.71l-1-.19c0-.31.18-.55.52-.51S687,130.39,687,130.71Z"/><path d="M648.41,210.86a2,2,0,0,1-1.16-.32C647.85,209.88,648.12,210.42,648.41,210.86Z"/><path d="M609.25,133.21c0,.42-.39.62-.49,1-.35,0-.38-.13-.25-.4C608.53,133.3,608.84,133.19,609.25,133.21Z"/><path d="M571.62,205.36a2.5,2.5,0,0,1-.53,1.14C570.56,205.8,571.17,205.62,571.62,205.36Z"/><path d="M617.63,129.21l-1.89,0c0-.27.17-.29.37-.16a2.37,2.37,0,0,0,.91-.14C617.3,128.79,617.58,128.81,617.63,129.21Z"/><path d="M664.18,122.35l-1-.28c.11-.28.29-.5.63-.4S664.19,122.06,664.18,122.35Z"/><path d="M678.82,146.14l.38.2a1,1,0,0,0,.77.34l.2.19C679.19,147.21,678.93,147.07,678.82,146.14Z"/><path d="M737.18,158.84l.3-1c.28.12.49.3.38.63S737.47,158.85,737.18,158.84Z"/><path d="M682.83,150.68c-.25.31-.63.26-1,.38-.18-.12-.28-.32-.1-.46C682.12,150.34,682.49,150.52,682.83,150.68Z"/><path d="M684,150.47l-.57.17c.36-.89.55-.95,1.14-.36C684.37,150.48,684.11,150.31,684,150.47Z"/><path d="M653.19,144.23a1.8,1.8,0,0,1-.77,1C652.36,144.64,652.33,144.09,653.19,144.23Z"/><path d="M645,208.1a4.41,4.41,0,0,1,0-2.57C645,206.39,645,207.24,645,208.1Z"/><path d="M722.33,163.42a2.59,2.59,0,0,1,.95.58C722.63,164.34,722.29,164.19,722.33,163.42Z"/><path d="M591.38,206.5a10.3,10.3,0,0,1-.14,2.54A7.48,7.48,0,0,1,591.38,206.5Z"/><path d="M693.48,142l.36-.77c.3.17.47.39.26.73S693.7,142.07,693.48,142Z"/><path d="M633.6,148.75l1.32.62c-.33.53-.64.12-.95,0h-.19C633.58,149.19,633.39,149,633.6,148.75Z"/><path d="M721.78,149.35c-.17.45-.58.6-1,.78C720.68,149.3,721.21,149.3,721.78,149.35Z"/><path d="M632.27,147.8c.28.17.63.22.76.58a.43.43,0,0,1-.63.13A.49.49,0,0,1,632.27,147.8Z"/><path d="M676.94,155.81l-.23.94c-.41-.05-.38-.35-.35-.63S676.69,155.81,676.94,155.81Z"/><path d="M726.32,147.8l-.94,0c0-.32.13-.57.49-.56S726.29,147.52,726.32,147.8Z"/><path d="M700.67,155.83a2.65,2.65,0,0,1,1,.52C701,156.8,700.71,156.51,700.67,155.83Z"/><path d="M696.7,145.37l-.23.94c-.41-.06-.38-.36-.34-.63S696.45,145.37,696.7,145.37Z"/><path d="M718.12,157.32c0,.33.4.58.2,1-.24,0-.51,0-.54-.33S717.73,157.38,718.12,157.32Z"/><path d="M658.48,139.13c.37-.21.62.19.95.18,0,.39-.34.36-.61.34S658.49,139.37,658.48,139.13Z"/><path d="M703.52,157c.37-.2.62.2,1,.19-.06.39-.34.36-.61.34S703.53,157.22,703.52,157Z"/><path d="M701.93,197l.82-.95C703.11,196.9,702.64,197,701.93,197Z"/><path d="M656.59,122.6a2.64,2.64,0,0,1-1,.52C655.68,122.44,655.93,122.14,656.59,122.6Z"/><path d="M694.05,140.23v-2.46A4.05,4.05,0,0,1,694.05,140.23Z"/><path d="M684.14,167.38l.57,0c.11.09.29,0,.38.16-.05.4-.34.39-.63.36S684.15,167.62,684.14,167.38Z"/><path d="M679.21,165.08c.38.18.79.34,1,.78C679.6,165.91,679.06,165.92,679.21,165.08Z"/><path d="M700.28,141.35l-.93.61C699.29,141.19,699.58,141,700.28,141.35Z"/><path d="M656.59,157.68l.94.24c-.06.4-.36.37-.63.33S656.6,157.92,656.59,157.68Z"/><path d="M646.7,124.09l0-.57c.09-.11,0-.29.15-.38.4,0,.4.33.37.62S647,124.08,646.7,124.09Z"/><path d="M737.57,155.05l-.13-.55c.27,0,.58-.09.64.31s0,.56-.35.61C737.58,155.34,737.66,155.16,737.57,155.05Z"/><path d="M737.57,155.05l.16.37c-.1.69.18,1.41-.17,2.08Z"/><path d="M677.7,163.34a2,2,0,0,1,.77,1C677.68,164.41,677.63,163.92,677.7,163.34Z"/><path d="M697.26,152.73a2,2,0,0,1,.77,1C697.27,153.78,697.21,153.3,697.26,152.73Z"/><path d="M703.11,210.49v2.27A3.53,3.53,0,0,1,703.11,210.49Z"/><path d="M687.18,150.27c-.22-.65-.61-.27-.95-.16.53-.77.85-.7,1.31.25Z"/><path d="M500.15,197a6.76,6.76,0,0,1,2.33-.14A6.77,6.77,0,0,1,500.15,197Z"/><path d="M718.74,153c0,.36,0,.73-.38.95C718,153.39,718.1,153.07,718.74,153Z"/><path d="M572.56,120.49v2.27A3.46,3.46,0,0,1,572.56,120.49Z"/><path d="M619.64,125.78l1.21-.78C620.76,125.75,620.21,125.79,619.64,125.78Z"/><path d="M653.4,210.51a3.1,3.1,0,0,1-1.37.32C652.46,210.59,652.78,209.9,653.4,210.51Z"/><path d="M613.83,129.59l-.74.21c-.32-.27-.11-.44.14-.53S613.78,129.19,613.83,129.59Z"/><path d="M596.92,143.27v-.54h.38c.21.26.52.05.76.16C597.87,143.58,597.3,143.14,596.92,143.27Z"/><path d="M610.06,142.23c.42,0,.61.32.76.65C610.08,143.23,610,142.8,610.06,142.23Z"/><path d="M597.67,111.53h-2.08c.55-.33,1.14-.08,1.71-.17Z"/><path d="M603.79,119.34v-2.08c.32.61.09,1.27.16,1.9C604,119.33,603.93,119.35,603.79,119.34Z"/><path d="M662.28,141.19l-.57,0c-.11-.1-.29,0-.38-.16C661.78,140.41,662.1,140.47,662.28,141.19Z"/><path d="M584.79,122.57v-2.08c.32.61.09,1.27.16,1.9C585,122.56,584.93,122.58,584.79,122.57Z"/><path d="M660,141.15l-.58,0c.2-.7.51-.76,1-.18C660.29,141.13,660.12,141.06,660,141.15Z"/><path d="M647.12,140.62l.16.37c-.09.57.16,1.16-.16,1.7Z"/><path d="M619,129.57l-.76-.19c0-.26.12-.52.43-.46S619,129.29,619,129.57Z"/><path d="M657.91,158.11c.36-.2.63.19,1,.14C658.46,158.84,658.14,158.82,657.91,158.11Z"/><path d="M670.68,129.23l-.13-.55c.77.09.88.39.3.92C670.69,129.52,670.78,129.33,670.68,129.23Z"/><path d="M653.72,206.11c.48-.28,1-.13,1.52-.22C654.85,206.75,654.21,205.89,653.72,206.11Z"/><path d="M633,159.59l-.57,0c-.11-.1-.29,0-.38-.16C632.51,158.83,632.83,158.89,633,159.59Z"/><path d="M553.37,200.24a2.65,2.65,0,0,1-.52,1.16C552.45,200.75,553,200.55,553.37,200.24Z"/><path d="M651.25,151.44c0,.33.41.57.19.94C650.75,152.19,650.67,151.88,651.25,151.44Z"/><path d="M612.34,126.09l1.54.45-.24,0a.9.9,0,0,1-.95,0A.5.5,0,0,1,612.34,126.09Z"/><path d="M637.4,150h2.08A3,3,0,0,1,637.4,150Z"/><path d="M696.26,147.45v2.08A2.92,2.92,0,0,1,696.26,147.45Z"/><path d="M715.71,147.64l-.11-.54c.77.1.87.41.27.92C715.73,147.93,715.81,147.75,715.71,147.64Z"/><path d="M593.32,124.64c.35.06.77,0,1,.39C593.81,125.27,593.39,125.37,593.32,124.64Z"/><path d="M505.2,184.3a3,3,0,0,1-1.37.16c-.56,0-.44-.27-.21-.57C504,184.69,504.69,184.09,505.2,184.3Z"/><path d="M620.86,130.34l-.58-.32c0-.17,0-.43.31-.33S621.06,130,620.86,130.34Z"/><path d="M727.26,167.6l-1.17-.58C726.58,167,727.11,166.92,727.26,167.6Z"/><path d="M618.31,223.56a4.28,4.28,0,0,1,2-.13c0,.14,0,.24-.19.16Z"/><path d="M572.41,222.8a2.44,2.44,0,0,1,.94.43C572.84,223.54,572.51,223.43,572.41,222.8Z"/><path d="M627.35,164a1.3,1.3,0,0,1-.37,1C626.5,164.38,627,164.21,627.35,164Z"/><path d="M503.55,196.79a5.43,5.43,0,0,1,2-.13A4.69,4.69,0,0,1,503.55,196.79Z"/><path d="M686,150.11c-.27,0-.59-.27-.76.16h-.19c0-.25,0-.51.34-.54S686,149.71,686,150.11Z"/><path d="M638.53,131.34l.57,0c0,.27-.12.49-.42.53s-.31-.15-.34-.35A.33.33,0,0,1,638.53,131.34Z"/><path d="M636.82,131.31l.39,0c.16.14.41,0,.56.16C637.32,132.09,637,132,636.82,131.31Z"/><path d="M636.42,190.55a2,2,0,0,1-.53.81C635.57,190.76,635.82,190.54,636.42,190.55Z"/><path d="M676.5,159.78l-.16-.37c.08-.5-.16-1,.17-1.51Z"/><path d="M618.92,179.74a.6.6,0,0,1-.36-.55c.13-.2.29-.23.44-.05A.35.35,0,0,1,618.92,179.74Z"/><path d="M584.79,122.57l.16-.18c.2.1.41.22.29.49s-.39.26-.64.26Z"/><path d="M603.79,119.34l.16-.18c.2.11.41.23.29.49s-.39.27-.64.27Z"/><path d="M562,138.33v-1.89A2.43,2.43,0,0,1,562,138.33Z"/><path d="M589.48,117.45v1.7c-.13,0-.23,0-.15-.18C589.39,118.46,589.16,117.93,589.48,117.45Z"/><path d="M623.93,119.72V118A2,2,0,0,1,623.93,119.72Z"/><path d="M589.32,119l.15.18.06.58C589,119.6,588.7,119.41,589.32,119Z"/><path d="M567.46,124.06h-1.7A2.06,2.06,0,0,1,567.46,124.06Z"/><path d="M616.11,129l-.37.16-.39,0c0-.27.12-.49.42-.53S616.08,128.83,616.11,129Z"/><path d="M633.61,134.54c-.35.16-.52.58-1,.6C632.68,134.46,633.17,134.54,633.61,134.54Z"/><path d="M608.49,134.73c.2.32-.07.52-.2.75C607.75,135.07,607.94,134.85,608.49,134.73Z"/><path d="M608.29,137.76l0,.39c-.22.1-.43.15-.52-.16s.08-.39.34-.42A.37.37,0,0,1,608.29,137.76Z"/><path d="M608.48,139.28c.08.19.31.33.19.58s-.41.13-.5-.15S608.22,139.31,608.48,139.28Z"/><path d="M660,141.15l.37-.16h1l.38.16Z"/><path d="M596,142.7v.38c-.38-.13-1,.31-1.14-.38.26-.13.5.13.75,0Z"/><path d="M629.76,142.89l0,.38c-.22.1-.43.16-.52-.14s.07-.4.33-.43A.31.31,0,0,1,629.76,142.89Z"/><path d="M574,147.44v-1.7A2,2,0,0,1,574,147.44Z"/><path d="M715.71,147.64l.16.38V149l-.16.37Z"/><path d="M549,149.94h1.7A2,2,0,0,1,549,149.94Z"/><path d="M589.86,137.2c.14.23.39.43.2.75C589.51,137.83,589.32,137.61,589.86,137.2Z"/><path d="M635.89,179.72a1.27,1.27,0,0,1,.34-.76C636.61,179.34,636.61,179.34,635.89,179.72Z"/><path d="M635.13,181.43a1.27,1.27,0,0,1,.34-.76C635.85,181.05,635.85,181.05,635.13,181.43Z"/><path d="M634.37,183.14a1.27,1.27,0,0,1,.34-.76C635.09,182.76,635.09,182.76,634.37,183.14Z"/><path d="M633.61,184.85a1.27,1.27,0,0,1,.34-.76C634.32,184.47,634.32,184.47,633.61,184.85Z"/><path d="M554,187.13v-1.7A2,2,0,0,1,554,187.13Z"/><path d="M632.85,186.56a1.27,1.27,0,0,1,.34-.76C633.56,186.18,633.56,186.18,632.85,186.56Z"/><path d="M669.35,190.92a4.87,4.87,0,0,1,.14-1.78C669.45,189.74,669.66,190.35,669.35,190.92Z"/><path d="M635.84,191.5a2.17,2.17,0,0,1-.54.88C635.35,192,635.12,191.46,635.84,191.5Z"/><path d="M697.82,198.18h1.7A2.1,2.1,0,0,1,697.82,198.18Z"/><path d="M687.42,209.17a2.26,2.26,0,0,1-1.82,0Z"/><path d="M632.28,187.89a1.39,1.39,0,0,1,.34-.77C633,187.5,633,187.5,632.28,187.89Z"/><path d="M600.34,222.29H602A2,2,0,0,1,600.34,222.29Z"/><path d="M684.17,202.32a1.36,1.36,0,0,1,.32-.77C685,202.06,684.41,202.12,684.17,202.32Z"/><path d="M538.19,157.51l0,1.51A1.56,1.56,0,0,1,538.19,157.51Z"/><path d="M611.76,111.76a1.17,1.17,0,0,1-.77.39C611,111.58,611.31,111.51,611.76,111.76Z"/><path d="M634,149.35c.32,0,.62.39.95,0,.13-.05.17,0,.2.15A.69.69,0,0,1,634,149.35Z"/><path d="M593.33,112.14a1.17,1.17,0,0,1-.77.39C592.59,112,592.88,111.89,593.33,112.14Z"/><path d="M636.66,177.83l.32-.59c.15.09.39.15.26.39S636.88,177.82,636.66,177.83Z"/><path d="M631.71,189.22a1.39,1.39,0,0,1,.34-.77C632.55,189,632,189,631.71,189.22Z"/><path d="M573.53,201.37a1.25,1.25,0,0,1-.35.77C572.69,201.61,573.29,201.57,573.53,201.37Z"/><path d="M684.54,201.37a1.26,1.26,0,0,1,.34-.77C685.37,201.12,684.78,201.17,684.54,201.37Z"/><path d="M617.25,126.59l.37-.07c-.1.56-.28.86-.75.23C617,126.62,617.14,126.69,617.25,126.59Z"/><path d="M574.08,200.05a1.13,1.13,0,0,1-.31.76C573.25,200.3,573.84,200.25,574.08,200.05Z"/><path d="M609.69,141.74l.18.19c-.78.06-1-.22-.61-.94a.12.12,0,0,1,0,.14C609.39,141.36,609.45,141.61,609.69,141.74Z"/><path d="M617.25,126.59l-.38.16-1.21,0A4.48,4.48,0,0,1,617.25,126.59Z"/><path d="M630.24,127.1c.16.16.38.28.33.57-.22.25-.32,0-.43-.12S630,127.21,630.24,127.1Z"/><path d="M633.57,195.87a1.29,1.29,0,0,1-.34.76C632.74,196.11,633.33,196.07,633.57,195.87Z"/><path d="M595.41,219a.81.81,0,0,1,.6.76C595.48,219.78,595.38,219.44,595.41,219Z"/><path d="M659.81,204.39l.57-.32c0,.21,0,.45-.18.57S659.9,204.54,659.81,204.39Z"/><path d="M505.77,159.81a3.63,3.63,0,0,1-1.57.14C504.7,159.63,505.24,159.85,505.77,159.81Z"/><path d="M688.35,193.78a1.76,1.76,0,0,1,.53-.79C688.89,193.38,689,193.82,688.35,193.78Z"/><path d="M632.07,159.41l.38.16h-1.51C631.28,159.27,631.69,159.46,632.07,159.41Z"/><path d="M543.72,155.64h1.51A1.56,1.56,0,0,1,543.72,155.64Z"/><path d="M507.67,184.11a3.48,3.48,0,0,1-1.57.14C506.6,183.94,507.14,184.15,507.67,184.11Z"/><path d="M589.73,193a4.28,4.28,0,0,1,.14-1.59c0,.47,0,.94,0,1.41C590,193,589.88,193,589.73,193Z"/><path d="M526.61,206.31a1.55,1.55,0,0,1,0-1.53Z"/><path d="M726.47,191.1A3.43,3.43,0,0,1,728,191C727.53,191.27,727,191.06,726.47,191.1Z"/><path d="M510.14,183.92a3.48,3.48,0,0,1-1.57.14C509.07,183.75,509.61,184,510.14,183.92Z"/><path d="M728.93,190.91a3.48,3.48,0,0,1,1.57-.14C730,191.09,729.45,190.87,728.93,190.91Z"/><path d="M593.33,141.93a.29.29,0,0,1,.16,0c-.56.37-.91.15-1.13-.41a.29.29,0,0,1,.4,0h0C592.89,141.76,593.13,141.81,593.33,141.93Z"/><path d="M572.25,130.16v-1.5A1.59,1.59,0,0,1,572.25,130.16Z"/><path d="M597.87,129h-1.52c0-.15,0-.26.19-.16h1a.26.26,0,0,1,.2-.1C597.82,128.78,597.9,128.85,597.87,129Z"/><path d="M592.75,130.19c-.12.23-.27.42-.57.4C592.2,130.21,592.13,129.71,592.75,130.19Z"/><path d="M574.22,223.38a3.93,3.93,0,0,1,1.6-.14C575.31,223.56,574.76,223.34,574.22,223.38Z"/><path d="M539.16,223.42h1.51A1.51,1.51,0,0,1,539.16,223.42Z"/><path d="M604.17,134.73,604,134h.35a.51.51,0,0,1,.22.7C604.48,134.83,604.32,134.83,604.17,134.73Z"/><path d="M531.91,169.38l-.28.24a1.19,1.19,0,0,1-.24-.36s.14-.21.23-.22S531.93,169.1,531.91,169.38Z"/><path d="M604.17,134.73c.6-.14.25-.48.16-.76.39,0,.39.31.37.6s-.28.34-.53.35Z"/><path d="M585.28,135.31c-.17-.07-.14-.22-.16-.36.19-.27.39-.21.49.05S585.45,135.27,585.28,135.31Z"/><path d="M608.29,137.76l-.16-.19c.06-.44-.15-.91.16-1.32Z"/><path d="M624.69,138.33v-.19c.25,0,.51,0,.53.35s0,.57-.37.6C624.73,138.85,625,138.54,624.69,138.33Z"/><path d="M624.69,138.33c.6.14.25.48.16.76h-.35Z"/><path d="M720.8,166.62a2.12,2.12,0,0,1-.75.9A.8.8,0,0,1,720.8,166.62Z"/><path d="M631.55,147.05l.18.19c-.88.15-.84-.42-.78-1l.18.23C631.26,146.67,631.3,146.94,631.55,147.05Z"/><path d="M684.45,147.62a4.43,4.43,0,0,1,1.58-.14C685.53,147.8,685,147.58,684.45,147.62Z"/><path d="M682.81,147.48a4.43,4.43,0,0,1,1.58.14C683.87,147.58,683.32,147.8,682.81,147.48Z"/><path d="M592.76,141.55h-.59c-.21-.16-.4-.32-.18-.61C592.44,140.91,592.56,141.28,592.76,141.55Z"/><path d="M661.13,203.62l.58-.37c0,.23.06.51-.2.63S661.22,203.77,661.13,203.62Z"/><path d="M685.08,222.24c.18-.3.5-.15.75-.23C685.65,222.31,685.55,222.92,685.08,222.24Z"/><path d="M597.68,128.84h-.19c.32-.61.63-.61,1,0C598.19,129,597.93,128.65,597.68,128.84Z"/><path d="M552.45,155.39h-1.32A1.3,1.3,0,0,1,552.45,155.39Z"/><path d="M632.09,129.37a.59.59,0,0,1,.56.4C632.1,130.16,632.16,129.67,632.09,129.37Z"/><path d="M637.42,176.12l.32-.59C638.2,176,637.85,176.1,637.42,176.12Z"/><path d="M591.45,131.32c0,.28-.09.51-.4.57C590.66,131.33,591.15,131.4,591.45,131.32Z"/><path d="M623,221.11a2.83,2.83,0,0,1,.14-1.38C623.09,220.2,623.29,220.68,623,221.11Z"/><path d="M637.77,131.5c-.2,0-.41,0-.56-.16h1.32l-.19.16Z"/><path d="M676,220.72a.59.59,0,0,1,.58.37C676,221.49,676.06,221,676,220.72Z"/><path d="M580.19,131.65h-1.32A1.35,1.35,0,0,1,580.19,131.65Z"/><path d="M598.06,142.89c-.28.09-.62.44-.76-.16l.76,0Z"/><path d="M554.52,197.58a.91.91,0,0,1-.32.77C553.75,197.86,554.35,197.81,554.52,197.58Z"/><path d="M694,196.86l.57.32C694.12,197.58,694,197.29,694,196.86Z"/><path d="M508.49,196.61a3.66,3.66,0,0,1,1.4-.15C509.45,196.77,509,196.57,508.49,196.61Z"/><path d="M624.09,133.59a3.41,3.41,0,0,0-.19-1.14A.7.7,0,0,1,624.09,133.59Z"/><path d="M557.77,132.79h-1.32A1.3,1.3,0,0,1,557.77,132.79Z"/><path d="M569.77,196.81a1.88,1.88,0,0,1,.53-.81C570.34,196.42,570.28,196.76,569.77,196.81Z"/><path d="M638.18,174.41l.32-.59C639,174.32,638.61,174.39,638.18,174.41Z"/><path d="M570.48,195.67a2.11,2.11,0,0,1,.59-.76C571.09,195.33,571,195.66,570.48,195.67Z"/><path d="M634.5,194l-.32.57C633.77,194.07,634.07,194,634.5,194Z"/><path d="M590.06,133.78c.16.31-.06.52-.2.75C589.26,134.1,589.86,134,590.06,133.78Z"/><path d="M638.94,172.7l.32-.58C639.72,172.61,639.37,172.68,638.94,172.7Z"/><path d="M617.82,145l.18,0a2.81,2.81,0,0,1,.87.11l.09.1C618.54,145.39,618.12,145.62,617.82,145Z"/><path d="M572.39,193.57a1.36,1.36,0,0,1,.78-.52C573.12,193.54,572.79,193.61,572.39,193.57Z"/><path d="M669.09,205.17l-.15.19c-.66-.43,0-.54.18-.76Z"/><path d="M557,192.26a.9.9,0,0,1-.32.77C556.21,192.55,556.82,192.49,557,192.26Z"/><path d="M724.15,191.29a2.79,2.79,0,0,1,1.4-.14C725.11,191.46,724.62,191.26,724.15,191.29Z"/><path d="M631,137c0,.27-.17.42-.34.59C630.34,137.2,630.37,137.15,631,137Z"/><path d="M687.74,167.42l-.37.16-1,0A3.32,3.32,0,0,1,687.74,167.42Z"/><path d="M689.59,146.29c.19-.31.53-.4.81-.57C690.38,146.26,690,146.33,689.59,146.29Z"/><path d="M547.55,153.33l0-1.32A1.26,1.26,0,0,1,547.55,153.33Z"/><path d="M685.09,167.58l-.38-.16a3.65,3.65,0,0,1,1.4.13Z"/><path d="M596.94,190.94c-.17.27-.24.63-.58.78C596.33,191.29,596.41,191,596.94,190.94Z"/><path d="M655.23,205.9a.91.91,0,0,1,.78-.15C655.87,206.39,655.52,206,655.23,205.9Z"/><path d="M629.76,140.24a3.44,3.44,0,0,1-.14,1.39C629.65,141.17,629.45,140.68,629.76,140.24Z"/><path d="M546,166.28h1.32A1.3,1.3,0,0,1,546,166.28Z"/><path d="M631.15,190.36l.33-.58C631.89,190.27,631.58,190.35,631.15,190.36Z"/><path d="M709.43,189.55c.13.44.33.88,0,1.31C709.41,190.42,709.42,190,709.43,189.55Z"/><path d="M589.87,190.81a3.47,3.47,0,0,1-.14-1.4C590,189.85,589.84,190.34,589.87,190.81Z"/><path d="M709.24,187.43a2.79,2.79,0,0,1,.14,1.4C709.07,188.39,709.27,187.9,709.24,187.43Z"/><path d="M543.55,159v-1.31A1.28,1.28,0,0,1,543.55,159Z"/><path d="M623.17,219a2.75,2.75,0,0,1,.14-1.39C623.28,218.1,623.48,218.58,623.17,219Z"/><path d="M696.48,207.29l-.76-.6C696.15,206.67,696.56,206.66,696.48,207.29Z"/><path d="M709.05,185.15a2.81,2.81,0,0,1,.14,1.41C708.88,186.11,709.08,185.62,709.05,185.15Z"/><path d="M547.32,161.09H546A1.26,1.26,0,0,1,547.32,161.09Z"/><path d="M590.69,114.24a.67.67,0,0,1-.37.57C589.86,114.24,590.4,114.32,590.69,114.24Z"/><path d="M703.89,182.8a.62.62,0,0,1-.39-.57C703.9,182.09,703.9,182.09,703.89,182.8Z"/><path d="M620.1,223.59l.19-.16.57,0C620.64,223.6,620.54,224.25,620.1,223.59Z"/><path d="M590.67,122.38c.31.06.39.28.4.56C590.77,122.87,590.28,122.93,590.67,122.38Z"/><path d="M591.61,123.49a.48.48,0,0,1,.57.39C591.63,124.27,591.69,123.78,591.61,123.49Z"/><path d="M612.69,126.56h.95C613.31,127.14,613,126.86,612.69,126.56Z"/><path d="M614.22,126.59a3.44,3.44,0,0,1,1.39.14C615.14,126.7,614.65,126.9,614.22,126.59Z"/><path d="M713.24,180.74c-.23.22-.52.14-.78.15C712.66,180.52,712.88,180.3,713.24,180.74Z"/><path d="M700.48,179.71l-.58-.34C700.42,178.92,700.46,179.3,700.48,179.71Z"/><path d="M652.79,177.28c-.13.25-.36.18-.58.19C652.29,177.05,652.47,176.93,652.79,177.28Z"/><path d="M654.3,177h-.57c0-.18.09-.35.33-.32S654.28,176.89,654.3,177Z"/><path d="M505.74,175.35a2,2,0,0,1,.14-1.18C505.86,174.57,506,175,505.74,175.35Z"/><path d="M728.32,164.9a2.58,2.58,0,0,1,1.23-.14C729.17,165.05,728.73,164.87,728.32,164.9Z"/><path d="M726.7,164.93l-.37-.17a2.62,2.62,0,0,1,1.21.14Z"/><path d="M538.43,162.63l0-1.13A.93.93,0,0,1,538.43,162.63Z"/><path d="M503.48,160a2.09,2.09,0,0,1-1.18.15C502.66,159.85,503.08,160,503.48,160Z"/><path d="M678.44,152.76v.79l-.19.19C678.2,153.39,678,153,678.44,152.76Z"/><path d="M651.09,149.85a2.72,2.72,0,0,1,.14,1.2C650.94,150.68,651.12,150.25,651.09,149.85Z"/><path d="M651.23,148.4a2.5,2.5,0,0,1-.14,1.21C651.12,149.21,650.94,148.78,651.23,148.4Z"/><path d="M619.33,144.57c0-.1.08-.16.2-.13,0,.41,0,.79-.57.73C618.83,144.82,619.24,144.79,619.33,144.57Z"/><path d="M595.58,142.73c-.26.3-.5.07-.75,0v-.16C595.14,142.39,595.36,142.57,595.58,142.73Z"/><path d="M629.76,142.89l-.16-.19c0-.34,0-.68,0-1A2.76,2.76,0,0,1,629.76,142.89Z"/><path d="M637.39,133.2l-.37.17-.39,0C636.85,133.19,637,132.55,637.39,133.2Z"/><path d="M611.18,131c-.09.28-.4.24-.57.39C610.69,131.05,610.63,130.56,611.18,131Z"/><path d="M597.68,128.84c.25-.35.51-.09.76,0l0,.27-.54-.11Z"/><path d="M596.54,128.84l-.19.16-.57,0C596,128.72,596.17,128.47,596.54,128.84Z"/><path d="M646.89,123.14l-.15.38v-1.13l.16.37Z"/><path d="M639.48,114.76a2.7,2.7,0,0,1-1.2-.14C638.68,114.65,639.1,114.47,639.48,114.76Z"/><path d="M637.66,114.62a2.62,2.62,0,0,1-1.21.14C636.82,114.46,637.26,114.65,637.66,114.62Z"/><path d="M511.62,210.21a2.41,2.41,0,0,1,.14,1.22C511.47,211.05,511.65,210.62,511.62,210.21Z"/><path d="M591.24,209.46a2.62,2.62,0,0,1,.14,1.21C591.08,210.29,591.26,209.86,591.24,209.46Z"/><path d="M511.76,208.21a2.26,2.26,0,0,1-.14,1.18C511.64,209,511.47,208.58,511.76,208.21Z"/><path d="M697.39,208.6c-.17-.06-.14-.22-.16-.36s.21-.25.33-.06S697.57,208.51,697.39,208.6Z"/><path d="M718.18,208.39a1.76,1.76,0,0,1,.15-1.17C718.29,207.61,718.47,208,718.18,208.39Z"/><path d="M630.9,204.79a2.06,2.06,0,0,1-.14,1.2C630.79,205.59,630.61,205.17,630.9,204.79Z"/><path d="M551.47,204.41a1.17,1.17,0,0,1-.33.79C550.89,204.78,551.19,204.6,551.47,204.41Z"/><path d="M684,222.45l.18-.16.57,0C684.51,222.57,684.3,222.81,684,222.45Z"/><path d="M712.83,222.09h.57c0,.15-.06.3-.25.32S712.86,222.28,712.83,222.09Z"/><path d="M631.68,200.61c.2.32-.08.52-.2.76C631.15,201,631.38,200.8,631.68,200.61Z"/><path d="M548.12,200.8a1.42,1.42,0,0,1,.33-.8C548.7,200.42,548.41,200.61,548.12,200.8Z"/><path d="M548.49,199.85a1.35,1.35,0,0,1,.34-.79C549.08,199.48,548.78,199.66,548.49,199.85Z"/><path d="M575.81,195.11c0,.27.07.55-.16.77C575.45,195.57,575.4,195.29,575.81,195.11Z"/><path d="M668.66,194.13l.12-.54c.19,0,.35.1.3.33S668.84,194.13,668.66,194.13Z"/><path d="M552.23,202.7a1.13,1.13,0,0,1-.33.78C551.65,203.07,552,202.89,552.23,202.7Z"/><path d="M693.47,192.83a.61.61,0,0,1-.19.58C692.93,193.08,693.05,192.9,693.47,192.83Z"/><path d="M705.4,188.13a2.27,2.27,0,0,1-.14-1.18c.15,0,.26,0,.16.18Z"/><path d="M669.49,188.17a2.44,2.44,0,0,1-.14-1.22C669.64,187.32,669.46,187.76,669.49,188.17Z"/><path d="M668.52,184.3c-.18-.07-.15-.23-.17-.37s.21-.25.33-.06S668.69,184.2,668.52,184.3Z"/><path d="M665.5,180.52l-.55-.43C665.55,179.7,665.5,180.15,665.5,180.52Z"/><path d="M610.81,179a1.16,1.16,0,0,1-.77.4C610.09,178.82,610.5,179,610.81,179Z"/><path d="M545.32,178.61a3,3,0,0,1-1.22.14C544.48,178.45,544.91,178.63,545.32,178.61Z"/><path d="M640.24,131.12c-.14.22-.36.18-.57.2l-.43,0A1.66,1.66,0,0,1,640.24,131.12Z"/><path d="M565.37,177a1.74,1.74,0,0,1-1-.15C564.72,176.91,565.08,176.76,565.37,177Z"/><path d="M560.83,129.55a1.87,1.87,0,0,1,.14,1C560.7,130.24,560.85,129.88,560.83,129.55Z"/><path d="M670.68,129.23c.06.12.12.24.17.37l0,.62A2,2,0,0,1,670.68,129.23Z"/><path d="M658.1,177a1.52,1.52,0,0,1-1-.15C657.44,176.91,657.8,176.76,658.1,177Z"/><path d="M707,218.79a.66.66,0,0,1,.63.4C707.28,219.22,707,219.26,707,218.79Z"/><path d="M561,128.28a2,2,0,0,1-.14,1C560.85,129,560.7,128.58,561,128.28Z"/><path d="M715.27,177.07c.1.23,0,.4-.16.57C714.81,177.35,714.87,177.16,715.27,177.07Z"/><path d="M685.87,179.73a.59.59,0,0,1-.59.4C685.29,179.71,685.58,179.72,685.87,179.73Z"/><path d="M684.35,180.68a.59.59,0,0,1-.58.4C683.77,180.67,684.06,180.67,684.35,180.68Z"/><path d="M645.58,180.87c-.06.33-.29.41-.58.4C645,180.86,645.29,180.86,645.58,180.87Z"/><path d="M607,181.25a.58.58,0,0,1-.58.4C606.43,181.24,606.72,181.24,607,181.25Z"/><path d="M670.49,151.24a1.75,1.75,0,0,1,.14-1C670.61,150.57,670.76,150.93,670.49,151.24Z"/><path d="M682.83,181.82a.48.48,0,0,1-.58.4C682.24,181.81,682.53,181.81,682.83,181.82Z"/><path d="M662.85,122a1.6,1.6,0,0,1-1-.14C662.18,121.85,662.55,121.7,662.85,122Z"/><path d="M660.06,121.83a1.56,1.56,0,0,1-1,.14C659.36,121.7,659.72,121.85,660.06,121.83Z"/><path d="M607.39,119.27a1.79,1.79,0,0,1,.14,1C607.25,120,607.41,119.61,607.39,119.27Z"/><path d="M605.49,182.39c-.06.32-.29.41-.58.4C604.91,182.37,605.2,182.38,605.49,182.39Z"/><path d="M684,150.47c.14-.21.37-.16.57-.19l.4,0A1.49,1.49,0,0,1,684,150.47Z"/><path d="M567.85,152h.94A.73.73,0,0,1,567.85,152Z"/><path d="M569.15,210.29c.11.25-.08.4-.18.57Q568.57,210.43,569.15,210.29Z"/><path d="M674.83,220c.29,0,.53.06.59.39C675.13,220.36,674.84,220.37,674.83,220Z"/><path d="M681.5,183a.51.51,0,0,1-.58.41C680.91,183,681.2,183,681.5,183Z"/><path d="M709.44,183c0,.23-.14.38-.25.55C708.91,183.17,709,183,709.44,183Z"/><path d="M661.15,213l-.16.19v-.94C661.23,212.41,661.12,212.7,661.15,213Z"/><path d="M534.44,184.66v-.94A.73.73,0,0,1,534.44,184.66Z"/><path d="M562.68,145.55a2.1,2.1,0,0,1-.13,1C562.56,146.24,562.41,145.87,562.68,145.55Z"/><path d="M541.41,152.2v.94A.7.7,0,0,1,541.41,152.2Z"/><path d="M668.93,208.21l.16.18,0,.39C668.71,208.69,668.63,208.5,668.93,208.21Z"/><path d="M633.6,148.75l.18.6c-.5-.06-.34-.46-.38-.75C633.56,148.54,633.57,148.66,633.6,148.75Z"/><path d="M537.06,160.33h-.94A.7.7,0,0,1,537.06,160.33Z"/><path d="M678.87,185.44a.53.53,0,0,1-.43.57C678.43,185.71,678.44,185.42,678.87,185.44Z"/><path d="M639.15,186.58a.52.52,0,0,1-.42.57C638.72,186.85,638.72,186.56,639.15,186.58Z"/><path d="M550.14,207.64a1.43,1.43,0,0,1-.33.79A.69.69,0,0,1,550.14,207.64Z"/><path d="M705.42,187.13l-.16-.18,0-.39C705.63,186.64,705.73,186.82,705.42,187.13Z"/><path d="M705.25,190.92a1.62,1.62,0,0,1,.15-1C705.38,190.27,705.54,190.63,705.25,190.92Z"/><path d="M675.06,190.19c0,.3-.19.44-.41.58C674.63,190.47,674.63,190.17,675.06,190.19Z"/><path d="M718.31,154.67a1.77,1.77,0,0,1-.14,1C718.18,155.33,718,155,718.31,154.67Z"/><path d="M591.56,204.79a1.59,1.59,0,0,1-.13,1C591.44,205.46,591.3,205.1,591.56,204.79Z"/><path d="M482.74,190.66a1.57,1.57,0,0,1,.14,1C482.6,191.37,482.75,191,482.74,190.66Z"/><path d="M678.06,221.72c.24-.12.38.1.56.19C678.33,222.16,678.14,222.11,678.06,221.72Z"/><path d="M709.19,191.12c.11.24-.08.39-.18.56C708.74,191.39,708.8,191.2,709.19,191.12Z"/><path d="M673.91,191.89a.7.7,0,0,1-.4.61C673.49,192.19,673.47,191.89,673.91,191.89Z"/><path d="M589.73,193l.16-.18c.3.3.23.48-.17.57Z"/><path d="M551,194a1.3,1.3,0,0,1,.35-.79A.66.66,0,0,1,551,194Z"/><path d="M550.34,195.29l.39-.8C550.76,194.84,550.73,195.15,550.34,195.29Z"/><path d="M669.28,203.46a1.42,1.42,0,0,1-.14,1C669.16,204.12,669,203.76,669.28,203.46Z"/><path d="M519.88,221.67a1.82,1.82,0,0,1,1-.14C520.59,221.81,520.22,221.65,519.88,221.67Z"/><path d="M696.68,198c.25-.13.37.14.56.19C696.94,198.44,696.76,198.37,696.68,198Z"/><path d="M548.87,198.9a1.44,1.44,0,0,1,.34-.79A.68.68,0,0,1,548.87,198.9Z"/><path d="M697.47,212.38a1.75,1.75,0,0,1,.14-1C697.59,211.71,697.74,212.07,697.47,212.38Z"/><path d="M534.75,161.69v.94A.7.7,0,0,1,534.75,161.69Z"/><path d="M562.55,146.6a2,2,0,0,1,.13,1C562.41,147.32,562.56,147,562.55,146.6Z"/><path d="M489.74,164.73l0,.94A.67.67,0,0,1,489.74,164.73Z"/><path d="M528.12,165.89l-.93-.06C527.52,165.61,527.83,165.55,528.12,165.89Z"/><path d="M591.78,203.27c.09.25-.12.38-.21.56C591.3,203.52,591.39,203.33,591.78,203.27Z"/><path d="M543,166.81v-.94A.68.68,0,0,1,543,166.81Z"/><path d="M568.79,141.15h-.94A.73.73,0,0,1,568.79,141.15Z"/><path d="M592,141l.18.61c-.53-.08-.34-.49-.37-.8Z"/><path d="M538.58,167.54h-.94A.7.7,0,0,1,538.58,167.54Z"/><path d="M647.6,222.05a1.56,1.56,0,0,1,1-.14C648.29,222.18,647.93,222,647.6,222.05Z"/><path d="M552.23,137V138A.73.73,0,0,1,552.23,137Z"/><path d="M541.06,167.79H542A.7.7,0,0,1,541.06,167.79Z"/><path d="M677.11,221.34c.24-.12.38.1.56.18C677.38,221.78,677.19,221.73,677.11,221.34Z"/><path d="M521.51,169.09v-.94A.7.7,0,0,1,521.51,169.09Z"/><path d="M529.47,168.36h.94A.68.68,0,0,1,529.47,168.36Z"/><path d="M510,172.5a1.43,1.43,0,0,1,1-.15C510.73,172.62,510.37,172.48,510,172.5Z"/><path d="M717,172.89c.11.24-.07.39-.18.57Q716.4,173,717,172.89Z"/><path d="M608.51,133.78a.4.4,0,0,0,.25.4c0,.18,0,.34-.24.38C608.43,134.3,608.16,134,608.51,133.78Z"/><path d="M709,220.52a.58.58,0,0,1,.58.4C709.33,220.93,709,220.94,709,220.52Z"/><path d="M703.72,214.83a.62.62,0,0,1,.41.58C703.7,215.42,703.7,215.13,703.72,214.83Z"/><path d="M623.3,173.08c.11.24-.07.39-.17.57C622.85,173.35,622.91,173.17,623.3,173.08Z"/><path d="M593.53,216.28c.18.18.4.35.39.65C593.45,216.91,593.5,216.59,593.53,216.28Z"/><path d="M716.41,174.22c.1.24-.06.39-.17.57C716,174.5,716,174.31,716.41,174.22Z"/><path d="M616.11,222.67c.24-.12.38.1.57.17C616.39,223.12,616.2,223.06,616.11,222.67Z"/><path d="M622.73,174.41c.11.24-.05.4-.17.57C622.28,174.69,622.34,174.5,622.73,174.41Z"/><path d="M670.67,132.06a1.84,1.84,0,0,1,.15-1C670.8,131.38,671,131.75,670.67,132.06Z"/><path d="M638.39,164.82a6.15,6.15,0,0,1-2.78-2.81,3.3,3.3,0,0,0-2.59-2.42.78.78,0,0,0-.62-.2c-.47.21-1,0-1.46.18a2.38,2.38,0,0,0-1.85,1.48,10.13,10.13,0,0,1-.79,1.22c-.54.45-.61,1.16-1,1.72h0a1.24,1.24,0,0,0-.37,1c-.71,1.62-1.38,3.26-2.15,4.85a21,21,0,0,1-1.53,3.3c-.11.17-.26.33-.17.57s-.24.52-.4.76-.27.33-.17.57q-.93,2.37-1.87,4.74c-.42.42-.46,1-.78,1.52a4.41,4.41,0,0,1-1-1.5.59.59,0,0,0-.36-.55c-.5-.55-1-1.12-1.51-1.65a1.9,1.9,0,0,0-2.64-.45c-1.22.6-2.4,1.25-3.6,1.88-.25.15-.59.11-.77.4l-3,1.88c-.19.14-.45.18-.58.4-.18.41-.65.46-.94.74s-.45.18-.58.4c-1,1.07-2.28,1.78-3.21,2.9-1.1.29-1.58,1.22-2.09,2.1a29.64,29.64,0,0,0-2.67,3.15c-.35.14-.42.5-.58.78a52.46,52.46,0,0,0-2.71,5.21,35,35,0,0,0-1.87,6.34.63.63,0,0,0-.21.56c.22.33-.16.64,0,1-.13.33,0,.69-.13,1s0,.47,0,.7c-.18.84.06,1.7-.14,2.54v.42c.17.39,0,.82.14,1.21a11.77,11.77,0,0,0,.29,1.53c.47,1.44,1.33,2.68,1.86,4.08a1,1,0,0,0,.39.65l1.49,2.08a1.72,1.72,0,0,0,.6.76c1.29,1.1,2.5,2.35,4.33,2.52a4.85,4.85,0,0,0,1.7,0,15.29,15.29,0,0,0,2.46-1.05c1.61-.82,3-1.93,4.57-2.89.49-.32.72-.49,1.07.26a4.45,4.45,0,0,0,2.69,2.74c1.13.35,2.19.88,3.28,1.33.17.11.34.26.57.17.51.32,1.22.17,1.63.72a5.69,5.69,0,0,1,1.93,0,.76.76,0,0,0,.62-.16,3.19,3.19,0,0,0,2.12-2.28c.17-.45-.05-.93.14-1.38,0-.23,0-.47,0-.71.16-.45,0-.94.14-1.39a33.41,33.41,0,0,1,1.05-6.75,123.65,123.65,0,0,1,6.79-20.52c.18-.15.37-.3.33-.58a.73.73,0,0,1,.23-.56c.11-.26.4-.44.34-.77a.7.7,0,0,1,.23-.56c.11-.26.4-.43.34-.77a.67.67,0,0,1,.23-.56c.11-.26.4-.43.34-.76a1.75,1.75,0,0,1,.42-1c.11-.25.4-.43.34-.76a1.75,1.75,0,0,1,.42-1c.11-.25.4-.43.34-.76a1.78,1.78,0,0,1,.42-.95c.11-.25.4-.43.34-.76a1.78,1.78,0,0,1,.42-.95c.11-.25.4-.43.34-.76.15-.38.29-.76.43-1.13.18-.16.38-.3.32-.59.14-.37.29-.75.44-1.12.19-.15.38-.3.32-.59l.44-1.12c.19-.15.38-.3.32-.59l.44-1.12c.19-.15.38-.3.32-.58.21-.55.44-1.09.63-1.65C640.69,168.14,640.59,166.3,638.39,164.82ZM614,198.1a39.25,39.25,0,0,0-1.83,6.63,1.52,1.52,0,0,1-.68,1c-.92.67-1.84,1.34-2.71,2.07a3.7,3.7,0,0,1-2,.72c-.92.12-1.48-.53-1.42-1.53a14.27,14.27,0,0,1,2.38-6.89,39.37,39.37,0,0,1,8.47-9.77c.25-.2.5-.38,1-.73C616,192.64,615,195.37,614,198.1Z"/><polygon points="653.73 206.11 653.73 206.11 653.72 206.11 653.73 206.11"/><path d="M669.49,189.14v-1c-.18-.4,0-.83-.14-1.22-.28-.89-.56-1.77-.83-2.65a.33.33,0,0,0-.17-.37,19.76,19.76,0,0,0-2.85-3.41c-.13-.21-.18-.53-.55-.43A18,18,0,0,0,658.1,177c-.32-.15-.68,0-1-.15a13.16,13.16,0,0,0-2.8.15.47.47,0,0,0-.57,0,1.31,1.31,0,0,1-.94.24.56.56,0,0,0-.58.19l-1.12.44a40,40,0,0,0-5.51,3c-.19.14-.44.18-.58.4a68.34,68.34,0,0,0-5.85,5.31c-.25.11-.28.38-.42.57l-.35.37a9.79,9.79,0,0,0-1,1.48l-1,1.55a1.09,1.09,0,0,0-.53.81.11.11,0,0,1,0,.14c-.38.17-.33.61-.54.88l-.8,1.59c-.17.15-.36.3-.32.57-.2.45-.4.89-.61,1.33-.11.25-.4.43-.34.76-.52,1.33-1,2.66-1.55,4a1.15,1.15,0,0,0-.2.76c-.19,1.14-.39,2.28-.58,3.42-.15.39,0,.82-.14,1.2a21.41,21.41,0,0,0,0,3.76,15.2,15.2,0,0,0,3.26,7,13.67,13.67,0,0,0,9.23,5.36,22.77,22.77,0,0,0,3.6,0l.71,0c.31-.17.68,0,1-.14a40.35,40.35,0,0,0,7.65-1.74c1.56-.58,2.94-1.33,3.35-3.16a12,12,0,0,1,1.09-2.75c.43-.27.41-.71.42-1.13s0-.63-.13-.93a4.24,4.24,0,0,0-2-2.39,3.37,3.37,0,0,0-2.26-.07l-3.37.77a3.1,3.1,0,0,0-1.37.32l-.35,0c-1.06.08-2.11,0-3.17,0l0,0-.05,0a1.29,1.29,0,0,0-1.16-.32c-1.17-.43-2.14-1-2.28-2.44a8.52,8.52,0,0,1,0-2.57h0a10.5,10.5,0,0,0,.37-2.16c.06-.33.08-.65.16-1,.19-.75.4-.53.7-.1a5.86,5.86,0,0,0,2.54,2.51l.24.21a2.3,2.3,0,0,0,1.4.89c.17.26.46.2.7.25.88-.05,1.77.37,2.64,0,.47-.31,1.07.25,1.51-.21.26-.08.56.1.78-.15s.62-.19.93-.27a2.36,2.36,0,0,0,1.92-.67,1.78,1.78,0,0,1,.95-.42c.28.05.42-.15.57-.32l.75-.45c.31,0,.45-.14.58-.37a31.64,31.64,0,0,0,3.43-3,18.87,18.87,0,0,0,3.52-6.09c.3-.13.21-.33.12-.54l.57-2.67C669.52,190.34,669.29,189.72,669.49,189.14Zm-17.88,8.06a35.13,35.13,0,0,1-4.54.89c2.54-3.34,4.54-6.8,7.57-9.45a3.87,3.87,0,0,1,2.29-1c.85-.06,1.13.33,1.13,1.11C658,193.3,656,196,651.61,197.2Z"/><path d="M680,146.68c-.41.24-.7.2-.77-.34A1,1,0,0,1,680,146.68Z"/><path d="M721.32,162.64c-.71,0-1.13-.24-1.06-1Z"/><path d="M688.67,150.51c.47.06,1.09-.31,1.34.44Z"/><path d="M680,152.17a.93.93,0,0,1,.95-.55A1.84,1.84,0,0,1,680,152.17Z"/><path d="M631.55,147.05c-.42,0-.43-.27-.42-.58C631.35,146.61,631.57,146.74,631.55,147.05Z"/><path d="M619.33,144.57c0,.31-.25.4-.37.6-.32,0-.7.13-1-.21A2.74,2.74,0,0,1,619.33,144.57Z"/><path d="M609.69,141.74c-.44,0-.42-.3-.4-.61A.72.72,0,0,1,609.69,141.74Z"/><path d="M593.33,141.93c-.28,0-.58,0-.58-.39A.57.57,0,0,1,593.33,141.93Z"/><path d="M157.47,142c10.89,0,21.79,0,32.68,0,1.4,0,1.69.4,1.64,1.69-.1,2.83,0,5.65,0,8.48,0,.41.26.92-.25,1.25a2.68,2.68,0,0,1-.44-2c0-2.37,0-4.74,0-7.11,0-1.12-.4-1.57-1.54-1.57-9.9,0-19.8,0-29.7,0-1.42,0-1.59.18-1.61,1.63,0,2.83,0,5.67,0,8.5q0,22.14,0,44.28a3.73,3.73,0,0,1-.45,2.55l-.28,0Z"/><path d="M235,162.53a17.39,17.39,0,0,1,9.64-5.87,17.63,17.63,0,0,1,8.14.18c4.51,1.19,7.49,4.8,8.16,9.87a27.41,27.41,0,0,1,.27,3.61c0,9.37,0,18.75,0,28.13,0,1.07-.25,1.41-1.37,1.39-3.48-.08-7-.08-10.45,0-1.22,0-1.43-.37-1.42-1.48,0-8.13,0-16.25,0-24.38,0-.55,0-1.11,0-1.67-.32-4.25-3-6.05-7.1-4.77a11.88,11.88,0,0,0-5.33,3.89c-.43.49-.29,1-.29,1.59,0,8.44,0,16.89,0,25.34,0,1.13-.24,1.51-1.43,1.48-3.52-.08-7.06-.05-10.59,0-.82,0-1.23-.11-1.23-1.11q0-20.19,0-40.38c0-.8.24-1,1-1,3.67,0,7.34,0,11,0,.75,0,1,.22.94.95C235,159.57,235,160.86,235,162.53Z"/><path d="M157.75,199.74q0-27.87,0-55.74c0-1.31.3-1.73,1.67-1.72q15.27.09,30.55,0c1.18,0,1.62.24,1.59,1.52-.1,3.2,0,6.41,0,9.61-6.08,0-12.17.09-18.25,0-1.32,0-1.75.27-1.7,1.66.1,3.33.07,6.68,0,10,0,.93.27,1.16,1.17,1.15,5.11,0,10.22,0,15.33,0,1,0,1.34.23,1.31,1.29-.08,2.69-.07,5.38,0,8.07,0,1-.2,1.34-1.28,1.33-5-.07-10,0-15.06-.06-1.14,0-1.49.27-1.48,1.45.06,6.68,0,13.36.06,20,0,1.16-.3,1.49-1.47,1.46C166,199.75,161.88,199.76,157.75,199.74Z"/><path d="M200.21,178.54c0-6.64,0-13.28,0-19.92,0-1.05.27-1.32,1.31-1.3,3.67.07,7.35.05,11,0,.84,0,1.09.19,1.09,1.07q0,20.13,0,40.26c0,.88-.2,1.19-1.14,1.17-3.63-.05-7.25-.06-10.88,0-1.07,0-1.41-.25-1.4-1.38C200.23,191.82,200.21,185.18,200.21,178.54Z"/><path d="M340.19,116.46l36.88-7.71,45.17-9.46a3.28,3.28,0,0,1,1,2.53.84.84,0,0,1-.28.31c-9,5.08-17.89,10.24-26.84,15.37-7.21,4.13-14.41,8.29-21.64,12.39a3.29,3.29,0,0,1-1.9.78c-.53-.73-1.23-1.39-1.08-2.43a61.15,61.15,0,0,1,7.11-4.09c8.68-4.85,17.42-9.59,26.12-14.41,4.75-2.63,9.52-5.24,14.07-7.73-4.27,1-8.81,2-13.34,3l-34,7.75c-9.7,2.22-19.41,4.38-29.1,6.62a2.37,2.37,0,0,1-1.64,0A4.47,4.47,0,0,1,340.19,116.46Z"/><path d="M369,168.14l-31.65-43.46a2.55,2.55,0,0,1,2.13-1.65,76.67,76.67,0,0,1,4.92,6c8.81,11.11,17.62,22.23,26.54,33.51-.5-3.94-1.12-7.68-1.66-11.43q-.93-6.39-1.87-12.79c-.08-.49-.28-1,.16-1.45a2.94,2.94,0,0,1,2-.21,2.3,2.3,0,0,1,.77,1.59Q373.2,150.61,376,163a2.92,2.92,0,0,1,.09,1.78,1.09,1.09,0,0,1-.93.48,8.84,8.84,0,0,0-5.56,2.71A.53.53,0,0,1,369,168.14Z"/><path d="M422.8,101.9l.29,0a1,1,0,0,1,1.4.66L382,166.94c-.2.31-.39.63-.59.95a.75.75,0,0,1-.84-.32c-.83-1.08-2.28-1.34-3.11-2.41a17,17,0,0,1,2.49-3.82q18.65-25.9,37.27-51.81C419.05,107,420.77,104.32,422.8,101.9Z"/><path d="M377.58,165.2a10.34,10.34,0,0,1,3.81,2.69,7.66,7.66,0,0,1-11.06,10.48,7.61,7.61,0,0,1-1.95-9c.19-.42.42-.82.63-1.24a8.4,8.4,0,0,1,7-3.25A1.22,1.22,0,0,1,377.58,165.2Z"/><path d="M199.3,142.06a7.55,7.55,0,0,1,7.59-7.59,7.61,7.61,0,1,1-7.59,7.59Z"/><path d="M339.32,123.17l-2,1.51c-3.4.95-5.81.31-7.46-2a6,6,0,0,1,9.17-7.67c.41.44.75.94,1.12,1.41a11.25,11.25,0,0,1,.61,2.92.86.86,0,0,1,.21.59,5.66,5.66,0,0,1-1.14,2.9A1.35,1.35,0,0,1,339.32,123.17Z"/><path d="M173.45,212.69c-.52,1.57-1,3.14-1.53,4.72-.22.7-.5,1.07-1.34,1.05a1.22,1.22,0,0,1-1.37-1c-.46-1.58-1-3.15-1.64-5.09-.25,1.95-.51,3.5-.61,5.06-.07,1-.67,1.07-1.42,1-.94-.1-.44-.75-.39-1.16.3-2.39.64-4.78,1-7.17.07-.51-.07-1.15.81-1.18s1.38,0,1.66,1c.59,2.08,1.32,4.13,2.07,6.44.78-2.33,1.52-4.37,2.14-6.45.25-.87.75-1,1.52-1,.95,0,.87.66.95,1.21.34,2.44.66,4.87,1,7.31.05.4.41,1-.43,1-.59,0-1.47.44-1.6-.73-.17-1.65-.4-3.3-.6-4.95Z"/><path d="M185.18,229.2c0,2.13,0,3.88,0,5.63,0,.73-.27.95-1,.95s-.83-.34-.83-.94c0-2.41,0-4.82,0-7.23,0-.45-.31-1.16.37-1.3s1.54-.26,2.1.6c1.21,1.84,2.5,3.63,3.94,5.72,0-1.91,0-3.51,0-5.11,0-.61-.23-1.3.88-1.3s1,.57,1,1.26c0,2.32,0,4.63,0,7,0,.46.29,1.15-.43,1.29a1.63,1.63,0,0,1-1.94-.63C188.05,233.2,186.7,231.37,185.18,229.2Z"/><path d="M307,229.73V227.5c0-.64-.15-1.28.92-1.28s1,.49,1,1.21c0,1.58,0,3.16,0,4.74-.1,2.55-1.46,3.8-4,3.79s-3.9-1.24-4-3.79c-.06-1.67,0-3.34,0-5,0-.77.31-.94,1-.92s1.05.09,1.05.89c0,1.76,0,3.53.08,5.28a1.73,1.73,0,0,0,2.07,1.88c1.25,0,1.84-.66,1.92-2.06a2.44,2.44,0,0,0,0-.27Z"/><path d="M424.49,102.54c-.47-.2-.81-.71-1.4-.66-.28-.86-.57-1.72-.85-2.59l.18-.66a3.48,3.48,0,1,1,6.84,1.26,3.46,3.46,0,0,1-4.09,2.82A5.63,5.63,0,0,1,424.49,102.54Z"/><path d="M224.71,231c0,2.56,1.82,3.86,4.18,2.91.75-.3,1-.06,1.27.49.41.75-.21.86-.64,1.08a3.43,3.43,0,0,1-.78.27c-.81.2-2.14.08-.69,1.45.51.48.13,1.15-.44,1.51a1.93,1.93,0,0,1-2.11.09c-.36-.23,0-.65.43-.68,1,0,.79-.11.53-1.1-.41-1.5-1.61-1.55-2.38-2.3a5.37,5.37,0,0,1-.88-6.28,5,5,0,0,1,5.92-2.14c.4.12,1.21.08,1,.81s-.47,1.16-1.51.85C226.28,227.28,224.68,228.62,224.71,231Z"/><path d="M157.85,213.62c0-1.25,0-2.5,0-3.75,0-.72.23-1,1-1,1.25.05,2.51.05,3.76,0,.74,0,.8.34.82.93s-.3.79-.85.76-.93,0-1.39,0c-.79-.06-1.28,0-1.27,1.06s.42,1.21,1.25,1.11a.32.32,0,0,1,.14,0c.59.2,1.67-.54,1.71.71,0,1.42-1.16.76-1.76.75-1,0-1.34.31-1.34,1.35s.37,1.3,1.3,1.19c.51-.05,1,0,1.53,0s.8.27.82.83-.15.86-.78.84c-1.35,0-2.7,0-4,0-.71,0-.86-.31-.85-.93C157.87,216.22,157.85,214.92,157.85,213.62Z"/><path d="M168.1,231c0-1.26,0-2.51,0-3.76,0-.73.23-1,1-1,1.25,0,2.51,0,3.76,0,.58,0,.82.18.84.8s-.22.93-.89.88c-.46,0-.93,0-1.39,0-.88-.08-1.32.1-1.33,1.17s.61,1,1.32,1a.66.66,0,0,1,.28,0c.55.18,1.51-.51,1.53.76s-.92.7-1.5.83-1.55-.46-1.62.88c-.06,1.18.22,1.76,1.51,1.56a12.87,12.87,0,0,1,1.39,0c.67,0,.75.35.74.88s-.13.79-.7.78c-1.39,0-2.78,0-4.18,0-.67,0-.72-.4-.71-.91C168.11,233.56,168.1,232.26,168.1,231Z"/><path d="M274.62,231c0-1.25,0-2.5,0-3.75,0-.72.22-1,1-1,1.2,0,2.41,0,3.61,0,.61,0,.94.14,1,.84s-.32.88-.93.84c-.46,0-.93,0-1.39,0-.81-.06-1.27.06-1.26,1.08s.36,1.21,1.21,1.11c.41,0,.84,0,1.25,0,.61,0,.67.31.66.78s0,.84-.64.82c-.33,0-.65,0-1,0-1.42,0-1.81.56-1.46,1.94.13.54.48.48.84.48.65,0,1.3,0,1.94,0s.84.17.85.79-.25.89-.9.88q-1.87-.06-3.75,0c-.71,0-1-.21-1-.95C274.65,233.54,274.62,232.24,274.62,231Z"/><path d="M255.6,230.93c0-1.21,0-2.41,0-3.61,0-.73.14-1.13,1-1.08,1.2.06,2.41,0,3.61,0,.71,0,.85.32.86.93s-.34.77-.88.74-.93,0-1.39,0c-.84-.08-1.22.14-1.23,1.12s.47,1,1.25,1.11,1.88-.73,1.84.78-1.18.71-1.81.73c-.93,0-1.29.23-1.28,1.24s.27,1.36,1.25,1.24c.55-.06,1.12,0,1.67,0s.73.4.73.92-.23.74-.75.74c-1.34,0-2.69,0-4,0-.73,0-.83-.37-.82-1C255.62,233.52,255.6,232.23,255.6,230.93Z"/><path d="M208.68,233.43c.74-2.19,1.43-4.19,2.08-6.21.21-.64.47-1,1.25-1,1,0,1.06.3.74,1.13-1,2.5-1.91,5-2.81,7.54a1.41,1.41,0,0,1-2.64,0c-.92-2.47-1.91-4.91-2.83-7.38-.13-.36-.71-1-.09-1.14s1.61-.55,2,.57c.67,1.92,1.35,3.84,2,5.75C208.46,232.84,208.53,233,208.68,233.43Z"/><path d="M196,214c0-1.61,0-2.87,0-4.12,0-.69.15-1,.92-1,1.25.06,2.51.05,3.76,0,.71,0,.85.3.86.92s-.31.8-.86.76a5.34,5.34,0,0,0-1,0c-.75.08-1.78-.48-1.76,1.11s1,.95,1.71,1a4.6,4.6,0,0,0,.83,0c.53,0,.59.32.59.73s0,.77-.54.77a8.37,8.37,0,0,1-1.12,0c-1.16-.19-1.51.29-1.46,1.44,0,.88.3,1.15,1.13,1.07.55-.06,1.12,0,1.67,0s.86.25.87.9-.27.82-.84.76h-.14c-1.48,0-3.5.52-4.3-.24C195.27,217.25,196.12,215.21,196,214Z"/><path d="M271.22,214c0-1.55,0-2.81,0-4.06,0-.68.15-1,.92-1,1.21.06,2.42,0,3.63,0,.63,0,.91.15.91.84s-.3.88-.92.84c-.42,0-.84,0-1.25,0-.7,0-1.36-.15-1.33,1s.39,1.29,1.31,1.18a10.43,10.43,0,0,1,1.25,0c.53,0,.56.36.56.76s-.07.74-.59.74a8.22,8.22,0,0,1-1.11,0c-1.08-.15-1.46.23-1.42,1.36,0,.92.3,1.24,1.2,1.15.55-.06,1.11,0,1.67,0s.77.31.78.87-.22.85-.81.79a.65.65,0,0,1-.14,0c-1.48,0-3.48.51-4.31-.24C270.52,217.25,271.4,215.21,271.22,214Z"/><path d="M253.6,218.64a4.49,4.49,0,0,1-2-.45c-.34-.17-1.06-.17-.67-.9.28-.54.51-1.14,1.33-.61a2.66,2.66,0,0,0,1.2.29c.69.06,1.36-.12,1.56-.86s-.42-1.05-.95-1.33-1.27-.6-1.85-1a2.59,2.59,0,0,1-1.21-3,2.55,2.55,0,0,1,2.29-2,4.7,4.7,0,0,1,2.47.22c.34.12,1.09.09.78.82-.21.5-.38,1.26-1.27.76a2.56,2.56,0,0,0-.8-.23c-.63-.09-1.27,0-1.53.63s.24,1.1.82,1.39c.41.2.84.39,1.25.6,1.66.84,2.31,2,1.94,3.42S255.36,218.64,253.6,218.64Z"/><path d="M284.43,236a4,4,0,0,1-1.94-.43c-.37-.18-1-.28-.56-1,.28-.46.48-1.06,1.23-.57a2.26,2.26,0,0,0,.92.29c.76.07,1.61.12,1.9-.76s-.52-1.16-1.12-1.49a16.67,16.67,0,0,1-1.94-1.09,2.54,2.54,0,0,1-.93-2.86,2.48,2.48,0,0,1,2.2-1.87,4.64,4.64,0,0,1,2.73.26c.33.15.94.18.59.82-.25.45-.34,1.06-1.19.75s-2-.75-2.39.45.93,1.25,1.64,1.67l.37.19c1.65.83,2.34,2,2,3.4S286.36,236,284.43,236Z"/><path d="M319,226.15a3.39,3.39,0,0,1,1.63.31c.31.17,1,.16.63.79-.23.45-.31,1.11-1.17.8s-2-.76-2.42.4.9,1.28,1.6,1.69a13.56,13.56,0,0,1,1.44.84,2.7,2.7,0,0,1-.65,4.66,4.71,4.71,0,0,1-3.92-.17c-.36-.16-.88-.29-.49-.87.28-.43.43-1.12,1.21-.62a1.73,1.73,0,0,0,.79.27c.78.09,1.71.24,2.05-.7s-.57-1.21-1.2-1.56c-.28-.16-.58-.28-.87-.43-1.62-.84-2.3-2.06-1.93-3.45S317.26,226.1,319,226.15Z"/><path d="M206.65,208.76c.38.09,1,.19,1.64.38.33.11.94.19.56.81-.25.41-.32,1.2-1.16.73a3,3,0,0,0-.66-.2c-.73-.19-1.48-.18-1.78.6s.39,1.12,1,1.43,1.35.63,2,1a2.55,2.55,0,0,1,1.14,2.65,2.59,2.59,0,0,1-1.88,2.19,4.88,4.88,0,0,1-3.78-.28c-.42-.2-.74-.45-.37-.93.25-.32.34-1,1-.6a2.78,2.78,0,0,0,2.14.34,1.09,1.09,0,0,0,.92-.92,1,1,0,0,0-.61-1c-.61-.33-1.25-.61-1.85-.95a2.87,2.87,0,0,1-1.59-3.35C203.69,209.51,204.9,208.75,206.65,208.76Z"/><path d="M263.74,213.72c0-1.2,0-2.41,0-3.61,0-.69-.06-1.21,1-1.23s1.05.54,1.05,1.29c0,1.81.05,3.62,0,5.42-.05,1,.33,1.31,1.27,1.21.5-.06,1,0,1.53,0s.82.21.81.81-.14.86-.77.84c-1.35,0-2.69,0-4,0-.62,0-.8-.23-.79-.82C263.76,216.32,263.74,215,263.74,213.72Z"/><path d="M279,213.65c0-1.29,0-2.58,0-3.88,0-.82.42-.85,1-.86s1,.12,1,.9q-.06,3.88,0,7.76c0,.83-.41.86-1,.87s-1-.12-1-.9C279.07,216.24,279,215,279,213.65Z"/><path d="M180.69,231.07c0,1.25,0,2.51,0,3.76,0,.74-.26.95-1,1s-1.07-.19-1.06-1c.05-2.5.05-5,0-7.51,0-.81.26-1,1-1s1,.35,1,1.09C180.66,228.56,180.69,229.82,180.69,231.07Z"/><path d="M259,213.66c0-1.3.05-2.59,0-3.89,0-.83.4-.85,1-.86s1,.11,1,.9q-.07,3.88,0,7.76c0,.83-.41.86-1,.87s-1-.12-1-.9C259.05,216.25,259,215,259,213.66Z"/><path d="M313.45,231c0,1.29-.05,2.59,0,3.88,0,.88-.41.94-1.1.95s-.93-.29-.92-1q0-3.8,0-7.61c0-.72.22-1,.95-1s1.11.14,1.07,1C313.4,228.46,313.45,229.71,313.45,231Z"/><path d="M235,223.61c.77,0,1.56.69,2.46.21.1,0,.46.28.6.49s-.1.51-.29.69a1.82,1.82,0,0,1-1.82.34c-.35-.09-.74-.34-1-.26-.64.17-1.38.28-1.42-.46S234.22,223.69,235,223.61Z"/><path d="M353.28,165.11c-4.86-10.74-19.48-11.27-25.52-4.1a8.84,8.84,0,0,1-.65.62c0-1.24-.07-2.25,0-3.24s-.27-1.07-1.09-1.06q-5.37.06-10.74,0c-.83,0-1.11.16-1.11,1.06q0,29.46,0,58.92c0,.85.22,1.1,1.08,1.08,3.54,0,7.07-.07,10.6,0,1.18,0,1.56-.21,1.54-1.48-.08-6.17,0-12.34,0-18.56a2.59,2.59,0,0,1,.32,0c9.92,5.47,21.47,1.86,26-8.41A29.51,29.51,0,0,0,353.28,165.11Zm-12.55,21a8.06,8.06,0,0,1-12.94,2.51,1.62,1.62,0,0,1-.41-1.38c0-2.65,0-5.29,0-7.93s0-5.29,0-7.93a1.9,1.9,0,0,1,.42-1.41c2.16-2.39,4.76-3.67,8-3.17a6.2,6.2,0,0,1,4.67,3.59A15.76,15.76,0,0,1,342,177,20,20,0,0,1,340.73,186.14Z"/><path d="M307.78,176.41c-.23-4.74-1-9.33-3.87-13.3-3.18-4.46-7.77-6.21-13-6.76-9.28-1-18.14,3.9-21.76,12.11a25.33,25.33,0,0,0-1.7,14.18c1.17,8,5.22,13.76,12.95,16.66a22.85,22.85,0,0,0,6.37,1.4c6.5.51,12.8-.13,18.63-3.38.75-.42.86-.73.47-1.47q-1.62-3.07-3.09-6.23c-.38-.82-.69-1.06-1.61-.58a20.66,20.66,0,0,1-9.68,2.22c-5.59,0-8.87-2.59-10-7.9-.22-1.06.07-1.24,1.05-1.23,3.95.05,7.9,0,11.86,0s8.08,0,12.13,0c.79,0,1.13-.13,1.18-1A43.94,43.94,0,0,0,307.78,176.41Zm-15.39-2.92h-4.46c-2,0-4,0-6,0-.78,0-1-.21-.78-.95a13.66,13.66,0,0,1,1.38-3.77c1.48-2.47,4.1-3.57,7.34-3.08,2.41.36,4.07,2,4.76,4.81C295.39,173.49,295.39,173.49,292.39,173.49Z"/><path d="M363.21,129.25c2.65-3,5.21-3.24,8.28-.82a8.85,8.85,0,0,1,1.16,2.11c.53,2.9-.32,4.65-3,6.25l-2,.38a4.43,4.43,0,0,1-4.54-2.23,5.8,5.8,0,0,1-.84-4C362.42,130.3,362.43,129.55,363.21,129.25Z"/><path d="M362.52,131l-21.9-8-.92-.32a12.19,12.19,0,0,0,1.08-2.65l22.43,9.23Z"/><path d="M298.11,236.67a1.92,1.92,0,0,1-2.34-.8c.42-.21.76-.36,1.08-.54a5.09,5.09,0,0,0,2.06-6c-.72-2.28-2.69-3.45-5.36-3.2a4.58,4.58,0,0,0-4.13,4.05c-.32,2.6.81,4.64,3.1,5.41a3.41,3.41,0,0,1,1.54,1.1,4.22,4.22,0,0,0,4.4,1.39c.36-.08.91-.19.62-.81C298.89,236.93,298.83,236.42,298.11,236.67Zm-3.83-2.36c-1.68,0-2.78-1.27-2.81-3.27s1.07-3.24,2.79-3.26S297,228.94,297,231,296,234.3,294.28,234.31Z"/><path d="M246,226.14a4.63,4.63,0,0,0-4.88,4.91,4.9,4.9,0,1,0,4.88-4.91Zm0,8.17c-1.67,0-2.79-1.38-2.75-3.35s1.07-3.15,2.76-3.18,2.76,1.16,2.76,3.26S247.73,234.33,246,234.31Z"/><path d="M162.31,226.43a26.26,26.26,0,0,0-3.19-.19c-1-.07-1.36.22-1.29,1.23s0,2.32,0,3.48v1.11c0,4.13.17,4.28,4.34,3.6a4.52,4.52,0,0,0,4-4.75C166.17,228.39,164.85,226.89,162.31,226.43Zm-1.56,7.79c-.58,0-.84-.18-.83-.79,0-1.58,0-3.15,0-4.73,0-.56.15-.8.78-.83a2.91,2.91,0,0,1,3.39,3.11A3,3,0,0,1,160.75,234.22Z"/><path d="M198.64,226.15a4.9,4.9,0,1,0,4.79,4.88A4.67,4.67,0,0,0,198.64,226.15Zm-.17,8.16c-1.69,0-2.76-1.3-2.76-3.3s1.09-3.23,2.83-3.23,2.74,1.24,2.73,3.29S200.22,234.32,198.47,234.31Z"/><path d="M288.38,214.3c1.76-1,2.24-1.85,1.9-3.36-.27-1.18-1.34-1.91-3-2-.83,0-1.67,0-2.5,0s-1.15.18-1.13,1.07c.06,2.45.05,4.91,0,7.37,0,.86.26,1.11,1.11,1.1s1.06-.31,1-1.06a12.15,12.15,0,0,1,0-1.81c0-.33-.22-.84.27-1s.62.34.83.64A12.1,12.1,0,0,1,288,217a2.17,2.17,0,0,0,3,1.25Zm-1.71-1.19c-1.05.09-1-.54-.91-1.24s-.28-1.47.92-1.36c.83.07,1.63.13,1.66,1.22S287.59,213,286.67,213.11Z"/><path d="M228.78,213.51c1.12-.69,1.72-1.56,1.36-2.83S228.6,209,227.4,209c-.83-.06-1.67,0-2.51,0s-1.15.2-1.12,1.08c.07,1.62,0,3.25,0,4.88,0,3.82,0,3.82,3.91,3.53,1.59-.12,2.64-.84,2.85-2A2.39,2.39,0,0,0,228.78,213.51Zm-2.1-3c.89,0,1.6.22,1.54,1.21s-.79,1.07-1.6,1.12c-1.14.07-.78-.73-.85-1.3C225.7,210.82,225.88,210.35,226.68,210.52Zm.13,6.43c-.94.12-1.16-.36-1-1.14.1-.62-.45-1.63,1.22-1.53.58,0,1.54.12,1.57,1.33S227.67,216.83,226.81,217Z"/><path d="M237.2,214.31c1.7-1,2.27-1.92,2-3.28s-1.45-2.05-3.37-2.1c-.74,0-1.49,0-2.23,0s-1.07.15-1.05,1c.05,2.5,0,5,0,7.51,0,.77.2,1,1,1s1.07-.25,1-1a20.62,20.62,0,0,1,0-2.08c0-.26-.11-.61.24-.72s.52.16.68.38a13.74,13.74,0,0,1,1.47,2.19c.62,1.31,1.58,1.44,3,1.1C238.94,216.91,238.1,215.64,237.2,214.31Zm-1.77-1.19c-1.18.09-.91-.7-.93-1.47s0-1.25,1-1.16c.91.08,1.73.24,1.68,1.35S236.34,213.06,235.43,213.12Z"/><path d="M191.63,214.31c1.77-1,2.23-1.8,1.9-3.27s-1.37-2-3.21-2.1c-.84,0-1.68,0-2.51,0-.57,0-.86.13-.86.77,0,2.64,0,5.29,0,7.94,0,.89.54.77,1.1.8s.92-.11.94-.83c0-1-.28-2.81.18-2.83,1.24-.05,1.59,1.47,2.13,2.42.7,1.25,1.6,1.45,3,1.09Zm-1.8-1.2c-1.36.06-.74-1-.85-1.54-.16-.81.18-1.22,1-1,1,0,1.65.25,1.61,1.31S190.73,213.07,189.83,213.11Z"/><path d="M219,217.32c-1-2.55-2-5.07-3-7.62-.21-.53-.46-.87-1.1-.78s-1.11-.18-1.39.57c-1.09,2.94-2.22,5.86-3.35,8.83,1.15.2,2.16.37,2.42-1.1,0-.21.14-.49.41-.49,1.06,0,2.13-.07,3.19,0,.74,0,.6.83.88,1.26.53.84,1.37.5,2,.35S219.11,217.63,219,217.32ZM215.67,215c-2.31.11-2.33.1-1.56-2.05a3.05,3.05,0,0,1,.68-1.49l1.16,3.37C215.81,215,215.74,215,215.67,215Z"/><path d="M246.37,209.5c-.25-.65-.73-.57-1.23-.58s-1,0-1.21.64c-1.06,2.9-2.19,5.78-3.32,8.74,1.28.3,2.2.23,2.45-1.15.09-.49.5-.46.87-.46.79,0,1.58,0,2.36,0,.4,0,.82,0,.89.47.28,1.65,1.43,1.3,2.63,1.19C248.64,215.34,247.49,212.43,246.37,209.5Zm-1.84,3.4c.15-.43.31-.86.58-1.62l1.28,3.67C243.74,215.21,243.74,215.21,244.53,212.9Z"/><path d="M300.74,217.68c-1.07-2.72-2.16-5.43-3.19-8.16-.26-.67-.74-.6-1.24-.59s-.91-.12-1.14.5c-1.1,2.94-2.23,5.87-3.38,8.89,1.15.17,2.13.41,2.39-1,0-.2.24-.52.38-.53a28.48,28.48,0,0,1,3.33,0c.64,0,.54.78.76,1.2.45.87,1.23.42,1.86.44S300.85,218,300.74,217.68ZM295,214.92l1.25-3.64c.25.69.43,1.16.59,1.63C297.7,215.3,297.7,215.3,295,214.92Z"/><path d="M240.1,234.68c-1-2.52-2-5.06-3-7.62a1.08,1.08,0,0,0-1.24-.82c-.5,0-1-.08-1.24.59-1,2.74-2.07,5.45-3.12,8.17-.11.31-.25.69.26.73.71.05,1.56.31,1.77-.77.15-.8.61-1.05,1.38-1a6.52,6.52,0,0,0,1.53,0c.86-.1,1.45.12,1.61,1,.12.76.68.76,1.3.72C240.25,235.88,240.48,235.6,240.1,234.68Zm-3.69-2.31h-1.95c.45-1.31.83-2.39,1.28-3.72.44,1.18.8,2.17,1.16,3.16C237.06,232.26,236.8,232.37,236.41,232.37Z"/><path d="M331.54,235c-1.05-2.72-2.13-5.43-3.17-8.15-.24-.64-.72-.6-1.23-.6s-1,0-1.2.66c-1.07,2.9-2.19,5.78-3.32,8.72,1.19.27,2.15.35,2.42-1.08,0-.21.12-.5.4-.51,1.06,0,2.13-.07,3.19,0,.74.05.6.84.87,1.28.49.81,1.24.41,1.88.41S331.64,235.24,331.54,235Zm-5-4.67c.15-.43.3-.86.6-1.7.5,1.45.88,2.51,1.26,3.6C325.72,232.62,325.72,232.62,326.51,230.33Z"/><path d="M218.4,226.73c-.32-.77-2-.71-2.28.07-1.15,2.91-2.24,5.85-3.37,8.83,1.2.29,2.16.33,2.42-1.09.08-.48.42-.54.82-.54.84,0,1.67,0,2.5,0,.43,0,.77.12.84.55.27,1.59,1.39,1.24,2.6,1.12C220.74,232.63,219.61,229.66,218.4,226.73Zm-.12,5.49a3.8,3.8,0,0,1-1.89.12c-.42,0-.35-.35-.26-.62.33-.95.68-1.9,1.12-3.11.32.95.57,1.6.77,2.26C218.16,231.33,218.68,232,218.28,232.22Z"/><path d="M270.26,226.42a19.7,19.7,0,0,0-3.6-.17c-.71,0-.68.45-.68.92v3.89c0,1.25,0,2.5,0,3.75,0,.7.18,1,.93,1s1.19-.08,1.09-1c-.05-.41,0-.83,0-1.24-.1-.86.14-1.33,1.12-1.22a4,4,0,0,0,1.24-.11,2.84,2.84,0,0,0,2.39-3A2.73,2.73,0,0,0,270.26,226.42Zm-1.36,4.49c-1.46.1-.73-1-.93-1.57.06-.72-.32-1.62,1-1.51,1,.08,1.74.33,1.76,1.47S269.94,230.84,268.9,230.91Z"/><path d="M182.3,209c-.55-.08-1.11-.06-1.66-.09v0a4.7,4.7,0,0,1-.84,0c-1.28-.24-1.54.35-1.49,1.52.09,2.31.05,4.63,0,6.94,0,.74.15,1.09,1,1.07s1.12-.16,1-1a4.43,4.43,0,0,1,.07-2.06c.37-.75,1.33-.25,2-.42,1.74-.43,2.67-1.45,2.65-3.07A2.89,2.89,0,0,0,182.3,209Zm-1.11,4.57c-1.43.1-.56-1.05-.89-1.44.14-.75-.36-1.72,1-1.62,1,.07,1.77.34,1.78,1.48S182.21,213.5,181.19,213.56Z"/><path d="M1200.7,205.56h165.08V250H1200.7ZM1240.6,224l.33.12c0,.32,0,.64,0,1q0,8.77,0,17.56c0,.55.21.77.76.76,1.63,0,3.25,0,4.88,0,.64,0,.83-.27.82-.9,0-2.54-.05-5.08-.05-7.63q0-11.27,0-22.53c0-.8-.25-1-1-1-1.23.07-2.46,0-3.68,0a1.16,1.16,0,0,0-1.26.64c-.78,1.42-1.66,2.78-2.48,4.18l-7.52,12.9c-.33.56-.61.61-1,0-1-1.72-2-3.43-3-5.13-2.39-4-4.77-8-7.2-12a1.4,1.4,0,0,0-1-.54c-1.34-.07-2.69,0-4,0-.68,0-.91.2-.91.89q0,15.12,0,30.25c0,.72.26.91.92.9,1.53,0,3.06-.06,4.6,0,.78,0,1-.26,1-1,0-5.27,0-10.54,0-15.82v-2.33c.34.31.56.44.67.64,2.24,3.71,4.54,7.39,6.67,11.17.79,1.42,1.58,2.35,3.36,2,.55-.09.94-.1,1.26-.65,2-3.54,4.14-7.06,6.22-10.59C1239.46,225.88,1240,224.93,1240.6,224Zm26.73,19.5a32,32,0,0,0,4.7-.94,16.83,16.83,0,0,0,8.72-6.83c.43-.64.4-.91-.36-1.17a37.08,37.08,0,0,1-4.36-1.69c-.73-.36-1-.24-1.48.34-2.56,3.17-6.88,5.55-11.69,3.45-3.68-1.6-6.58-6.25-6.06-10.22a10.1,10.1,0,0,1,4.41-7.31,8.9,8.9,0,0,1,8.37-1.22,11.12,11.12,0,0,1,5,3.7c.3.37.56.64,1.15.39,1.56-.69,3.15-1.32,4.75-1.91.66-.24.63-.51.28-1a17.42,17.42,0,0,0-6.47-5.82,16.09,16.09,0,0,0-16.67.72,15.5,15.5,0,0,0-6,20C1254.62,240.18,1259.8,243.16,1267.33,243.48Zm71.13,0a30.67,30.67,0,0,0,4.63-.92,16.91,16.91,0,0,0,8.83-7c.4-.59.24-.82-.38-1a32.65,32.65,0,0,1-4.35-1.69c-.85-.44-1.12-.19-1.61.42-2.56,3.12-6.89,5.36-11.48,3.41-5.37-2.27-7.92-9.11-5-14.14a9.71,9.71,0,0,1,7.61-5.11c3.82-.39,6.64,1.4,9,4.17a1.23,1.23,0,0,0,1,.36c1.33-.44,2.62-1,3.92-1.52,1.67-.67,1.69-.69.61-2.14a16.56,16.56,0,0,0-11.31-6.83,16.16,16.16,0,0,0-12.07,3,15.52,15.52,0,0,0-5.29,19.26C1325.58,240.09,1330.81,243.19,1338.46,243.48Zm-38.64-13.16h0c0-4.1,0-8.21,0-12.32,0-.71.32-1,1-1,2.36,0,4.72,0,7.08.06.57,0,.86-.17.85-.78,0-1.38,0-2.76,0-4.14,0-.59-.2-.8-.81-.8q-11.36,0-22.71,0c-.62,0-.89.14-.86.82,0,1.34,0,2.69,0,4,0,.72.28.87.93.86,2,0,4.11,0,6.16,0,1.81,0,1.82,0,1.83,1.78q0,11.82,0,23.63c0,.66.22.89.84.88,1.65,0,3.31,0,5,0,.61,0,.8-.23.8-.82C1299.81,238.47,1299.82,234.4,1299.82,230.32Zm11.94-3h0c0,5,0,10.05,0,15.07,0,.74.24,1,1,1,1.6,0,3.19,0,4.78,0,.53,0,.78-.14.78-.72q0-15.21,0-30.43c0-.68-.26-.82-.87-.8-1.5,0-3,.07-4.5,0-.91,0-1.14.24-1.14,1.13C1311.78,217.45,1311.76,222.38,1311.76,227.32Z"/><path d="M1306,96.2a4.7,4.7,0,0,1,4.65,4.67,4.78,4.78,0,0,1-4.72,4.64,4.84,4.84,0,0,1-4.62-4.65A4.74,4.74,0,0,1,1306,96.2Z"/><path d="M1329.68,123.2a4.65,4.65,0,1,1-9.3-.11,4.91,4.91,0,0,1,4.62-4.6A4.84,4.84,0,0,1,1329.68,123.2Z"/><path d="M1276.72,104a4.76,4.76,0,0,1-4.72-4.65,4.83,4.83,0,0,1,4.64-4.66,4.64,4.64,0,0,1,4.64,4.67A4.59,4.59,0,0,1,1276.72,104Z"/><path d="M1240.4,132.47a4.73,4.73,0,0,1-4.58,4.68,4.69,4.69,0,0,1,0-9.38A4.73,4.73,0,0,1,1240.4,132.47Z"/><path d="M1319.87,176.1a4.64,4.64,0,0,1,4.69-4.63,4.67,4.67,0,1,1-4.69,4.63Z"/><path d="M1328.43,183.16a7.9,7.9,0,0,1-10-1.75,1.16,1.16,0,0,0-1.54-.47q-5.91,2.13-11.87,4.13c-1,.34-1.27,1.19-1.65,2q-1.89,3.9-3.76,7.82H1301c26.34,0,49.81-10.66,64.74-27.18V84.9H1234.85c-9.72,11.42-15.45,25.44-15.45,40.58,0,15.32,5.88,29.5,15.81,41,1.91-3.93,3.79-7.77,5.62-11.64a1.82,1.82,0,0,0,0-1.24c-1.25-3.71-2.62-7.37-3.77-11.11a2.48,2.48,0,0,0-2.6-2.1c-3.2-.24-6-3.33-6.53-6.53a8,8,0,0,1,5.17-9,7.65,7.65,0,0,1,8.68,2.25,8.06,8.06,0,0,1-.82,11.51,1.18,1.18,0,0,0-.34,1.51c1.2,3.33,2.3,6.7,3.44,10.06.42,1.24.9,2.47,1.28,3.73a1.9,1.9,0,0,1,0,1.27c-2.16,4.59-4.37,9.15-6.57,13.72-.13.28-.28.56-.46.89a77.72,77.72,0,0,0,9.72,8.38l5.57-11.54c.94-1.95,1.92-3.89,2.82-5.86a1.94,1.94,0,0,0,.08-1.3c-1.41-4.23-2.88-8.45-4.3-12.68a1.63,1.63,0,0,1,0-1.11c2.52-5.3,5.09-10.58,7.64-15.87q4-8.3,8-16.6c1.14-2.37,2.33-4.71,3.43-7.09a1.25,1.25,0,0,0-.28-1.1,8.13,8.13,0,0,1,1.69-12.61,8,8,0,0,1,11.7,4.72,8.23,8.23,0,0,1-4.4,9.64,7.15,7.15,0,0,1-3.84.67c-.65-.08-1,.15-1.25.76-2.81,5.88-5.66,11.73-8.48,17.6-2.52,5.23-5,10.47-7.51,15.71-.7,1.46-1.46,2.89-2.13,4.36a1.78,1.78,0,0,0-.07,1.2c1.4,4.15,2.86,8.27,4.24,12.41a2.4,2.4,0,0,1-.07,1.65c-2.5,5.28-5,10.53-7.59,15.79l-1.78,3.66a84.66,84.66,0,0,0,10.85,6l4.66-9.67q4.05-8.43,8.1-16.86c2.32-4.82,4.67-9.63,7-14.44s4.61-9.65,6.92-14.46l6.94-14.37c1.47-3,2.91-6.06,4.4-9.07.33-.66.1-1-.32-1.53a8.16,8.16,0,0,1,2.52-12.62,8,8,0,1,1,3.4,15.34,2,2,0,0,0-2.24,1.38c-2.31,4.92-4.7,9.81-7.06,14.71q-2.43,5-4.87,10.07-3.27,6.83-6.53,13.64c-1.6,3.33-3.23,6.65-4.83,10q-3.53,7.31-7,14.62-3.43,7.16-6.89,14.29l-.31.64a91.81,91.81,0,0,0,11.86,3.85c.61-1.26,1.21-2.49,1.8-3.72,2.22-4.63,4.52-9.22,6.61-13.91.65-1.46,1.83-1.69,3-2.11,3.53-1.28,7.1-2.47,10.64-3.75a2.25,2.25,0,0,0,1.2-1c2.65-5.44,5.25-10.91,7.87-16.36s5.25-10.9,7.88-16.35c.78-1.63,1.54-3.26,2.35-4.87a1,1,0,0,0-.15-1.31,8.08,8.08,0,0,1,3.35-13.19,7.87,7.87,0,0,1,10.33,6.28,8.06,8.06,0,0,1-4.53,8.78,7,7,0,0,1-4.11.66,1,1,0,0,0-1.15.64c-1.77,3.72-3.54,7.45-5.33,11.16-1.62,3.36-3.28,6.71-4.89,10.07-2.19,4.54-4.35,9.1-6.52,13.65-.7,1.46-1.41,2.91-2.1,4.38-.5,1-1.59,1.08-2.47,1.4-3.59,1.29-7.22,2.47-10.81,3.77a2.73,2.73,0,0,0-1.31,1.29c-2,4.06-3.93,8.15-5.89,12.22-.51,1.07-1,2.12-1.55,3.19a94.4,94.4,0,0,0,12.85,1.68c.75-1.58,1.46-3.07,2.18-4.55,1.15-2.4,2.38-4.76,3.46-7.19a2.64,2.64,0,0,1,1.77-1.44c4.38-1.55,8.76-3.09,13.17-4.57a1.2,1.2,0,0,0,.9-1.27,7.67,7.67,0,0,1,4.34-6.75,7.91,7.91,0,0,1,10.7,3.54A8.15,8.15,0,0,1,1328.43,183.16Z"/><path d="M1360.48,176.43a86.25,86.25,0,0,1-26.76,15.38,96.23,96.23,0,0,1-32.7,5.63c-1.74,0-3.46-.05-5.18-.14h-2l.05-.12a95.64,95.64,0,0,1-25.58-5.37,86.09,86.09,0,0,1-26.75-15.38,72.25,72.25,0,0,1-18.08-22.87,62.63,62.63,0,0,1,0-56.17,69.34,69.34,0,0,1,8-12.49h-30.78V202.7h165.08V171.49C1364.1,173.2,1362.33,174.84,1360.48,176.43Z"/><path d="M1551.68,211.91c5.83-30,11.53-59.37,17.33-89.22,12.5,0,24.84-.1,37.18,0,5.56.07,11.23.1,16.64,1.18,7.2,1.45,11.05,6.22,10.66,13.43-.64,11.63-3,22.69-14.7,27.48,2.76,3.43,6.82,6.51,8,10.45,1.27,4.23.39,9.39-.55,13.94-2.69,13.16-9.34,20.61-20.87,21.71-11.76,1.13-23.66.76-35.51,1C1564,212,1558.1,211.91,1551.68,211.91Zm27.51-18c5.55,0,10.28.22,15-.06s7.7-5.73,7.55-13.1c-.1-5.42-3.83-5.08-7.45-5.09a61.9,61.9,0,0,0-8.62.12c-1.28.17-3.15,1.44-3.43,2.55C1581,183.23,1580.24,188.24,1579.19,193.92Zm6.71-34.85c4.86,0,9,.57,12.87-.22,2.37-.48,5.49-2.67,6.19-4.78,1.2-3.61.87-7.77.87-11.71,0-.51-1.89-1.43-2.93-1.47-4.49-.16-9-.07-13.51-.07Z"/><path d="M1534.66,122.69c6.41,0,12.32,0,18.23,0,1.34,0,2.68.12,4.67.21-5.77,29.74-11.49,59.2-17.26,89-6.76,0-13.18.2-19.57-.17-1.32-.07-3.23-2.07-3.66-3.54-3.15-10.71-6-21.51-8.94-32.28a4.9,4.9,0,0,0-2-3q-3.83,19.31-7.67,38.68H1475.8c5.76-29.74,11.45-59.07,17.18-88.64h22.83q5.09,19.15,10.21,38.43l1-.06C1529.54,148.66,1532,136,1534.66,122.69Z"/><path d="M1683.23,150.57c-.62-9.13-3-11.37-10.8-9.55-2.36.55-5.56,2.94-6,5-.46,2.33,1.32,5.52,3,7.71,1.19,1.59,3.71,2.23,5.69,3.16q4.83,2.26,9.75,4.33c8.3,3.49,15.73,7.85,16,18.21.34,11.82-3.57,21.95-14.22,27.93-13.63,7.64-28.29,7.9-42.77,2.86-10.34-3.61-12.93-11.65-9.2-25.2,1.54-.07,3.2-.2,4.86-.21,6.06,0,12.13,0,18.17,0,.12,8.46,1.21,9.87,7.48,10.18,6.53.33,10-2.13,10.79-7.43.62-4.05-1.47-6.49-4.65-8.19-5.38-2.86-10.85-5.55-16.29-8.29-15.81-7.94-18.89-23.74-7.24-37.2,10.58-12.21,36.33-16.52,50.38-8.43,7.53,4.34,11.41,14.57,8.48,23-.34,1-2.15,2-3.31,2C1696.76,150.67,1690.16,150.57,1683.23,150.57Z"/><path d="M1729.23,159.13c.89-4.55,1.81-8.34,2.32-12.19.45-3.37,2.07-4.51,5.4-4.34,4.85.23,9.72.06,15.07.06-.59,3.29-1,5.76-1.49,8.23s-1,5-1.59,8.08h16c-1.1,5.78-1.93,10.88-3.18,15.88-.23.92-2.16,1.86-3.39,2-4.3.51-9.85-.83-12.6,1.4-2.56,2.08-2,7.86-3.17,11.9-.37,1.27-1.84,3-3,3.12a103.69,103.69,0,0,1-11.16.19h-5.59c.53-3.21,1-5.81,1.4-8.42.41-2.45.83-4.91,1.35-8h-16.12c1-5.59,1.79-10.57,3-15.41.28-1.07,2.29-2.3,3.58-2.39C1720.36,158.94,1724.59,159.13,1729.23,159.13Z"/><path class="cls-2" d="M1489.67,75.33V48.57h12.84a10.92,10.92,0,0,1,7.82,2.81,9.57,9.57,0,0,1,2.73,7,8.58,8.58,0,0,1-2.65,6.7,9.15,9.15,0,0,1-6.58,2.17h-4.69v8.06Zm9.47-14.8h1.64a3,3,0,0,0,2.17-.73,2.09,2.09,0,0,0,.64-1.64,2,2,0,0,0-.72-1.65,3.36,3.36,0,0,0-2-.6h-1.76Z"/><path class="cls-2" d="M1522.72,72l-.72,3.33h-10.27L1521,48.57h10.75l9.55,26.76H1531L1530.1,72Zm3.93-14.48h-.36a14.08,14.08,0,0,1-.44,3l-1.32,5.13h3.89l-1.24-5.13A30.35,30.35,0,0,1,1526.65,57.52Z"/><path class="cls-2" d="M1544,75.33V48.57h12.07c2.81,0,5.74.32,8.19,2.77a8.86,8.86,0,0,1,2.53,6.58,7.2,7.2,0,0,1-1.49,4.77,6.32,6.32,0,0,1-3.69,2.13v.24a3.75,3.75,0,0,1,1.4,1.24l6,9h-11.19L1554,67.51a4.23,4.23,0,0,1-.36-.85l-.16.08v8.59Zm9.47-14.84h1.12a3.17,3.17,0,0,0,2-.61,2.1,2.1,0,0,0,.68-1.64,2.45,2.45,0,0,0-.52-1.61,2.14,2.14,0,0,0-1.65-.72h-1.68Z"/><path class="cls-2" d="M1591.79,74.85a20.44,20.44,0,0,1-6.74,1.08,14,14,0,0,1-9.86-3.89,13.82,13.82,0,0,1-3.9-9.87,14.3,14.3,0,0,1,4-10.15A13.83,13.83,0,0,1,1585.42,48a20.2,20.2,0,0,1,6.37,1l.28,10.19a8.46,8.46,0,0,0-5.65-2.65,5.26,5.26,0,0,0-3.89,1.65,5.63,5.63,0,0,0-1.41,3.81,5.28,5.28,0,0,0,1.57,3.85,5.52,5.52,0,0,0,4,1.53,7.46,7.46,0,0,0,5.41-2.53Z"/><path class="cls-2" d="M1596.2,75.33V48.57h18v7.34h-8.34V58.4h7.58v7h-7.58V68h8.59v7.34Z"/><path class="cls-2" d="M1618.66,75.33V48.57h12.08c2.81,0,5.73.32,8.18,2.77a8.82,8.82,0,0,1,2.53,6.58,7.15,7.15,0,0,1-1.49,4.77,6.32,6.32,0,0,1-3.69,2.13v.24a3.7,3.7,0,0,1,1.41,1.24l6,9h-11.2l-3.85-7.82a4.23,4.23,0,0,1-.36-.85l-.16.08v8.59Zm9.47-14.84h1.12a3.14,3.14,0,0,0,2-.61,2.1,2.1,0,0,0,.68-1.64,2.45,2.45,0,0,0-.52-1.61,2.12,2.12,0,0,0-1.64-.72h-1.69Z"/><path class="cls-2" d="M1647.18,75.33V48.57h9.71V75.33Z"/><path class="cls-2" d="M1670.57,72l-.73,3.33h-10.27l9.27-26.76h10.75l9.55,26.76h-10.31L1678,72Zm3.93-14.48h-.36a14.08,14.08,0,0,1-.44,3l-1.33,5.13h3.89L1675,60.53A30.21,30.21,0,0,1,1674.5,57.52Z"/></svg>